<svg width="857" height="495" viewBox="0 0 857 495" fill="none" xmlns="http://www.w3.org/2000/svg">
<g filter="url(#filter0_d_564_7198)">
<rect x="12" y="12" width="833" height="471" rx="8" fill="white"/>
</g>
<rect x="513.014" y="301.93" width="14.343" height="13.3167" fill="#D32C20"/>
<path d="M67.7208 55.4781C65.9875 55.4781 64.4708 55.0968 63.1708 54.3341C61.8881 53.5541 60.8915 52.4621 60.1808 51.0581C59.4875 49.6368 59.1408 47.9728 59.1408 46.0661C59.1408 44.6275 59.3401 43.3361 59.7388 42.1921C60.1375 41.0308 60.7095 40.0428 61.4548 39.2281C62.2001 38.3961 63.1015 37.7635 64.1588 37.3301C65.2161 36.8968 66.4035 36.6801 67.7208 36.6801C69.4715 36.6801 70.9881 37.0615 72.2708 37.8241C73.5535 38.5868 74.5415 39.6701 75.2348 41.0741C75.9455 42.4781 76.3008 44.1335 76.3008 46.0401C76.3008 47.4788 76.1015 48.7788 75.7028 49.9401C75.3041 51.1015 74.7235 52.0981 73.9608 52.9301C73.2155 53.7621 72.3141 54.3948 71.2568 54.8281C70.1995 55.2615 69.0208 55.4781 67.7208 55.4781ZM67.7208 53.1381C68.9341 53.1381 69.9655 52.8608 70.8148 52.3061C71.6815 51.7515 72.3401 50.9455 72.7908 49.8881C73.2588 48.8308 73.4928 47.5568 73.4928 46.0661C73.4928 43.8301 72.9901 42.0968 71.9848 40.8661C70.9795 39.6355 69.5581 39.0201 67.7208 39.0201C66.5075 39.0201 65.4675 39.2975 64.6008 39.8521C63.7515 40.3895 63.0928 41.1868 62.6248 42.2441C62.1741 43.3015 61.9488 44.5755 61.9488 46.0661C61.9488 48.2848 62.4515 50.0181 63.4568 51.2661C64.4795 52.5141 65.9008 53.1381 67.7208 53.1381ZM80.965 55.4261C80.5316 55.4261 80.2023 55.3135 79.977 55.0881C79.7516 54.8455 79.639 54.5161 79.639 54.1001V43.7001C79.639 43.2668 79.7516 42.9375 79.977 42.7121C80.2023 42.4868 80.5143 42.3741 80.913 42.3741C81.329 42.3741 81.641 42.4868 81.849 42.7121C82.0743 42.9375 82.187 43.2668 82.187 43.7001V45.5981H81.927C82.2043 44.5581 82.7156 43.7695 83.461 43.2321C84.2063 42.6948 85.1596 42.3828 86.321 42.2961C86.633 42.2788 86.8756 42.3568 87.049 42.5301C87.2396 42.7035 87.3436 42.9721 87.361 43.3361C87.3956 43.7001 87.3176 43.9948 87.127 44.2201C86.9363 44.4281 86.6416 44.5495 86.243 44.5841L85.749 44.6361C84.6223 44.7401 83.7643 45.0955 83.175 45.7021C82.5856 46.3088 82.291 47.1408 82.291 48.1981V54.1001C82.291 54.5161 82.1783 54.8455 81.953 55.0881C81.745 55.3135 81.4156 55.4261 80.965 55.4261ZM93.9965 55.4781C92.8871 55.4781 91.9078 55.2181 91.0585 54.6981C90.2265 54.1608 89.5765 53.3981 89.1085 52.4101C88.6405 51.4048 88.4065 50.2348 88.4065 48.9001C88.4065 47.5308 88.6405 46.3608 89.1085 45.3901C89.5765 44.4195 90.2265 43.6655 91.0585 43.1281C91.9078 42.5908 92.8871 42.3221 93.9965 42.3221C95.1058 42.3221 96.0591 42.5995 96.8565 43.1541C97.6711 43.6915 98.2171 44.4195 98.4945 45.3381H98.2085V38.0581C98.2085 37.6248 98.3211 37.2955 98.5465 37.0701C98.7718 36.8448 99.0925 36.7321 99.5085 36.7321C99.9245 36.7321 100.245 36.8448 100.47 37.0701C100.713 37.2955 100.834 37.6248 100.834 38.0581V54.1001C100.834 54.5161 100.722 54.8455 100.496 55.0881C100.271 55.3135 99.9505 55.4261 99.5345 55.4261C99.1185 55.4261 98.7978 55.3135 98.5725 55.0881C98.3471 54.8455 98.2345 54.5161 98.2345 54.1001V51.8121L98.5205 52.3841C98.2431 53.3201 97.6971 54.0741 96.8825 54.6461C96.0851 55.2008 95.1231 55.4781 93.9965 55.4781ZM94.6725 53.4501C95.3831 53.4501 96.0071 53.2768 96.5445 52.9301C97.0818 52.5835 97.4978 52.0721 97.7925 51.3961C98.1045 50.7201 98.2605 49.8881 98.2605 48.9001C98.2605 47.4095 97.9311 46.2828 97.2725 45.5201C96.6138 44.7575 95.7471 44.3761 94.6725 44.3761C93.9445 44.3761 93.3118 44.5495 92.7745 44.8961C92.2371 45.2255 91.8125 45.7281 91.5005 46.4041C91.2058 47.0801 91.0585 47.9121 91.0585 48.9001C91.0585 50.3735 91.3878 51.5001 92.0465 52.2801C92.7051 53.0601 93.5805 53.4501 94.6725 53.4501ZM110.476 55.4781C109.089 55.4781 107.893 55.2181 106.888 54.6981C105.9 54.1608 105.128 53.4068 104.574 52.4361C104.036 51.4481 103.768 50.2781 103.768 48.9261C103.768 47.6088 104.036 46.4561 104.574 45.4681C105.111 44.4801 105.848 43.7088 106.784 43.1541C107.72 42.5995 108.786 42.3221 109.982 42.3221C110.866 42.3221 111.654 42.4695 112.348 42.7641C113.041 43.0415 113.63 43.4575 114.116 44.0121C114.618 44.5495 114.991 45.2081 115.234 45.9881C115.494 46.7681 115.624 47.6435 115.624 48.6141C115.624 48.9088 115.537 49.1341 115.364 49.2901C115.19 49.4288 114.93 49.4981 114.584 49.4981H105.848V47.8861H113.856L113.414 48.2501C113.414 47.3835 113.284 46.6468 113.024 46.0401C112.781 45.4335 112.408 44.9741 111.906 44.6621C111.42 44.3328 110.814 44.1681 110.086 44.1681C109.271 44.1681 108.578 44.3588 108.006 44.7401C107.451 45.1215 107.026 45.6501 106.732 46.3261C106.437 47.0021 106.29 47.7908 106.29 48.6921V48.8481C106.29 50.3735 106.645 51.5261 107.356 52.3061C108.084 53.0688 109.132 53.4501 110.502 53.4501C111.022 53.4501 111.568 53.3808 112.14 53.2421C112.729 53.1035 113.284 52.8695 113.804 52.5401C114.098 52.3668 114.358 52.2888 114.584 52.3061C114.826 52.3235 115.017 52.4015 115.156 52.5401C115.312 52.6788 115.407 52.8521 115.442 53.0601C115.476 53.2681 115.442 53.4848 115.338 53.7101C115.234 53.9181 115.052 54.1088 114.792 54.2821C114.202 54.6808 113.518 54.9841 112.738 55.1921C111.958 55.3828 111.204 55.4781 110.476 55.4781ZM119.813 55.4261C119.379 55.4261 119.05 55.3135 118.825 55.0881C118.599 54.8455 118.487 54.5161 118.487 54.1001V43.7001C118.487 43.2668 118.599 42.9375 118.825 42.7121C119.05 42.4868 119.362 42.3741 119.761 42.3741C120.177 42.3741 120.489 42.4868 120.697 42.7121C120.922 42.9375 121.035 43.2668 121.035 43.7001V45.5981H120.775C121.052 44.5581 121.563 43.7695 122.309 43.2321C123.054 42.6948 124.007 42.3828 125.169 42.2961C125.481 42.2788 125.723 42.3568 125.897 42.5301C126.087 42.7035 126.191 42.9721 126.209 43.3361C126.243 43.7001 126.165 43.9948 125.975 44.2201C125.784 44.4281 125.489 44.5495 125.091 44.5841L124.597 44.6361C123.47 44.7401 122.612 45.0955 122.023 45.7021C121.433 46.3088 121.139 47.1408 121.139 48.1981V54.1001C121.139 54.5161 121.026 54.8455 120.801 55.0881C120.593 55.3135 120.263 55.4261 119.813 55.4261ZM132.505 55.4781C131.742 55.4781 130.954 55.3915 130.139 55.2181C129.342 55.0448 128.605 54.7501 127.929 54.3341C127.704 54.1781 127.548 54.0048 127.461 53.8141C127.374 53.6235 127.34 53.4328 127.357 53.2421C127.392 53.0341 127.47 52.8608 127.591 52.7221C127.73 52.5661 127.894 52.4708 128.085 52.4361C128.293 52.4015 128.51 52.4448 128.735 52.5661C129.411 52.9475 130.061 53.2161 130.685 53.3721C131.309 53.5108 131.924 53.5801 132.531 53.5801C133.45 53.5801 134.143 53.4155 134.611 53.0861C135.079 52.7568 135.313 52.3148 135.313 51.7601C135.313 51.3095 135.157 50.9628 134.845 50.7201C134.533 50.4601 134.065 50.2608 133.441 50.1221L130.971 49.6281C129.896 49.4028 129.082 49.0041 128.527 48.4321C127.972 47.8601 127.695 47.1321 127.695 46.2481C127.695 45.4508 127.912 44.7575 128.345 44.1681C128.778 43.5788 129.385 43.1281 130.165 42.8161C130.945 42.4868 131.846 42.3221 132.869 42.3221C133.632 42.3221 134.351 42.4175 135.027 42.6081C135.703 42.7988 136.327 43.0848 136.899 43.4661C137.124 43.5875 137.272 43.7521 137.341 43.9601C137.41 44.1508 137.419 44.3415 137.367 44.5321C137.332 44.7228 137.246 44.8961 137.107 45.0521C136.968 45.1908 136.795 45.2775 136.587 45.3121C136.396 45.3295 136.18 45.2775 135.937 45.1561C135.417 44.8268 134.897 44.5928 134.377 44.4541C133.874 44.3155 133.372 44.2461 132.869 44.2461C131.95 44.2461 131.257 44.4195 130.789 44.7661C130.338 45.0955 130.113 45.5461 130.113 46.1181C130.113 46.5515 130.252 46.9068 130.529 47.1841C130.806 47.4615 131.24 47.6608 131.829 47.7821L134.299 48.2761C135.426 48.5015 136.275 48.8828 136.847 49.4201C137.436 49.9575 137.731 50.6855 137.731 51.6041C137.731 52.8001 137.254 53.7448 136.301 54.4381C135.348 55.1315 134.082 55.4781 132.505 55.4781Z" fill="#0E2040"/>
<path d="M544.035 313.447C543.702 313.447 543.442 313.353 543.255 313.167C543.082 312.98 542.995 312.72 542.995 312.387V300.267C542.995 299.92 543.089 299.66 543.275 299.487C543.462 299.3 543.722 299.207 544.055 299.207H548.835C550.355 299.207 551.529 299.587 552.355 300.347C553.182 301.093 553.595 302.147 553.595 303.507C553.595 304.88 553.182 305.947 552.355 306.707C551.529 307.453 550.355 307.827 548.835 307.827H545.075V312.387C545.075 312.72 544.989 312.98 544.815 313.167C544.642 313.353 544.382 313.447 544.035 313.447ZM545.075 306.167H548.535C549.535 306.167 550.289 305.947 550.795 305.507C551.315 305.053 551.575 304.387 551.575 303.507C551.575 302.64 551.315 301.987 550.795 301.547C550.289 301.093 549.535 300.867 548.535 300.867H545.075V306.167ZM559.719 313.487C558.652 313.487 557.732 313.287 556.959 312.887C556.199 312.473 555.605 311.893 555.179 311.147C554.765 310.387 554.559 309.487 554.559 308.447C554.559 307.433 554.765 306.547 555.179 305.787C555.592 305.027 556.159 304.433 556.879 304.007C557.599 303.58 558.419 303.367 559.339 303.367C560.019 303.367 560.625 303.48 561.159 303.707C561.692 303.92 562.145 304.24 562.519 304.667C562.905 305.08 563.192 305.587 563.379 306.187C563.579 306.787 563.679 307.46 563.679 308.207C563.679 308.433 563.612 308.607 563.479 308.727C563.345 308.833 563.145 308.887 562.879 308.887H556.159V307.647H562.319L561.979 307.927C561.979 307.26 561.879 306.693 561.679 306.227C561.492 305.76 561.205 305.407 560.819 305.167C560.445 304.913 559.979 304.787 559.419 304.787C558.792 304.787 558.259 304.933 557.819 305.227C557.392 305.52 557.065 305.927 556.839 306.447C556.612 306.967 556.499 307.573 556.499 308.267V308.387C556.499 309.56 556.772 310.447 557.319 311.047C557.879 311.633 558.685 311.927 559.739 311.927C560.139 311.927 560.559 311.873 560.999 311.767C561.452 311.66 561.879 311.48 562.279 311.227C562.505 311.093 562.705 311.033 562.879 311.047C563.065 311.06 563.212 311.12 563.319 311.227C563.439 311.333 563.512 311.467 563.539 311.627C563.565 311.787 563.539 311.953 563.459 312.127C563.379 312.287 563.239 312.433 563.039 312.567C562.585 312.873 562.059 313.107 561.459 313.267C560.859 313.413 560.279 313.487 559.719 313.487ZM566.881 313.447C566.561 313.447 566.314 313.36 566.141 313.187C565.968 313 565.881 312.747 565.881 312.427V304.427C565.881 304.093 565.968 303.84 566.141 303.667C566.314 303.493 566.554 303.407 566.861 303.407C567.181 303.407 567.421 303.493 567.581 303.667C567.754 303.84 567.841 304.093 567.841 304.427V305.987L567.621 305.627C567.914 304.88 568.374 304.32 569.001 303.947C569.628 303.56 570.348 303.367 571.161 303.367C571.934 303.367 572.574 303.513 573.081 303.807C573.601 304.087 573.988 304.52 574.241 305.107C574.494 305.68 574.621 306.407 574.621 307.287V312.427C574.621 312.747 574.534 313 574.361 313.187C574.188 313.36 573.941 313.447 573.621 313.447C573.288 313.447 573.034 313.36 572.861 313.187C572.688 313 572.601 312.747 572.601 312.427V307.407C572.601 306.567 572.434 305.953 572.101 305.567C571.781 305.18 571.274 304.987 570.581 304.987C569.768 304.987 569.114 305.24 568.621 305.747C568.141 306.253 567.901 306.933 567.901 307.787V312.427C567.901 313.107 567.561 313.447 566.881 313.447ZM581.124 313.487C580.271 313.487 579.518 313.287 578.864 312.887C578.224 312.473 577.724 311.887 577.364 311.127C577.004 310.353 576.824 309.453 576.824 308.427C576.824 307.373 577.004 306.473 577.364 305.727C577.724 304.98 578.224 304.4 578.864 303.987C579.518 303.573 580.271 303.367 581.124 303.367C581.978 303.367 582.711 303.58 583.324 304.007C583.951 304.42 584.371 304.98 584.584 305.687H584.364V300.087C584.364 299.753 584.451 299.5 584.624 299.327C584.798 299.153 585.044 299.067 585.364 299.067C585.684 299.067 585.931 299.153 586.104 299.327C586.291 299.5 586.384 299.753 586.384 300.087V312.427C586.384 312.747 586.298 313 586.124 313.187C585.951 313.36 585.704 313.447 585.384 313.447C585.064 313.447 584.818 313.36 584.644 313.187C584.471 313 584.384 312.747 584.384 312.427V310.667L584.604 311.107C584.391 311.827 583.971 312.407 583.344 312.847C582.731 313.273 581.991 313.487 581.124 313.487ZM581.644 311.927C582.191 311.927 582.671 311.793 583.084 311.527C583.498 311.26 583.818 310.867 584.044 310.347C584.284 309.827 584.404 309.187 584.404 308.427C584.404 307.28 584.151 306.413 583.644 305.827C583.138 305.24 582.471 304.947 581.644 304.947C581.084 304.947 580.598 305.08 580.184 305.347C579.771 305.6 579.444 305.987 579.204 306.507C578.978 307.027 578.864 307.667 578.864 308.427C578.864 309.56 579.118 310.427 579.624 311.027C580.131 311.627 580.804 311.927 581.644 311.927ZM590.221 313.427C589.901 313.427 589.654 313.333 589.481 313.147C589.307 312.947 589.221 312.673 589.221 312.327V304.527C589.221 304.18 589.307 303.913 589.481 303.727C589.654 303.54 589.901 303.447 590.221 303.447C590.541 303.447 590.787 303.54 590.961 303.727C591.147 303.913 591.241 304.18 591.241 304.527V312.327C591.241 312.673 591.154 312.947 590.981 313.147C590.807 313.333 590.554 313.427 590.221 313.427ZM590.221 301.367C589.821 301.367 589.507 301.267 589.281 301.067C589.067 300.867 588.961 300.587 588.961 300.227C588.961 299.853 589.067 299.573 589.281 299.387C589.507 299.187 589.821 299.087 590.221 299.087C590.621 299.087 590.927 299.187 591.141 299.387C591.367 299.573 591.481 299.853 591.481 300.227C591.481 300.587 591.367 300.867 591.141 301.067C590.927 301.267 590.621 301.367 590.221 301.367ZM595.084 313.447C594.764 313.447 594.517 313.36 594.344 313.187C594.171 313 594.084 312.747 594.084 312.427V304.427C594.084 304.093 594.171 303.84 594.344 303.667C594.517 303.493 594.757 303.407 595.064 303.407C595.384 303.407 595.624 303.493 595.784 303.667C595.957 303.84 596.044 304.093 596.044 304.427V305.987L595.824 305.627C596.117 304.88 596.577 304.32 597.204 303.947C597.831 303.56 598.551 303.367 599.364 303.367C600.137 303.367 600.777 303.513 601.284 303.807C601.804 304.087 602.191 304.52 602.444 305.107C602.697 305.68 602.824 306.407 602.824 307.287V312.427C602.824 312.747 602.737 313 602.564 313.187C602.391 313.36 602.144 313.447 601.824 313.447C601.491 313.447 601.237 313.36 601.064 313.187C600.891 313 600.804 312.747 600.804 312.427V307.407C600.804 306.567 600.637 305.953 600.304 305.567C599.984 305.18 599.477 304.987 598.784 304.987C597.971 304.987 597.317 305.24 596.824 305.747C596.344 306.253 596.104 306.933 596.104 307.787V312.427C596.104 313.107 595.764 313.447 595.084 313.447ZM610.028 317.087C609.308 317.087 608.608 317.013 607.928 316.867C607.261 316.72 606.654 316.48 606.108 316.147C605.908 316.04 605.774 315.907 605.708 315.747C605.641 315.6 605.621 315.447 605.648 315.287C605.688 315.127 605.761 314.987 605.868 314.867C605.974 314.747 606.101 314.667 606.248 314.627C606.408 314.587 606.574 314.613 606.748 314.707C607.334 315.027 607.888 315.24 608.408 315.347C608.941 315.467 609.434 315.527 609.888 315.527C610.821 315.527 611.521 315.287 611.988 314.807C612.454 314.34 612.688 313.647 612.688 312.727V310.687H612.868C612.668 311.42 612.248 312 611.608 312.427C610.968 312.853 610.228 313.067 609.388 313.067C608.508 313.067 607.741 312.867 607.088 312.467C606.434 312.053 605.928 311.487 605.568 310.767C605.208 310.033 605.028 309.18 605.028 308.207C605.028 307.473 605.128 306.813 605.328 306.227C605.541 305.64 605.834 305.133 606.208 304.707C606.594 304.28 607.054 303.953 607.588 303.727C608.134 303.487 608.734 303.367 609.388 303.367C610.241 303.367 610.981 303.58 611.608 304.007C612.248 304.433 612.661 305.013 612.848 305.747L612.648 306.087V304.427C612.648 304.093 612.734 303.84 612.908 303.667C613.094 303.493 613.341 303.407 613.648 303.407C613.968 303.407 614.214 303.493 614.388 303.667C614.561 303.84 614.648 304.093 614.648 304.427V312.487C614.648 314.007 614.254 315.153 613.468 315.927C612.681 316.7 611.534 317.087 610.028 317.087ZM609.868 311.487C610.454 311.487 610.954 311.353 611.368 311.087C611.781 310.82 612.101 310.44 612.328 309.947C612.554 309.453 612.668 308.873 612.668 308.207C612.668 307.207 612.414 306.413 611.908 305.827C611.414 305.24 610.734 304.947 609.868 304.947C609.294 304.947 608.801 305.08 608.388 305.347C607.974 305.613 607.648 305.993 607.408 306.487C607.181 306.967 607.068 307.54 607.068 308.207C607.068 309.22 607.321 310.02 607.828 310.607C608.334 311.193 609.014 311.487 609.868 311.487Z" fill="#2B3A4A"/>
<path d="M546.026 271.817C544.692 271.817 543.526 271.523 542.526 270.937C541.539 270.337 540.772 269.497 540.226 268.417C539.692 267.323 539.426 266.043 539.426 264.577C539.426 263.47 539.579 262.477 539.886 261.597C540.192 260.703 540.632 259.943 541.206 259.317C541.779 258.677 542.472 258.19 543.286 257.857C544.099 257.523 545.012 257.357 546.026 257.357C547.372 257.357 548.539 257.65 549.526 258.237C550.512 258.823 551.272 259.657 551.806 260.737C552.352 261.817 552.626 263.09 552.626 264.557C552.626 265.663 552.472 266.663 552.166 267.557C551.859 268.45 551.412 269.217 550.826 269.857C550.252 270.497 549.559 270.983 548.746 271.317C547.932 271.65 547.026 271.817 546.026 271.817ZM546.026 270.017C546.959 270.017 547.752 269.803 548.406 269.377C549.072 268.95 549.579 268.33 549.926 267.517C550.286 266.703 550.466 265.723 550.466 264.577C550.466 262.857 550.079 261.523 549.306 260.577C548.532 259.63 547.439 259.157 546.026 259.157C545.092 259.157 544.292 259.37 543.626 259.797C542.972 260.21 542.466 260.823 542.106 261.637C541.759 262.45 541.586 263.43 541.586 264.577C541.586 266.283 541.972 267.617 542.746 268.577C543.532 269.537 544.626 270.017 546.026 270.017ZM556.193 271.777C555.873 271.777 555.627 271.69 555.453 271.517C555.28 271.33 555.193 271.077 555.193 270.757V262.757C555.193 262.423 555.28 262.17 555.453 261.997C555.627 261.823 555.867 261.737 556.173 261.737C556.493 261.737 556.733 261.823 556.893 261.997C557.067 262.17 557.153 262.423 557.153 262.757V264.317L556.933 263.957C557.227 263.21 557.687 262.65 558.313 262.277C558.94 261.89 559.66 261.697 560.473 261.697C561.247 261.697 561.887 261.843 562.393 262.137C562.913 262.417 563.3 262.85 563.553 263.437C563.807 264.01 563.933 264.737 563.933 265.617V270.757C563.933 271.077 563.847 271.33 563.673 271.517C563.5 271.69 563.253 271.777 562.933 271.777C562.6 271.777 562.347 271.69 562.173 271.517C562 271.33 561.913 271.077 561.913 270.757V265.737C561.913 264.897 561.747 264.283 561.413 263.897C561.093 263.51 560.587 263.317 559.893 263.317C559.08 263.317 558.427 263.57 557.933 264.077C557.453 264.583 557.213 265.263 557.213 266.117V270.757C557.213 271.437 556.873 271.777 556.193 271.777ZM573.25 271.777C572.917 271.777 572.657 271.683 572.47 271.497C572.297 271.31 572.21 271.05 572.21 270.717V258.597C572.21 258.25 572.304 257.99 572.49 257.817C572.677 257.63 572.937 257.537 573.27 257.537H578.05C579.57 257.537 580.744 257.917 581.57 258.677C582.397 259.423 582.81 260.477 582.81 261.837C582.81 263.21 582.397 264.277 581.57 265.037C580.744 265.783 579.57 266.157 578.05 266.157H574.29V270.717C574.29 271.05 574.204 271.31 574.03 271.497C573.857 271.683 573.597 271.777 573.25 271.777ZM574.29 264.497H577.75C578.75 264.497 579.504 264.277 580.01 263.837C580.53 263.383 580.79 262.717 580.79 261.837C580.79 260.97 580.53 260.317 580.01 259.877C579.504 259.423 578.75 259.197 577.75 259.197H574.29V264.497ZM585.647 271.777C585.314 271.777 585.06 271.69 584.887 271.517C584.714 271.33 584.627 271.077 584.627 270.757V262.757C584.627 262.423 584.714 262.17 584.887 261.997C585.06 261.823 585.3 261.737 585.607 261.737C585.927 261.737 586.167 261.823 586.327 261.997C586.5 262.17 586.587 262.423 586.587 262.757V264.217H586.387C586.6 263.417 586.994 262.81 587.567 262.397C588.14 261.983 588.874 261.743 589.767 261.677C590.007 261.663 590.194 261.723 590.327 261.857C590.474 261.99 590.554 262.197 590.567 262.477C590.594 262.757 590.534 262.983 590.387 263.157C590.24 263.317 590.014 263.41 589.707 263.437L589.327 263.477C588.46 263.557 587.8 263.83 587.347 264.297C586.894 264.763 586.667 265.403 586.667 266.217V270.757C586.667 271.077 586.58 271.33 586.407 271.517C586.247 271.69 585.994 271.777 585.647 271.777ZM596.191 271.817C595.205 271.817 594.351 271.61 593.631 271.197C592.925 270.783 592.371 270.197 591.971 269.437C591.571 268.677 591.371 267.783 591.371 266.757C591.371 265.97 591.485 265.27 591.711 264.657C591.938 264.043 592.258 263.517 592.671 263.077C593.098 262.623 593.605 262.283 594.191 262.057C594.791 261.817 595.458 261.697 596.191 261.697C597.165 261.697 598.005 261.903 598.711 262.317C599.431 262.73 599.991 263.317 600.391 264.077C600.791 264.823 600.991 265.717 600.991 266.757C600.991 267.53 600.878 268.23 600.651 268.857C600.425 269.483 600.098 270.017 599.671 270.457C599.258 270.897 598.751 271.237 598.151 271.477C597.565 271.703 596.911 271.817 596.191 271.817ZM596.191 270.257C596.738 270.257 597.218 270.123 597.631 269.857C598.045 269.59 598.365 269.197 598.591 268.677C598.831 268.157 598.951 267.517 598.951 266.757C598.951 265.61 598.698 264.743 598.191 264.157C597.685 263.57 597.018 263.277 596.191 263.277C595.631 263.277 595.145 263.41 594.731 263.677C594.318 263.93 593.991 264.317 593.751 264.837C593.525 265.357 593.411 265.997 593.411 266.757C593.411 267.89 593.665 268.757 594.171 269.357C594.678 269.957 595.351 270.257 596.191 270.257ZM607.68 275.417C606.96 275.417 606.26 275.343 605.58 275.197C604.913 275.05 604.307 274.81 603.76 274.477C603.56 274.37 603.427 274.237 603.36 274.077C603.293 273.93 603.273 273.777 603.3 273.617C603.34 273.457 603.413 273.317 603.52 273.197C603.627 273.077 603.753 272.997 603.9 272.957C604.06 272.917 604.227 272.943 604.4 273.037C604.987 273.357 605.54 273.57 606.06 273.677C606.593 273.797 607.087 273.857 607.54 273.857C608.473 273.857 609.173 273.617 609.64 273.137C610.107 272.67 610.34 271.977 610.34 271.057V269.017H610.52C610.32 269.75 609.9 270.33 609.26 270.757C608.62 271.183 607.88 271.397 607.04 271.397C606.16 271.397 605.393 271.197 604.74 270.797C604.087 270.383 603.58 269.817 603.22 269.097C602.86 268.363 602.68 267.51 602.68 266.537C602.68 265.803 602.78 265.143 602.98 264.557C603.193 263.97 603.487 263.463 603.86 263.037C604.247 262.61 604.707 262.283 605.24 262.057C605.787 261.817 606.387 261.697 607.04 261.697C607.893 261.697 608.633 261.91 609.26 262.337C609.9 262.763 610.313 263.343 610.5 264.077L610.3 264.417V262.757C610.3 262.423 610.387 262.17 610.56 261.997C610.747 261.823 610.993 261.737 611.3 261.737C611.62 261.737 611.867 261.823 612.04 261.997C612.213 262.17 612.3 262.423 612.3 262.757V270.817C612.3 272.337 611.907 273.483 611.12 274.257C610.333 275.03 609.187 275.417 607.68 275.417ZM607.52 269.817C608.107 269.817 608.607 269.683 609.02 269.417C609.433 269.15 609.753 268.77 609.98 268.277C610.207 267.783 610.32 267.203 610.32 266.537C610.32 265.537 610.067 264.743 609.56 264.157C609.067 263.57 608.387 263.277 607.52 263.277C606.947 263.277 606.453 263.41 606.04 263.677C605.627 263.943 605.3 264.323 605.06 264.817C604.833 265.297 604.72 265.87 604.72 266.537C604.72 267.55 604.973 268.35 605.48 268.937C605.987 269.523 606.667 269.817 607.52 269.817ZM616.155 271.777C615.822 271.777 615.568 271.69 615.395 271.517C615.222 271.33 615.135 271.077 615.135 270.757V262.757C615.135 262.423 615.222 262.17 615.395 261.997C615.568 261.823 615.808 261.737 616.115 261.737C616.435 261.737 616.675 261.823 616.835 261.997C617.008 262.17 617.095 262.423 617.095 262.757V264.217H616.895C617.108 263.417 617.502 262.81 618.075 262.397C618.648 261.983 619.382 261.743 620.275 261.677C620.515 261.663 620.702 261.723 620.835 261.857C620.982 261.99 621.062 262.197 621.075 262.477C621.102 262.757 621.042 262.983 620.895 263.157C620.748 263.317 620.522 263.41 620.215 263.437L619.835 263.477C618.968 263.557 618.308 263.83 617.855 264.297C617.402 264.763 617.175 265.403 617.175 266.217V270.757C617.175 271.077 617.088 271.33 616.915 271.517C616.755 271.69 616.502 271.777 616.155 271.777ZM627.039 271.817C625.972 271.817 625.052 271.617 624.279 271.217C623.519 270.803 622.926 270.223 622.499 269.477C622.086 268.717 621.879 267.817 621.879 266.777C621.879 265.763 622.086 264.877 622.499 264.117C622.912 263.357 623.479 262.763 624.199 262.337C624.919 261.91 625.739 261.697 626.659 261.697C627.339 261.697 627.946 261.81 628.479 262.037C629.012 262.25 629.466 262.57 629.839 262.997C630.226 263.41 630.512 263.917 630.699 264.517C630.899 265.117 630.999 265.79 630.999 266.537C630.999 266.763 630.932 266.937 630.799 267.057C630.666 267.163 630.466 267.217 630.199 267.217H623.479V265.977H629.639L629.299 266.257C629.299 265.59 629.199 265.023 628.999 264.557C628.812 264.09 628.526 263.737 628.139 263.497C627.766 263.243 627.299 263.117 626.739 263.117C626.112 263.117 625.579 263.263 625.139 263.557C624.712 263.85 624.386 264.257 624.159 264.777C623.932 265.297 623.819 265.903 623.819 266.597V266.717C623.819 267.89 624.092 268.777 624.639 269.377C625.199 269.963 626.006 270.257 627.059 270.257C627.459 270.257 627.879 270.203 628.319 270.097C628.772 269.99 629.199 269.81 629.599 269.557C629.826 269.423 630.026 269.363 630.199 269.377C630.386 269.39 630.532 269.45 630.639 269.557C630.759 269.663 630.832 269.797 630.859 269.957C630.886 270.117 630.859 270.283 630.779 270.457C630.699 270.617 630.559 270.763 630.359 270.897C629.906 271.203 629.379 271.437 628.779 271.597C628.179 271.743 627.599 271.817 627.039 271.817ZM636.621 271.817C636.035 271.817 635.428 271.75 634.801 271.617C634.188 271.483 633.621 271.257 633.101 270.937C632.928 270.817 632.808 270.683 632.741 270.537C632.675 270.39 632.648 270.243 632.661 270.097C632.688 269.937 632.748 269.803 632.841 269.697C632.948 269.577 633.075 269.503 633.221 269.477C633.381 269.45 633.548 269.483 633.721 269.577C634.241 269.87 634.741 270.077 635.221 270.197C635.701 270.303 636.175 270.357 636.641 270.357C637.348 270.357 637.881 270.23 638.241 269.977C638.601 269.723 638.781 269.383 638.781 268.957C638.781 268.61 638.661 268.343 638.421 268.157C638.181 267.957 637.821 267.803 637.341 267.697L635.441 267.317C634.615 267.143 633.988 266.837 633.561 266.397C633.135 265.957 632.921 265.397 632.921 264.717C632.921 264.103 633.088 263.57 633.421 263.117C633.755 262.663 634.221 262.317 634.821 262.077C635.421 261.823 636.115 261.697 636.901 261.697C637.488 261.697 638.041 261.77 638.561 261.917C639.081 262.063 639.561 262.283 640.001 262.577C640.175 262.67 640.288 262.797 640.341 262.957C640.395 263.103 640.401 263.25 640.361 263.397C640.335 263.543 640.268 263.677 640.161 263.797C640.055 263.903 639.921 263.97 639.761 263.997C639.615 264.01 639.448 263.97 639.261 263.877C638.861 263.623 638.461 263.443 638.061 263.337C637.675 263.23 637.288 263.177 636.901 263.177C636.195 263.177 635.661 263.31 635.301 263.577C634.955 263.83 634.781 264.177 634.781 264.617C634.781 264.95 634.888 265.223 635.101 265.437C635.315 265.65 635.648 265.803 636.101 265.897L638.001 266.277C638.868 266.45 639.521 266.743 639.961 267.157C640.415 267.57 640.641 268.13 640.641 268.837C640.641 269.757 640.275 270.483 639.541 271.017C638.808 271.55 637.835 271.817 636.621 271.817ZM646.309 271.817C645.722 271.817 645.115 271.75 644.489 271.617C643.875 271.483 643.309 271.257 642.789 270.937C642.615 270.817 642.495 270.683 642.429 270.537C642.362 270.39 642.335 270.243 642.349 270.097C642.375 269.937 642.435 269.803 642.529 269.697C642.635 269.577 642.762 269.503 642.909 269.477C643.069 269.45 643.235 269.483 643.409 269.577C643.929 269.87 644.429 270.077 644.909 270.197C645.389 270.303 645.862 270.357 646.329 270.357C647.035 270.357 647.569 270.23 647.929 269.977C648.289 269.723 648.469 269.383 648.469 268.957C648.469 268.61 648.349 268.343 648.109 268.157C647.869 267.957 647.509 267.803 647.029 267.697L645.129 267.317C644.302 267.143 643.675 266.837 643.249 266.397C642.822 265.957 642.609 265.397 642.609 264.717C642.609 264.103 642.775 263.57 643.109 263.117C643.442 262.663 643.909 262.317 644.509 262.077C645.109 261.823 645.802 261.697 646.589 261.697C647.175 261.697 647.729 261.77 648.249 261.917C648.769 262.063 649.249 262.283 649.689 262.577C649.862 262.67 649.975 262.797 650.029 262.957C650.082 263.103 650.089 263.25 650.049 263.397C650.022 263.543 649.955 263.677 649.849 263.797C649.742 263.903 649.609 263.97 649.449 263.997C649.302 264.01 649.135 263.97 648.949 263.877C648.549 263.623 648.149 263.443 647.749 263.337C647.362 263.23 646.975 263.177 646.589 263.177C645.882 263.177 645.349 263.31 644.989 263.577C644.642 263.83 644.469 264.177 644.469 264.617C644.469 264.95 644.575 265.223 644.789 265.437C645.002 265.65 645.335 265.803 645.789 265.897L647.689 266.277C648.555 266.45 649.209 266.743 649.649 267.157C650.102 267.57 650.329 268.13 650.329 268.837C650.329 269.757 649.962 270.483 649.229 271.017C648.495 271.55 647.522 271.817 646.309 271.817Z" fill="#2B3A4A"/>
<path d="M546.026 223.672C544.692 223.672 543.526 223.379 542.526 222.792C541.539 222.192 540.772 221.352 540.226 220.272C539.692 219.179 539.426 217.899 539.426 216.432C539.426 215.326 539.579 214.332 539.886 213.452C540.192 212.559 540.632 211.799 541.206 211.172C541.779 210.532 542.472 210.046 543.286 209.712C544.099 209.379 545.012 209.212 546.026 209.212C547.372 209.212 548.539 209.506 549.526 210.092C550.512 210.679 551.272 211.512 551.806 212.592C552.352 213.672 552.626 214.946 552.626 216.412C552.626 217.519 552.472 218.519 552.166 219.412C551.859 220.306 551.412 221.072 550.826 221.712C550.252 222.352 549.559 222.839 548.746 223.172C547.932 223.506 547.026 223.672 546.026 223.672ZM546.026 221.872C546.959 221.872 547.752 221.659 548.406 221.232C549.072 220.806 549.579 220.186 549.926 219.372C550.286 218.559 550.466 217.579 550.466 216.432C550.466 214.712 550.079 213.379 549.306 212.432C548.532 211.486 547.439 211.012 546.026 211.012C545.092 211.012 544.292 211.226 543.626 211.652C542.972 212.066 542.466 212.679 542.106 213.492C541.759 214.306 541.586 215.286 541.586 216.432C541.586 218.139 541.972 219.472 542.746 220.432C543.532 221.392 544.626 221.872 546.026 221.872ZM556.193 223.632C555.873 223.632 555.627 223.546 555.453 223.372C555.28 223.186 555.193 222.932 555.193 222.612V214.612C555.193 214.279 555.28 214.026 555.453 213.852C555.627 213.679 555.867 213.592 556.173 213.592C556.493 213.592 556.733 213.679 556.893 213.852C557.067 214.026 557.153 214.279 557.153 214.612V216.172L556.933 215.812C557.227 215.066 557.687 214.506 558.313 214.132C558.94 213.746 559.66 213.552 560.473 213.552C561.247 213.552 561.887 213.699 562.393 213.992C562.913 214.272 563.3 214.706 563.553 215.292C563.807 215.866 563.933 216.592 563.933 217.472V222.612C563.933 222.932 563.847 223.186 563.673 223.372C563.5 223.546 563.253 223.632 562.933 223.632C562.6 223.632 562.347 223.546 562.173 223.372C562 223.186 561.913 222.932 561.913 222.612V217.592C561.913 216.752 561.747 216.139 561.413 215.752C561.093 215.366 560.587 215.172 559.893 215.172C559.08 215.172 558.427 215.426 557.933 215.932C557.453 216.439 557.213 217.119 557.213 217.972V222.612C557.213 223.292 556.873 223.632 556.193 223.632ZM573.25 223.632C572.917 223.632 572.657 223.539 572.47 223.352C572.297 223.166 572.21 222.906 572.21 222.572V210.312C572.21 209.966 572.297 209.706 572.47 209.532C572.657 209.346 572.917 209.252 573.25 209.252C573.584 209.252 573.837 209.346 574.01 209.532C574.197 209.706 574.29 209.966 574.29 210.312V215.472H582.19V210.312C582.19 209.966 582.277 209.706 582.45 209.532C582.637 209.346 582.897 209.252 583.23 209.252C583.564 209.252 583.817 209.346 583.99 209.532C584.164 209.706 584.25 209.966 584.25 210.312V222.572C584.25 222.906 584.164 223.166 583.99 223.352C583.817 223.539 583.564 223.632 583.23 223.632C582.897 223.632 582.637 223.539 582.45 223.352C582.277 223.166 582.19 222.906 582.19 222.572V217.212H574.29V222.572C574.29 222.906 574.204 223.166 574.03 223.352C573.857 223.539 573.597 223.632 573.25 223.632ZM591.562 223.672C590.576 223.672 589.722 223.466 589.002 223.052C588.296 222.639 587.742 222.052 587.342 221.292C586.942 220.532 586.742 219.639 586.742 218.612C586.742 217.826 586.856 217.126 587.082 216.512C587.309 215.899 587.629 215.372 588.042 214.932C588.469 214.479 588.976 214.139 589.562 213.912C590.162 213.672 590.829 213.552 591.562 213.552C592.536 213.552 593.376 213.759 594.082 214.172C594.802 214.586 595.362 215.172 595.762 215.932C596.162 216.679 596.362 217.572 596.362 218.612C596.362 219.386 596.249 220.086 596.022 220.712C595.796 221.339 595.469 221.872 595.042 222.312C594.629 222.752 594.122 223.092 593.522 223.332C592.936 223.559 592.282 223.672 591.562 223.672ZM591.562 222.112C592.109 222.112 592.589 221.979 593.002 221.712C593.416 221.446 593.736 221.052 593.962 220.532C594.202 220.012 594.322 219.372 594.322 218.612C594.322 217.466 594.069 216.599 593.562 216.012C593.056 215.426 592.389 215.132 591.562 215.132C591.002 215.132 590.516 215.266 590.102 215.532C589.689 215.786 589.362 216.172 589.122 216.692C588.896 217.212 588.782 217.852 588.782 218.612C588.782 219.746 589.036 220.612 589.542 221.212C590.049 221.812 590.722 222.112 591.562 222.112ZM601.771 223.672C600.731 223.672 599.944 223.372 599.411 222.772C598.891 222.159 598.631 221.279 598.631 220.132V210.272C598.631 209.939 598.718 209.686 598.891 209.512C599.064 209.339 599.311 209.252 599.631 209.252C599.951 209.252 600.198 209.339 600.371 209.512C600.558 209.686 600.651 209.939 600.651 210.272V220.012C600.651 220.679 600.784 221.179 601.051 221.512C601.331 221.832 601.731 221.992 602.251 221.992C602.371 221.992 602.478 221.992 602.571 221.992C602.664 221.979 602.758 221.966 602.851 221.952C603.011 221.939 603.124 221.986 603.191 222.092C603.258 222.186 603.291 222.386 603.291 222.692C603.291 222.972 603.231 223.192 603.111 223.352C602.991 223.499 602.798 223.592 602.531 223.632C602.411 223.646 602.284 223.652 602.151 223.652C602.018 223.666 601.891 223.672 601.771 223.672ZM608.367 223.672C607.513 223.672 606.76 223.472 606.107 223.072C605.467 222.659 604.967 222.072 604.607 221.312C604.247 220.539 604.067 219.639 604.067 218.612C604.067 217.559 604.247 216.659 604.607 215.912C604.967 215.166 605.467 214.586 606.107 214.172C606.76 213.759 607.513 213.552 608.367 213.552C609.22 213.552 609.953 213.766 610.567 214.192C611.193 214.606 611.613 215.166 611.827 215.872H611.607V210.272C611.607 209.939 611.693 209.686 611.867 209.512C612.04 209.339 612.287 209.252 612.607 209.252C612.927 209.252 613.173 209.339 613.347 209.512C613.533 209.686 613.627 209.939 613.627 210.272V222.612C613.627 222.932 613.54 223.186 613.367 223.372C613.193 223.546 612.947 223.632 612.627 223.632C612.307 223.632 612.06 223.546 611.887 223.372C611.713 223.186 611.627 222.932 611.627 222.612V220.852L611.847 221.292C611.633 222.012 611.213 222.592 610.587 223.032C609.973 223.459 609.233 223.672 608.367 223.672ZM608.887 222.112C609.433 222.112 609.913 221.979 610.327 221.712C610.74 221.446 611.06 221.052 611.287 220.532C611.527 220.012 611.647 219.372 611.647 218.612C611.647 217.466 611.393 216.599 610.887 216.012C610.38 215.426 609.713 215.132 608.887 215.132C608.327 215.132 607.84 215.266 607.427 215.532C607.013 215.786 606.687 216.172 606.447 216.692C606.22 217.212 606.107 217.852 606.107 218.612C606.107 219.746 606.36 220.612 606.867 221.212C607.373 221.812 608.047 222.112 608.887 222.112Z" fill="#2B3A4A"/>
<path d="M546.226 175.528C544.799 175.528 543.579 175.234 542.566 174.648C541.552 174.061 540.772 173.228 540.226 172.148C539.692 171.054 539.426 169.768 539.426 168.288C539.426 167.181 539.579 166.188 539.886 165.308C540.192 164.414 540.632 163.654 541.206 163.028C541.792 162.388 542.506 161.901 543.346 161.568C544.199 161.234 545.159 161.068 546.226 161.068C547.012 161.068 547.766 161.174 548.486 161.388C549.219 161.601 549.852 161.908 550.386 162.308C550.612 162.454 550.759 162.634 550.826 162.848C550.906 163.048 550.919 163.241 550.866 163.428C550.826 163.614 550.739 163.774 550.606 163.908C550.472 164.028 550.299 164.094 550.086 164.108C549.886 164.121 549.666 164.048 549.426 163.888C548.986 163.554 548.499 163.308 547.966 163.148C547.432 162.988 546.872 162.908 546.286 162.908C545.272 162.908 544.419 163.121 543.726 163.548C543.032 163.961 542.506 164.568 542.146 165.368C541.786 166.168 541.606 167.141 541.606 168.288C541.606 169.434 541.786 170.414 542.146 171.228C542.506 172.028 543.032 172.641 543.726 173.068C544.419 173.481 545.272 173.688 546.286 173.688C546.872 173.688 547.432 173.608 547.966 173.448C548.512 173.274 549.026 173.021 549.506 172.688C549.746 172.541 549.959 172.474 550.146 172.488C550.346 172.501 550.512 172.568 550.646 172.688C550.779 172.808 550.866 172.961 550.906 173.148C550.959 173.321 550.952 173.508 550.886 173.708C550.832 173.894 550.706 174.054 550.506 174.188C549.959 174.628 549.312 174.961 548.566 175.188C547.819 175.414 547.039 175.528 546.226 175.528ZM556.738 175.528C555.751 175.528 554.898 175.321 554.178 174.908C553.471 174.494 552.918 173.908 552.518 173.148C552.118 172.388 551.918 171.494 551.918 170.468C551.918 169.681 552.031 168.981 552.258 168.368C552.485 167.754 552.805 167.228 553.218 166.788C553.645 166.334 554.151 165.994 554.738 165.768C555.338 165.528 556.005 165.408 556.738 165.408C557.711 165.408 558.551 165.614 559.258 166.028C559.978 166.441 560.538 167.028 560.938 167.788C561.338 168.534 561.538 169.428 561.538 170.468C561.538 171.241 561.425 171.941 561.198 172.568C560.971 173.194 560.645 173.728 560.218 174.168C559.805 174.608 559.298 174.948 558.698 175.188C558.111 175.414 557.458 175.528 556.738 175.528ZM556.738 173.968C557.285 173.968 557.765 173.834 558.178 173.568C558.591 173.301 558.911 172.908 559.138 172.388C559.378 171.868 559.498 171.228 559.498 170.468C559.498 169.321 559.245 168.454 558.738 167.868C558.231 167.281 557.565 166.988 556.738 166.988C556.178 166.988 555.691 167.121 555.278 167.388C554.865 167.641 554.538 168.028 554.298 168.548C554.071 169.068 553.958 169.708 553.958 170.468C553.958 171.601 554.211 172.468 554.718 173.068C555.225 173.668 555.898 173.968 556.738 173.968ZM564.847 175.488C564.527 175.488 564.28 175.401 564.107 175.228C563.933 175.041 563.847 174.788 563.847 174.468V166.468C563.847 166.134 563.933 165.881 564.107 165.708C564.28 165.534 564.52 165.448 564.827 165.448C565.147 165.448 565.387 165.534 565.547 165.708C565.72 165.881 565.807 166.134 565.807 166.468V168.108L565.587 167.668C565.853 166.961 566.267 166.408 566.827 166.008C567.387 165.608 568.06 165.408 568.847 165.408C569.66 165.408 570.32 165.601 570.827 165.988C571.333 166.374 571.68 166.968 571.867 167.768H571.587C571.84 167.034 572.273 166.461 572.887 166.048C573.5 165.621 574.213 165.408 575.027 165.408C575.773 165.408 576.387 165.554 576.867 165.848C577.347 166.128 577.707 166.561 577.947 167.148C578.187 167.721 578.307 168.448 578.307 169.328V174.468C578.307 174.788 578.213 175.041 578.027 175.228C577.853 175.401 577.607 175.488 577.287 175.488C576.967 175.488 576.72 175.401 576.547 175.228C576.373 175.041 576.287 174.788 576.287 174.468V169.428C576.287 168.601 576.14 167.994 575.847 167.608C575.567 167.221 575.1 167.028 574.447 167.028C573.713 167.028 573.133 167.281 572.707 167.788C572.28 168.294 572.067 168.994 572.067 169.888V174.468C572.067 174.788 571.98 175.041 571.807 175.228C571.633 175.401 571.387 175.488 571.067 175.488C570.747 175.488 570.493 175.401 570.307 175.228C570.133 175.041 570.047 174.788 570.047 174.468V169.428C570.047 168.601 569.907 167.994 569.627 167.608C569.347 167.221 568.88 167.028 568.227 167.028C567.493 167.028 566.913 167.281 566.487 167.788C566.073 168.294 565.867 168.994 565.867 169.888V174.468C565.867 175.148 565.527 175.488 564.847 175.488ZM582.131 179.088C581.811 179.088 581.564 179.001 581.391 178.828C581.218 178.654 581.131 178.401 581.131 178.068V166.468C581.131 166.134 581.218 165.881 581.391 165.708C581.564 165.534 581.804 165.448 582.111 165.448C582.431 165.448 582.678 165.534 582.851 165.708C583.024 165.881 583.111 166.134 583.111 166.468V168.208L582.891 167.788C583.104 167.068 583.524 166.494 584.151 166.068C584.778 165.628 585.518 165.408 586.371 165.408C587.238 165.408 587.991 165.614 588.631 166.028C589.284 166.441 589.784 167.021 590.131 167.768C590.491 168.514 590.671 169.414 590.671 170.468C590.671 171.494 590.491 172.394 590.131 173.168C589.784 173.928 589.291 174.514 588.651 174.928C588.011 175.328 587.251 175.528 586.371 175.528C585.531 175.528 584.798 175.314 584.171 174.888C583.544 174.461 583.124 173.894 582.911 173.188H583.151V178.068C583.151 178.401 583.058 178.654 582.871 178.828C582.698 179.001 582.451 179.088 582.131 179.088ZM585.871 173.968C586.431 173.968 586.918 173.834 587.331 173.568C587.744 173.301 588.064 172.908 588.291 172.388C588.518 171.868 588.631 171.228 588.631 170.468C588.631 169.321 588.378 168.454 587.871 167.868C587.378 167.281 586.711 166.988 585.871 166.988C585.324 166.988 584.838 167.121 584.411 167.388C583.998 167.641 583.678 168.028 583.451 168.548C583.224 169.068 583.111 169.708 583.111 170.468C583.111 171.601 583.364 172.468 583.871 173.068C584.378 173.668 585.044 173.968 585.871 173.968ZM596.087 175.528C595.047 175.528 594.261 175.228 593.727 174.628C593.207 174.014 592.947 173.134 592.947 171.988V162.128C592.947 161.794 593.034 161.541 593.207 161.368C593.381 161.194 593.627 161.108 593.947 161.108C594.267 161.108 594.514 161.194 594.687 161.368C594.874 161.541 594.967 161.794 594.967 162.128V171.868C594.967 172.534 595.101 173.034 595.367 173.368C595.647 173.688 596.047 173.848 596.567 173.848C596.687 173.848 596.794 173.848 596.887 173.848C596.981 173.834 597.074 173.821 597.167 173.808C597.327 173.794 597.441 173.841 597.507 173.948C597.574 174.041 597.607 174.241 597.607 174.548C597.607 174.828 597.547 175.048 597.427 175.208C597.307 175.354 597.114 175.448 596.847 175.488C596.727 175.501 596.601 175.508 596.467 175.508C596.334 175.521 596.207 175.528 596.087 175.528ZM603.543 175.528C602.476 175.528 601.556 175.328 600.783 174.928C600.023 174.514 599.43 173.934 599.003 173.188C598.59 172.428 598.383 171.528 598.383 170.488C598.383 169.474 598.59 168.588 599.003 167.828C599.416 167.068 599.983 166.474 600.703 166.048C601.423 165.621 602.243 165.408 603.163 165.408C603.843 165.408 604.45 165.521 604.983 165.748C605.516 165.961 605.97 166.281 606.343 166.708C606.73 167.121 607.016 167.628 607.203 168.228C607.403 168.828 607.503 169.501 607.503 170.248C607.503 170.474 607.436 170.648 607.303 170.768C607.17 170.874 606.97 170.928 606.703 170.928H599.983V169.688H606.143L605.803 169.968C605.803 169.301 605.703 168.734 605.503 168.268C605.316 167.801 605.03 167.448 604.643 167.208C604.27 166.954 603.803 166.828 603.243 166.828C602.616 166.828 602.083 166.974 601.643 167.268C601.216 167.561 600.89 167.968 600.663 168.488C600.436 169.008 600.323 169.614 600.323 170.308V170.428C600.323 171.601 600.596 172.488 601.143 173.088C601.703 173.674 602.51 173.968 603.563 173.968C603.963 173.968 604.383 173.914 604.823 173.808C605.276 173.701 605.703 173.521 606.103 173.268C606.33 173.134 606.53 173.074 606.703 173.088C606.89 173.101 607.036 173.161 607.143 173.268C607.263 173.374 607.336 173.508 607.363 173.668C607.39 173.828 607.363 173.994 607.283 174.168C607.203 174.328 607.063 174.474 606.863 174.608C606.41 174.914 605.883 175.148 605.283 175.308C604.683 175.454 604.103 175.528 603.543 175.528ZM613.846 175.528C613.046 175.528 612.372 175.388 611.826 175.108C611.279 174.828 610.872 174.414 610.606 173.868C610.339 173.321 610.206 172.654 610.206 171.868V167.148H609.006C608.739 167.148 608.532 167.081 608.386 166.948C608.239 166.801 608.166 166.608 608.166 166.368C608.166 166.114 608.239 165.921 608.386 165.788C608.532 165.654 608.739 165.588 609.006 165.588H610.206V163.528C610.206 163.194 610.292 162.941 610.466 162.768C610.652 162.594 610.906 162.508 611.226 162.508C611.546 162.508 611.792 162.594 611.966 162.768C612.139 162.941 612.226 163.194 612.226 163.528V165.588H614.566C614.832 165.588 615.039 165.654 615.186 165.788C615.332 165.921 615.406 166.114 615.406 166.368C615.406 166.608 615.332 166.801 615.186 166.948C615.039 167.081 614.832 167.148 614.566 167.148H612.226V171.708C612.226 172.414 612.372 172.948 612.666 173.308C612.972 173.668 613.466 173.848 614.146 173.848C614.386 173.848 614.592 173.828 614.766 173.788C614.952 173.734 615.106 173.701 615.226 173.688C615.372 173.688 615.492 173.741 615.586 173.848C615.679 173.941 615.726 174.128 615.726 174.408C615.726 174.608 615.686 174.794 615.606 174.968C615.539 175.141 615.412 175.254 615.226 175.308C615.066 175.361 614.846 175.408 614.566 175.448C614.299 175.501 614.059 175.528 613.846 175.528ZM621.473 175.528C620.406 175.528 619.486 175.328 618.713 174.928C617.953 174.514 617.359 173.934 616.933 173.188C616.519 172.428 616.313 171.528 616.313 170.488C616.313 169.474 616.519 168.588 616.933 167.828C617.346 167.068 617.913 166.474 618.633 166.048C619.353 165.621 620.173 165.408 621.093 165.408C621.773 165.408 622.379 165.521 622.913 165.748C623.446 165.961 623.899 166.281 624.273 166.708C624.659 167.121 624.946 167.628 625.133 168.228C625.333 168.828 625.433 169.501 625.433 170.248C625.433 170.474 625.366 170.648 625.233 170.768C625.099 170.874 624.899 170.928 624.633 170.928H617.913V169.688H624.073L623.733 169.968C623.733 169.301 623.633 168.734 623.433 168.268C623.246 167.801 622.959 167.448 622.573 167.208C622.199 166.954 621.733 166.828 621.173 166.828C620.546 166.828 620.013 166.974 619.573 167.268C619.146 167.561 618.819 167.968 618.593 168.488C618.366 169.008 618.253 169.614 618.253 170.308V170.428C618.253 171.601 618.526 172.488 619.073 173.088C619.633 173.674 620.439 173.968 621.493 173.968C621.893 173.968 622.313 173.914 622.753 173.808C623.206 173.701 623.633 173.521 624.033 173.268C624.259 173.134 624.459 173.074 624.633 173.088C624.819 173.101 624.966 173.161 625.073 173.268C625.193 173.374 625.266 173.508 625.293 173.668C625.319 173.828 625.293 173.994 625.213 174.168C625.133 174.328 624.993 174.474 624.793 174.608C624.339 174.914 623.813 175.148 623.213 175.308C622.613 175.454 622.033 175.528 621.473 175.528ZM631.355 175.528C630.502 175.528 629.748 175.328 629.095 174.928C628.455 174.514 627.955 173.928 627.595 173.168C627.235 172.394 627.055 171.494 627.055 170.468C627.055 169.414 627.235 168.514 627.595 167.768C627.955 167.021 628.455 166.441 629.095 166.028C629.748 165.614 630.502 165.408 631.355 165.408C632.208 165.408 632.942 165.621 633.555 166.048C634.182 166.461 634.602 167.021 634.815 167.728H634.595V162.128C634.595 161.794 634.682 161.541 634.855 161.368C635.028 161.194 635.275 161.108 635.595 161.108C635.915 161.108 636.162 161.194 636.335 161.368C636.522 161.541 636.615 161.794 636.615 162.128V174.468C636.615 174.788 636.528 175.041 636.355 175.228C636.182 175.401 635.935 175.488 635.615 175.488C635.295 175.488 635.048 175.401 634.875 175.228C634.702 175.041 634.615 174.788 634.615 174.468V172.708L634.835 173.148C634.622 173.868 634.202 174.448 633.575 174.888C632.962 175.314 632.222 175.528 631.355 175.528ZM631.875 173.968C632.422 173.968 632.902 173.834 633.315 173.568C633.728 173.301 634.048 172.908 634.275 172.388C634.515 171.868 634.635 171.228 634.635 170.468C634.635 169.321 634.382 168.454 633.875 167.868C633.368 167.281 632.702 166.988 631.875 166.988C631.315 166.988 630.828 167.121 630.415 167.388C630.002 167.641 629.675 168.028 629.435 168.548C629.208 169.068 629.095 169.708 629.095 170.468C629.095 171.601 629.348 172.468 629.855 173.068C630.362 173.668 631.035 173.968 631.875 173.968Z" fill="#2B3A4A"/>
<rect x="512.889" y="162.518" width="14.343" height="13.3167" fill="#238899"/>
<rect x="512.889" y="210.662" width="14.343" height="13.3167" fill="#625ED7"/>
<rect x="512.889" y="258.809" width="14.343" height="13.3167" fill="#39B4F3"/>
<g filter="url(#filter1_d_564_7198)">
<ellipse cx="237.678" cy="231.901" rx="168.321" ry="166.573" fill="#238899"/>
</g>
<g filter="url(#filter2_d_564_7198)">
<path d="M118.657 349.686C135.74 366.591 156.299 379.659 178.939 388.002C201.578 396.346 225.767 399.768 249.862 398.037C273.957 396.307 297.393 389.464 318.578 377.973C339.763 366.483 358.201 350.614 372.638 331.445L237.678 231.901L118.657 349.686Z" fill="#D32C20"/>
</g>
<g filter="url(#filter3_d_564_7198)">
<path fill-rule="evenodd" clip-rule="evenodd" d="M237.678 398.474C330.639 398.474 405.999 323.897 405.999 231.901C405.999 139.905 330.639 65.3281 237.678 65.3281L237.678 398.474Z" fill="#625ED7"/>
</g>
<g filter="url(#filter4_d_564_7198)">
<path fill-rule="evenodd" clip-rule="evenodd" d="M405.999 231.9C405.999 323.896 330.639 398.474 237.678 398.474L237.678 231.9L405.999 231.9Z" fill="#39B4F3"/>
</g>
<path d="M158.553 183.073C157.807 183.073 157.047 182.973 156.273 182.773C155.5 182.559 154.827 182.246 154.253 181.833C154.04 181.699 153.893 181.539 153.813 181.353C153.747 181.153 153.733 180.973 153.773 180.813C153.813 180.639 153.893 180.493 154.013 180.373C154.147 180.253 154.307 180.186 154.493 180.173C154.68 180.146 154.887 180.199 155.113 180.333C155.687 180.679 156.247 180.933 156.793 181.093C157.34 181.239 157.907 181.313 158.493 181.313C159.133 181.313 159.673 181.219 160.113 181.033C160.553 180.846 160.88 180.573 161.093 180.213C161.32 179.853 161.433 179.419 161.433 178.913C161.433 178.153 161.18 177.586 160.673 177.213C160.18 176.826 159.46 176.633 158.513 176.633H157.153C156.847 176.633 156.613 176.559 156.453 176.413C156.293 176.253 156.213 176.033 156.213 175.753C156.213 175.486 156.293 175.279 156.453 175.133C156.613 174.973 156.847 174.893 157.153 174.893H158.313C158.887 174.893 159.373 174.799 159.773 174.613C160.173 174.413 160.48 174.139 160.693 173.793C160.92 173.433 161.033 172.999 161.033 172.493C161.033 171.813 160.807 171.293 160.353 170.933C159.913 170.559 159.267 170.373 158.413 170.373C157.867 170.373 157.347 170.446 156.853 170.593C156.373 170.739 155.873 170.999 155.353 171.373C155.153 171.506 154.96 171.566 154.773 171.553C154.6 171.526 154.447 171.459 154.313 171.353C154.193 171.233 154.107 171.086 154.053 170.913C154.013 170.739 154.027 170.559 154.093 170.373C154.16 170.186 154.293 170.026 154.493 169.893C155.053 169.479 155.687 169.166 156.393 168.953C157.1 168.726 157.827 168.613 158.573 168.613C159.507 168.613 160.307 168.759 160.973 169.053C161.653 169.346 162.167 169.766 162.513 170.313C162.873 170.859 163.053 171.513 163.053 172.273C163.053 172.846 162.947 173.366 162.733 173.833C162.52 174.299 162.213 174.699 161.813 175.033C161.427 175.353 160.953 175.579 160.393 175.713V175.493C161.367 175.653 162.12 176.053 162.653 176.693C163.187 177.319 163.453 178.106 163.453 179.053C163.453 179.879 163.253 180.599 162.853 181.213C162.467 181.813 161.907 182.273 161.173 182.593C160.44 182.913 159.567 183.073 158.553 183.073ZM167.386 182.893C167.026 182.893 166.766 182.813 166.606 182.653C166.446 182.479 166.366 182.246 166.366 181.953C166.366 181.766 166.412 181.586 166.506 181.413C166.599 181.239 166.732 181.059 166.906 180.873L171.166 176.313C171.819 175.619 172.286 174.986 172.566 174.413C172.859 173.826 173.006 173.239 173.006 172.653C173.006 171.906 172.779 171.339 172.326 170.953C171.872 170.566 171.206 170.373 170.326 170.373C169.792 170.373 169.279 170.453 168.786 170.613C168.292 170.773 167.799 171.033 167.306 171.393C167.106 171.526 166.919 171.586 166.746 171.573C166.572 171.559 166.419 171.493 166.286 171.373C166.166 171.253 166.086 171.106 166.046 170.933C166.006 170.759 166.012 170.579 166.066 170.393C166.119 170.206 166.246 170.046 166.446 169.913C166.992 169.499 167.626 169.179 168.346 168.953C169.066 168.726 169.799 168.613 170.546 168.613C171.519 168.613 172.339 168.766 173.006 169.073C173.686 169.366 174.199 169.799 174.546 170.373C174.892 170.946 175.066 171.646 175.066 172.473C175.066 173.033 174.972 173.579 174.786 174.113C174.612 174.646 174.339 175.193 173.966 175.753C173.606 176.299 173.132 176.879 172.546 177.493L168.506 181.733V181.153H174.866C175.159 181.153 175.386 181.226 175.546 181.373C175.706 181.519 175.786 181.733 175.786 182.013C175.786 182.293 175.706 182.513 175.546 182.673C175.386 182.819 175.159 182.893 174.866 182.893H167.386ZM183.018 182.833C182.911 183.033 182.771 183.166 182.598 183.233C182.438 183.299 182.278 183.313 182.118 183.273C181.958 183.233 181.824 183.153 181.718 183.033C181.611 182.913 181.544 182.766 181.518 182.593C181.504 182.419 181.551 182.233 181.658 182.033L189.218 168.893C189.324 168.679 189.458 168.539 189.618 168.473C189.791 168.406 189.951 168.393 190.098 168.433C190.258 168.473 190.391 168.553 190.498 168.673C190.618 168.793 190.691 168.939 190.718 169.113C190.744 169.286 190.698 169.473 190.578 169.673L183.018 182.833ZM181.238 177.233C180.144 177.233 179.291 176.853 178.678 176.093C178.064 175.319 177.758 174.259 177.758 172.913C177.758 172.006 177.898 171.233 178.178 170.593C178.458 169.953 178.858 169.466 179.378 169.133C179.898 168.786 180.518 168.613 181.238 168.613C182.318 168.613 183.164 168.993 183.778 169.753C184.404 170.513 184.718 171.566 184.718 172.913C184.718 173.806 184.578 174.579 184.298 175.233C184.031 175.873 183.638 176.366 183.118 176.713C182.598 177.059 181.971 177.233 181.238 177.233ZM181.238 175.813C181.611 175.813 181.931 175.706 182.198 175.493C182.464 175.279 182.664 174.959 182.798 174.533C182.944 174.106 183.018 173.566 183.018 172.913C183.018 171.939 182.858 171.213 182.538 170.733C182.231 170.253 181.798 170.013 181.238 170.013C180.864 170.013 180.544 170.119 180.278 170.333C180.011 170.546 179.804 170.866 179.658 171.293C179.524 171.719 179.458 172.259 179.458 172.913C179.458 173.899 179.611 174.633 179.918 175.113C180.238 175.579 180.678 175.813 181.238 175.813ZM191.018 183.073C189.938 183.073 189.091 182.693 188.478 181.933C187.864 181.173 187.558 180.113 187.558 178.753C187.558 177.859 187.691 177.093 187.958 176.453C188.238 175.813 188.638 175.319 189.158 174.973C189.678 174.626 190.298 174.453 191.018 174.453C192.111 174.453 192.964 174.839 193.578 175.613C194.191 176.373 194.498 177.419 194.498 178.753C194.498 179.659 194.358 180.439 194.078 181.093C193.811 181.733 193.418 182.226 192.898 182.573C192.378 182.906 191.751 183.073 191.018 183.073ZM191.018 181.673C191.391 181.673 191.711 181.566 191.978 181.353C192.244 181.139 192.444 180.819 192.578 180.393C192.724 179.953 192.798 179.406 192.798 178.753C192.798 177.793 192.638 177.073 192.318 176.593C192.011 176.113 191.578 175.873 191.018 175.873C190.658 175.873 190.338 175.979 190.058 176.193C189.791 176.406 189.584 176.726 189.438 177.153C189.304 177.579 189.238 178.113 189.238 178.753C189.238 179.739 189.398 180.473 189.718 180.953C190.038 181.433 190.471 181.673 191.018 181.673Z" fill="#F0F6FF"/>
<path d="M289.054 182.975C288.694 182.975 288.434 182.895 288.274 182.735C288.114 182.561 288.034 182.328 288.034 182.035C288.034 181.848 288.08 181.668 288.174 181.495C288.267 181.321 288.4 181.141 288.574 180.955L292.834 176.395C293.487 175.701 293.954 175.068 294.234 174.495C294.527 173.908 294.674 173.321 294.674 172.735C294.674 171.988 294.447 171.421 293.994 171.035C293.54 170.648 292.874 170.455 291.994 170.455C291.46 170.455 290.947 170.535 290.454 170.695C289.96 170.855 289.467 171.115 288.974 171.475C288.774 171.608 288.587 171.668 288.414 171.655C288.24 171.641 288.087 171.575 287.954 171.455C287.834 171.335 287.754 171.188 287.714 171.015C287.674 170.841 287.68 170.661 287.734 170.475C287.787 170.288 287.914 170.128 288.114 169.995C288.66 169.581 289.294 169.261 290.014 169.035C290.734 168.808 291.467 168.695 292.214 168.695C293.187 168.695 294.007 168.848 294.674 169.155C295.354 169.448 295.867 169.881 296.214 170.455C296.56 171.028 296.734 171.728 296.734 172.555C296.734 173.115 296.64 173.661 296.454 174.195C296.28 174.728 296.007 175.275 295.634 175.835C295.274 176.381 294.8 176.961 294.214 177.575L290.174 181.815V181.235H296.534C296.827 181.235 297.054 181.308 297.214 181.455C297.374 181.601 297.454 181.815 297.454 182.095C297.454 182.375 297.374 182.595 297.214 182.755C297.054 182.901 296.827 182.975 296.534 182.975H289.054ZM304.646 183.155C303.912 183.155 303.172 183.055 302.426 182.855C301.679 182.641 300.999 182.315 300.386 181.875C300.186 181.755 300.052 181.601 299.986 181.415C299.919 181.228 299.906 181.048 299.946 180.875C299.986 180.688 300.066 180.535 300.186 180.415C300.319 180.295 300.479 180.228 300.666 180.215C300.852 180.188 301.052 180.241 301.266 180.375C301.786 180.708 302.319 180.961 302.866 181.135C303.426 181.308 304.006 181.395 304.606 181.395C305.219 181.395 305.746 181.281 306.186 181.055C306.626 180.828 306.959 180.515 307.186 180.115C307.426 179.701 307.546 179.221 307.546 178.675C307.546 177.835 307.299 177.148 306.806 176.615C306.312 176.081 305.626 175.815 304.746 175.815C304.239 175.815 303.766 175.908 303.326 176.095C302.886 176.268 302.466 176.561 302.066 176.975C301.972 177.081 301.846 177.181 301.686 177.275C301.539 177.355 301.372 177.395 301.186 177.395C300.906 177.395 300.692 177.321 300.546 177.175C300.399 177.028 300.326 176.828 300.326 176.575V169.795C300.326 169.501 300.406 169.275 300.566 169.115C300.726 168.955 300.952 168.875 301.246 168.875H307.946C308.239 168.875 308.466 168.948 308.626 169.095C308.786 169.241 308.866 169.455 308.866 169.735C308.866 170.015 308.786 170.235 308.626 170.395C308.466 170.541 308.239 170.615 307.946 170.615H302.346V175.695H301.786C302.146 175.188 302.619 174.795 303.206 174.515C303.806 174.235 304.466 174.095 305.186 174.095C306.079 174.095 306.852 174.281 307.506 174.655C308.159 175.028 308.666 175.555 309.026 176.235C309.386 176.901 309.566 177.681 309.566 178.575C309.566 179.481 309.366 180.281 308.966 180.975C308.566 181.655 307.999 182.188 307.266 182.575C306.532 182.961 305.659 183.155 304.646 183.155ZM316.678 182.915C316.571 183.115 316.431 183.248 316.258 183.315C316.098 183.381 315.938 183.395 315.778 183.355C315.618 183.315 315.485 183.235 315.378 183.115C315.271 182.995 315.205 182.848 315.178 182.675C315.165 182.501 315.211 182.315 315.318 182.115L322.878 168.975C322.985 168.761 323.118 168.621 323.278 168.555C323.451 168.488 323.611 168.475 323.758 168.515C323.918 168.555 324.051 168.635 324.158 168.755C324.278 168.875 324.351 169.021 324.378 169.195C324.405 169.368 324.358 169.555 324.238 169.755L316.678 182.915ZM314.898 177.315C313.805 177.315 312.951 176.935 312.338 176.175C311.725 175.401 311.418 174.341 311.418 172.995C311.418 172.088 311.558 171.315 311.838 170.675C312.118 170.035 312.518 169.548 313.038 169.215C313.558 168.868 314.178 168.695 314.898 168.695C315.978 168.695 316.825 169.075 317.438 169.835C318.065 170.595 318.378 171.648 318.378 172.995C318.378 173.888 318.238 174.661 317.958 175.315C317.691 175.955 317.298 176.448 316.778 176.795C316.258 177.141 315.631 177.315 314.898 177.315ZM314.898 175.895C315.271 175.895 315.591 175.788 315.858 175.575C316.125 175.361 316.325 175.041 316.458 174.615C316.605 174.188 316.678 173.648 316.678 172.995C316.678 172.021 316.518 171.295 316.198 170.815C315.891 170.335 315.458 170.095 314.898 170.095C314.525 170.095 314.205 170.201 313.938 170.415C313.671 170.628 313.465 170.948 313.318 171.375C313.185 171.801 313.118 172.341 313.118 172.995C313.118 173.981 313.271 174.715 313.578 175.195C313.898 175.661 314.338 175.895 314.898 175.895ZM324.678 183.155C323.598 183.155 322.751 182.775 322.138 182.015C321.525 181.255 321.218 180.195 321.218 178.835C321.218 177.941 321.351 177.175 321.618 176.535C321.898 175.895 322.298 175.401 322.818 175.055C323.338 174.708 323.958 174.535 324.678 174.535C325.771 174.535 326.625 174.921 327.238 175.695C327.851 176.455 328.158 177.501 328.158 178.835C328.158 179.741 328.018 180.521 327.738 181.175C327.471 181.815 327.078 182.308 326.558 182.655C326.038 182.988 325.411 183.155 324.678 183.155ZM324.678 181.755C325.051 181.755 325.371 181.648 325.638 181.435C325.905 181.221 326.105 180.901 326.238 180.475C326.385 180.035 326.458 179.488 326.458 178.835C326.458 177.875 326.298 177.155 325.978 176.675C325.671 176.195 325.238 175.955 324.678 175.955C324.318 175.955 323.998 176.061 323.718 176.275C323.451 176.488 323.245 176.808 323.098 177.235C322.965 177.661 322.898 178.195 322.898 178.835C322.898 179.821 323.058 180.555 323.378 181.035C323.698 181.515 324.131 181.755 324.678 181.755Z" fill="#F0F6FF"/>
<path d="M289.054 299.002C288.694 299.002 288.434 298.922 288.274 298.762C288.114 298.589 288.034 298.355 288.034 298.062C288.034 297.875 288.08 297.695 288.174 297.522C288.267 297.349 288.4 297.169 288.574 296.982L292.834 292.422C293.487 291.729 293.954 291.095 294.234 290.522C294.527 289.935 294.674 289.349 294.674 288.762C294.674 288.015 294.447 287.449 293.994 287.062C293.54 286.675 292.874 286.482 291.994 286.482C291.46 286.482 290.947 286.562 290.454 286.722C289.96 286.882 289.467 287.142 288.974 287.502C288.774 287.635 288.587 287.695 288.414 287.682C288.24 287.669 288.087 287.602 287.954 287.482C287.834 287.362 287.754 287.215 287.714 287.042C287.674 286.869 287.68 286.689 287.734 286.502C287.787 286.315 287.914 286.155 288.114 286.022C288.66 285.609 289.294 285.289 290.014 285.062C290.734 284.835 291.467 284.722 292.214 284.722C293.187 284.722 294.007 284.875 294.674 285.182C295.354 285.475 295.867 285.909 296.214 286.482C296.56 287.055 296.734 287.755 296.734 288.582C296.734 289.142 296.64 289.689 296.454 290.222C296.28 290.755 296.007 291.302 295.634 291.862C295.274 292.409 294.8 292.989 294.214 293.602L290.174 297.842V297.262H296.534C296.827 297.262 297.054 297.335 297.214 297.482C297.374 297.629 297.454 297.842 297.454 298.122C297.454 298.402 297.374 298.622 297.214 298.782C297.054 298.929 296.827 299.002 296.534 299.002H289.054ZM304.646 299.182C303.912 299.182 303.172 299.082 302.426 298.882C301.679 298.669 300.999 298.342 300.386 297.902C300.186 297.782 300.052 297.629 299.986 297.442C299.919 297.255 299.906 297.075 299.946 296.902C299.986 296.715 300.066 296.562 300.186 296.442C300.319 296.322 300.479 296.255 300.666 296.242C300.852 296.215 301.052 296.269 301.266 296.402C301.786 296.735 302.319 296.989 302.866 297.162C303.426 297.335 304.006 297.422 304.606 297.422C305.219 297.422 305.746 297.309 306.186 297.082C306.626 296.855 306.959 296.542 307.186 296.142C307.426 295.729 307.546 295.249 307.546 294.702C307.546 293.862 307.299 293.175 306.806 292.642C306.312 292.109 305.626 291.842 304.746 291.842C304.239 291.842 303.766 291.935 303.326 292.122C302.886 292.295 302.466 292.589 302.066 293.002C301.972 293.109 301.846 293.209 301.686 293.302C301.539 293.382 301.372 293.422 301.186 293.422C300.906 293.422 300.692 293.349 300.546 293.202C300.399 293.055 300.326 292.855 300.326 292.602V285.822C300.326 285.529 300.406 285.302 300.566 285.142C300.726 284.982 300.952 284.902 301.246 284.902H307.946C308.239 284.902 308.466 284.975 308.626 285.122C308.786 285.269 308.866 285.482 308.866 285.762C308.866 286.042 308.786 286.262 308.626 286.422C308.466 286.569 308.239 286.642 307.946 286.642H302.346V291.722H301.786C302.146 291.215 302.619 290.822 303.206 290.542C303.806 290.262 304.466 290.122 305.186 290.122C306.079 290.122 306.852 290.309 307.506 290.682C308.159 291.055 308.666 291.582 309.026 292.262C309.386 292.929 309.566 293.709 309.566 294.602C309.566 295.509 309.366 296.309 308.966 297.002C308.566 297.682 307.999 298.215 307.266 298.602C306.532 298.989 305.659 299.182 304.646 299.182ZM316.678 298.942C316.571 299.142 316.431 299.275 316.258 299.342C316.098 299.409 315.938 299.422 315.778 299.382C315.618 299.342 315.485 299.262 315.378 299.142C315.271 299.022 315.205 298.875 315.178 298.702C315.165 298.529 315.211 298.342 315.318 298.142L322.878 285.002C322.985 284.789 323.118 284.649 323.278 284.582C323.451 284.515 323.611 284.502 323.758 284.542C323.918 284.582 324.051 284.662 324.158 284.782C324.278 284.902 324.351 285.049 324.378 285.222C324.405 285.395 324.358 285.582 324.238 285.782L316.678 298.942ZM314.898 293.342C313.805 293.342 312.951 292.962 312.338 292.202C311.725 291.429 311.418 290.369 311.418 289.022C311.418 288.115 311.558 287.342 311.838 286.702C312.118 286.062 312.518 285.575 313.038 285.242C313.558 284.895 314.178 284.722 314.898 284.722C315.978 284.722 316.825 285.102 317.438 285.862C318.065 286.622 318.378 287.675 318.378 289.022C318.378 289.915 318.238 290.689 317.958 291.342C317.691 291.982 317.298 292.475 316.778 292.822C316.258 293.169 315.631 293.342 314.898 293.342ZM314.898 291.922C315.271 291.922 315.591 291.815 315.858 291.602C316.125 291.389 316.325 291.069 316.458 290.642C316.605 290.215 316.678 289.675 316.678 289.022C316.678 288.049 316.518 287.322 316.198 286.842C315.891 286.362 315.458 286.122 314.898 286.122C314.525 286.122 314.205 286.229 313.938 286.442C313.671 286.655 313.465 286.975 313.318 287.402C313.185 287.829 313.118 288.369 313.118 289.022C313.118 290.009 313.271 290.742 313.578 291.222C313.898 291.689 314.338 291.922 314.898 291.922ZM324.678 299.182C323.598 299.182 322.751 298.802 322.138 298.042C321.525 297.282 321.218 296.222 321.218 294.862C321.218 293.969 321.351 293.202 321.618 292.562C321.898 291.922 322.298 291.429 322.818 291.082C323.338 290.735 323.958 290.562 324.678 290.562C325.771 290.562 326.625 290.949 327.238 291.722C327.851 292.482 328.158 293.529 328.158 294.862C328.158 295.769 328.018 296.549 327.738 297.202C327.471 297.842 327.078 298.335 326.558 298.682C326.038 299.015 325.411 299.182 324.678 299.182ZM324.678 297.782C325.051 297.782 325.371 297.675 325.638 297.462C325.905 297.249 326.105 296.929 326.238 296.502C326.385 296.062 326.458 295.515 326.458 294.862C326.458 293.902 326.298 293.182 325.978 292.702C325.671 292.222 325.238 291.982 324.678 291.982C324.318 291.982 323.998 292.089 323.718 292.302C323.451 292.515 323.245 292.835 323.098 293.262C322.965 293.689 322.898 294.222 322.898 294.862C322.898 295.849 323.058 296.582 323.378 297.062C323.698 297.542 324.131 297.782 324.678 297.782Z" fill="#F0F6FF"/>
<path d="M181.432 334.863C181.152 334.863 180.932 334.783 180.772 334.623C180.612 334.463 180.532 334.25 180.532 333.983C180.532 333.703 180.612 333.49 180.772 333.343C180.932 333.197 181.152 333.123 181.432 333.123H183.872V322.483H184.912L181.992 324.343C181.779 324.463 181.579 324.51 181.392 324.483C181.219 324.457 181.065 324.383 180.932 324.263C180.812 324.143 180.725 323.997 180.672 323.823C180.632 323.65 180.645 323.47 180.712 323.283C180.792 323.097 180.932 322.943 181.132 322.823L183.892 321.083C184.119 320.95 184.332 320.843 184.532 320.763C184.745 320.67 184.945 320.623 185.132 320.623C185.359 320.623 185.545 320.69 185.692 320.823C185.852 320.943 185.932 321.15 185.932 321.443V333.123H188.172C188.465 333.123 188.692 333.197 188.852 333.343C189.012 333.49 189.092 333.703 189.092 333.983C189.092 334.263 189.012 334.483 188.852 334.643C188.692 334.79 188.465 334.863 188.172 334.863H181.432ZM196.324 335.043C195.258 335.043 194.338 334.89 193.564 334.583C192.804 334.277 192.218 333.83 191.804 333.243C191.404 332.643 191.204 331.93 191.204 331.103C191.204 330.437 191.338 329.85 191.604 329.343C191.871 328.823 192.244 328.403 192.724 328.083C193.204 327.763 193.758 327.563 194.384 327.483V327.843C193.518 327.657 192.824 327.25 192.304 326.623C191.798 325.983 191.544 325.223 191.544 324.343C191.544 323.557 191.738 322.883 192.124 322.323C192.524 321.75 193.084 321.317 193.804 321.023C194.524 320.73 195.364 320.583 196.324 320.583C197.298 320.583 198.144 320.73 198.864 321.023C199.584 321.317 200.138 321.75 200.524 322.323C200.924 322.883 201.124 323.557 201.124 324.343C201.124 324.93 201.004 325.47 200.764 325.963C200.538 326.443 200.211 326.85 199.784 327.183C199.358 327.503 198.858 327.717 198.284 327.823V327.483C199.231 327.617 199.991 328.01 200.564 328.663C201.151 329.303 201.444 330.117 201.444 331.103C201.444 331.93 201.238 332.643 200.824 333.243C200.424 333.83 199.844 334.277 199.084 334.583C198.324 334.89 197.404 335.043 196.324 335.043ZM196.324 333.403C197.378 333.403 198.171 333.203 198.704 332.803C199.238 332.39 199.504 331.777 199.504 330.963C199.504 330.15 199.238 329.543 198.704 329.143C198.171 328.743 197.378 328.543 196.324 328.543C195.284 328.543 194.491 328.743 193.944 329.143C193.411 329.543 193.144 330.15 193.144 330.963C193.144 331.777 193.411 332.39 193.944 332.803C194.491 333.203 195.284 333.403 196.324 333.403ZM196.324 326.903C196.924 326.903 197.431 326.81 197.844 326.623C198.271 326.423 198.598 326.15 198.824 325.803C199.051 325.443 199.164 325.023 199.164 324.543C199.164 323.823 198.911 323.257 198.404 322.843C197.911 322.43 197.218 322.223 196.324 322.223C195.431 322.223 194.738 322.43 194.244 322.843C193.751 323.257 193.504 323.823 193.504 324.543C193.504 325.277 193.751 325.857 194.244 326.283C194.738 326.697 195.431 326.903 196.324 326.903ZM208.576 334.803C208.47 335.003 208.33 335.137 208.156 335.203C207.996 335.27 207.836 335.283 207.676 335.243C207.516 335.203 207.383 335.123 207.276 335.003C207.17 334.883 207.103 334.737 207.076 334.563C207.063 334.39 207.11 334.203 207.216 334.003L214.776 320.863C214.883 320.65 215.016 320.51 215.176 320.443C215.35 320.377 215.51 320.363 215.656 320.403C215.816 320.443 215.95 320.523 216.056 320.643C216.176 320.763 216.25 320.91 216.276 321.083C216.303 321.257 216.256 321.443 216.136 321.643L208.576 334.803ZM206.796 329.203C205.703 329.203 204.85 328.823 204.236 328.063C203.623 327.29 203.316 326.23 203.316 324.883C203.316 323.977 203.456 323.203 203.736 322.563C204.016 321.923 204.416 321.437 204.936 321.103C205.456 320.757 206.076 320.583 206.796 320.583C207.876 320.583 208.723 320.963 209.336 321.723C209.963 322.483 210.276 323.537 210.276 324.883C210.276 325.777 210.136 326.55 209.856 327.203C209.59 327.843 209.196 328.337 208.676 328.683C208.156 329.03 207.53 329.203 206.796 329.203ZM206.796 327.783C207.17 327.783 207.49 327.677 207.756 327.463C208.023 327.25 208.223 326.93 208.356 326.503C208.503 326.077 208.576 325.537 208.576 324.883C208.576 323.91 208.416 323.183 208.096 322.703C207.79 322.223 207.356 321.983 206.796 321.983C206.423 321.983 206.103 322.09 205.836 322.303C205.57 322.517 205.363 322.837 205.216 323.263C205.083 323.69 205.016 324.23 205.016 324.883C205.016 325.87 205.17 326.603 205.476 327.083C205.796 327.55 206.236 327.783 206.796 327.783ZM216.576 335.043C215.496 335.043 214.65 334.663 214.036 333.903C213.423 333.143 213.116 332.083 213.116 330.723C213.116 329.83 213.25 329.063 213.516 328.423C213.796 327.783 214.196 327.29 214.716 326.943C215.236 326.597 215.856 326.423 216.576 326.423C217.67 326.423 218.523 326.81 219.136 327.583C219.75 328.343 220.056 329.39 220.056 330.723C220.056 331.63 219.916 332.41 219.636 333.063C219.37 333.703 218.976 334.197 218.456 334.543C217.936 334.877 217.31 335.043 216.576 335.043ZM216.576 333.643C216.95 333.643 217.27 333.537 217.536 333.323C217.803 333.11 218.003 332.79 218.136 332.363C218.283 331.923 218.356 331.377 218.356 330.723C218.356 329.763 218.196 329.043 217.876 328.563C217.57 328.083 217.136 327.843 216.576 327.843C216.216 327.843 215.896 327.95 215.616 328.163C215.35 328.377 215.143 328.697 214.996 329.123C214.863 329.55 214.796 330.083 214.796 330.723C214.796 331.71 214.956 332.443 215.276 332.923C215.596 333.403 216.03 333.643 216.576 333.643Z" fill="#F0F6FF"/>
<rect opacity="0.2" x="707" y="36" width="115.963" height="51.2561" rx="6" fill="#238899"/>
<path d="M723.535 67.3902C723.345 67.3902 723.195 67.3352 723.085 67.2252C722.975 67.1052 722.92 66.9452 722.92 66.7452V57.7752H719.545C719.365 57.7752 719.225 57.7252 719.125 57.6252C719.025 57.5252 718.975 57.3952 718.975 57.2352C718.975 57.0652 719.025 56.9352 719.125 56.8452C719.225 56.7552 719.365 56.7102 719.545 56.7102H727.54C727.72 56.7102 727.86 56.7552 727.96 56.8452C728.06 56.9352 728.11 57.0652 728.11 57.2352C728.11 57.4052 728.06 57.5402 727.96 57.6402C727.86 57.7302 727.72 57.7752 727.54 57.7752H724.165V66.7452C724.165 66.9452 724.11 67.1052 724 67.2252C723.9 67.3352 723.745 67.3902 723.535 67.3902ZM730.164 67.3902C729.964 67.3902 729.814 67.3352 729.714 67.2252C729.614 67.1152 729.564 66.9602 729.564 66.7602V57.2202C729.564 57.0202 729.614 56.8702 729.714 56.7702C729.814 56.6602 729.964 56.6052 730.164 56.6052C730.354 56.6052 730.504 56.6602 730.614 56.7702C730.724 56.8702 730.779 57.0202 730.779 57.2202V61.6152H730.584C730.794 61.0352 731.134 60.6002 731.604 60.3102C732.084 60.0102 732.634 59.8602 733.254 59.8602C733.834 59.8602 734.314 59.9652 734.694 60.1752C735.084 60.3852 735.374 60.7052 735.564 61.1352C735.754 61.5552 735.849 62.0902 735.849 62.7402V66.7602C735.849 66.9602 735.794 67.1152 735.684 67.2252C735.584 67.3352 735.439 67.3902 735.249 67.3902C735.049 67.3902 734.894 67.3352 734.784 67.2252C734.684 67.1152 734.634 66.9602 734.634 66.7602V62.8152C734.634 62.1352 734.499 61.6402 734.229 61.3302C733.969 61.0102 733.549 60.8502 732.969 60.8502C732.299 60.8502 731.764 61.0602 731.364 61.4802C730.974 61.8902 730.779 62.4402 730.779 63.1302V66.7602C730.779 67.1802 730.574 67.3902 730.164 67.3902ZM738.689 67.3602C738.489 67.3602 738.339 67.3052 738.239 67.1952C738.139 67.0752 738.089 66.9102 738.089 66.7002V60.5652C738.089 60.3552 738.139 60.1952 738.239 60.0852C738.339 59.9752 738.489 59.9202 738.689 59.9202C738.879 59.9202 739.029 59.9752 739.139 60.0852C739.249 60.1952 739.304 60.3552 739.304 60.5652V66.7002C739.304 66.9102 739.249 67.0752 739.139 67.1952C739.039 67.3052 738.889 67.3602 738.689 67.3602ZM738.689 58.2402C738.439 58.2402 738.244 58.1752 738.104 58.0452C737.964 57.9052 737.894 57.7202 737.894 57.4902C737.894 57.2502 737.964 57.0702 738.104 56.9502C738.244 56.8202 738.439 56.7552 738.689 56.7552C738.949 56.7552 739.144 56.8202 739.274 56.9502C739.414 57.0702 739.484 57.2502 739.484 57.4902C739.484 57.7202 739.414 57.9052 739.274 58.0452C739.144 58.1752 738.949 58.2402 738.689 58.2402ZM744.036 67.4202C743.586 67.4202 743.131 67.3652 742.671 67.2552C742.221 67.1452 741.801 66.9552 741.411 66.6852C741.311 66.6152 741.241 66.5352 741.201 66.4452C741.161 66.3452 741.146 66.2502 741.156 66.1602C741.176 66.0602 741.216 65.9752 741.276 65.9052C741.346 65.8352 741.426 65.7952 741.516 65.7852C741.616 65.7652 741.726 65.7852 741.846 65.8452C742.236 66.0852 742.611 66.2552 742.971 66.3552C743.341 66.4452 743.706 66.4902 744.066 66.4902C744.636 66.4902 745.066 66.3852 745.356 66.1752C745.646 65.9652 745.791 65.6802 745.791 65.3202C745.791 65.0402 745.696 64.8202 745.506 64.6602C745.316 64.4902 745.016 64.3602 744.606 64.2702L743.241 63.9702C742.611 63.8402 742.141 63.6152 741.831 63.2952C741.531 62.9752 741.381 62.5602 741.381 62.0502C741.381 61.6002 741.496 61.2152 741.726 60.8952C741.966 60.5652 742.301 60.3102 742.731 60.1302C743.161 59.9502 743.661 59.8602 744.231 59.8602C744.671 59.8602 745.086 59.9202 745.476 60.0402C745.876 60.1502 746.236 60.3302 746.556 60.5802C746.656 60.6502 746.721 60.7352 746.751 60.8352C746.791 60.9252 746.796 61.0202 746.766 61.1202C746.746 61.2102 746.701 61.2902 746.631 61.3602C746.561 61.4202 746.476 61.4552 746.376 61.4652C746.276 61.4752 746.171 61.4452 746.061 61.3752C745.761 61.1752 745.456 61.0302 745.146 60.9402C744.836 60.8402 744.531 60.7902 744.231 60.7902C743.671 60.7902 743.246 60.9002 742.956 61.1202C742.666 61.3402 742.521 61.6302 742.521 61.9902C742.521 62.2702 742.611 62.5002 742.791 62.6802C742.971 62.8602 743.251 62.9902 743.631 63.0702L744.996 63.3552C745.646 63.4952 746.131 63.7202 746.451 64.0302C746.781 64.3302 746.946 64.7402 746.946 65.2602C746.946 65.9202 746.681 66.4452 746.151 66.8352C745.621 67.2252 744.916 67.4202 744.036 67.4202ZM756.219 67.3902C756.039 67.3902 755.894 67.3452 755.784 67.2552C755.674 67.1552 755.584 67.0102 755.514 66.8202L752.199 57.3552C752.129 57.1452 752.144 56.9702 752.244 56.8302C752.354 56.6802 752.524 56.6052 752.754 56.6052C752.924 56.6052 753.059 56.6502 753.159 56.7402C753.259 56.8202 753.344 56.9502 753.414 57.1302L756.519 66.2352H755.994L759.159 57.1752C759.229 56.9852 759.314 56.8452 759.414 56.7552C759.514 56.6552 759.649 56.6052 759.819 56.6052C759.979 56.6052 760.104 56.6552 760.194 56.7552C760.294 56.8452 760.379 56.9852 760.449 57.1752L763.569 66.2352H763.104L766.239 57.1302C766.289 56.9602 766.364 56.8302 766.464 56.7402C766.574 56.6502 766.714 56.6052 766.884 56.6052C767.094 56.6052 767.249 56.6752 767.349 56.8152C767.449 56.9552 767.459 57.1352 767.379 57.3552L764.049 66.8202C763.979 67.0102 763.889 67.1552 763.779 67.2552C763.679 67.3452 763.534 67.3902 763.344 67.3902C763.164 67.3902 763.019 67.3452 762.909 67.2552C762.809 67.1552 762.719 67.0102 762.639 66.8202L759.624 58.1352H759.954L756.909 66.8202C756.839 67.0102 756.754 67.1552 756.654 67.2552C756.554 67.3452 756.409 67.3902 756.219 67.3902ZM771.579 67.4202C770.809 67.4202 770.144 67.2702 769.584 66.9702C769.034 66.6602 768.604 66.2252 768.294 65.6652C767.994 65.1052 767.844 64.4352 767.844 63.6552C767.844 62.8952 767.994 62.2352 768.294 61.6752C768.594 61.1052 769.004 60.6602 769.524 60.3402C770.054 60.0202 770.664 59.8602 771.354 59.8602C771.844 59.8602 772.284 59.9452 772.674 60.1152C773.064 60.2752 773.394 60.5102 773.664 60.8202C773.944 61.1302 774.154 61.5052 774.294 61.9452C774.444 62.3852 774.519 62.8802 774.519 63.4302C774.519 63.5902 774.474 63.7102 774.384 63.7902C774.294 63.8602 774.164 63.8952 773.994 63.8952H768.774V63.1002H773.709L773.469 63.2952C773.469 62.7552 773.389 62.3002 773.229 61.9302C773.069 61.5502 772.834 61.2602 772.524 61.0602C772.224 60.8602 771.844 60.7602 771.384 60.7602C770.874 60.7602 770.439 60.8802 770.079 61.1202C769.729 61.3502 769.464 61.6752 769.284 62.0952C769.104 62.5052 769.014 62.9852 769.014 63.5352V63.6252C769.014 64.5452 769.234 65.2452 769.674 65.7252C770.124 66.2052 770.759 66.4452 771.579 66.4452C771.919 66.4452 772.254 66.4002 772.584 66.3102C772.924 66.2202 773.254 66.0702 773.574 65.8602C773.714 65.7702 773.839 65.7302 773.949 65.7402C774.069 65.7402 774.164 65.7752 774.234 65.8452C774.304 65.9052 774.349 65.9852 774.369 66.0852C774.399 66.1752 774.389 66.2752 774.339 66.3852C774.299 66.4952 774.214 66.5902 774.084 66.6702C773.754 66.9102 773.364 67.0952 772.914 67.2252C772.464 67.3552 772.019 67.4202 771.579 67.4202ZM779.563 67.4202C778.793 67.4202 778.128 67.2702 777.568 66.9702C777.018 66.6602 776.588 66.2252 776.278 65.6652C775.978 65.1052 775.828 64.4352 775.828 63.6552C775.828 62.8952 775.978 62.2352 776.278 61.6752C776.578 61.1052 776.988 60.6602 777.508 60.3402C778.038 60.0202 778.648 59.8602 779.338 59.8602C779.828 59.8602 780.268 59.9452 780.658 60.1152C781.048 60.2752 781.378 60.5102 781.648 60.8202C781.928 61.1302 782.138 61.5052 782.278 61.9452C782.428 62.3852 782.503 62.8802 782.503 63.4302C782.503 63.5902 782.458 63.7102 782.368 63.7902C782.278 63.8602 782.148 63.8952 781.978 63.8952H776.758V63.1002H781.693L781.453 63.2952C781.453 62.7552 781.373 62.3002 781.213 61.9302C781.053 61.5502 780.818 61.2602 780.508 61.0602C780.208 60.8602 779.828 60.7602 779.368 60.7602C778.858 60.7602 778.423 60.8802 778.063 61.1202C777.713 61.3502 777.448 61.6752 777.268 62.0952C777.088 62.5052 776.998 62.9852 776.998 63.5352V63.6252C776.998 64.5452 777.218 65.2452 777.658 65.7252C778.108 66.2052 778.743 66.4452 779.563 66.4452C779.903 66.4452 780.238 66.4002 780.568 66.3102C780.908 66.2202 781.238 66.0702 781.558 65.8602C781.698 65.7702 781.823 65.7302 781.933 65.7402C782.053 65.7402 782.148 65.7752 782.218 65.8452C782.288 65.9052 782.333 65.9852 782.353 66.0852C782.383 66.1752 782.373 66.2752 782.323 66.3852C782.283 66.4952 782.198 66.5902 782.068 66.6702C781.738 66.9102 781.348 67.0952 780.898 67.2252C780.448 67.3552 780.003 67.4202 779.563 67.4202ZM784.861 67.3902C784.661 67.3902 784.511 67.3352 784.411 67.2252C784.311 67.1152 784.261 66.9602 784.261 66.7602V57.2202C784.261 57.0202 784.311 56.8702 784.411 56.7702C784.511 56.6602 784.661 56.6052 784.861 56.6052C785.051 56.6052 785.201 56.6602 785.311 56.7702C785.421 56.8702 785.476 57.0202 785.476 57.2202V63.2352H785.506L788.581 60.2952C788.721 60.1652 788.841 60.0652 788.941 59.9952C789.051 59.9252 789.196 59.8902 789.376 59.8902C789.536 59.8902 789.661 59.9352 789.751 60.0252C789.841 60.1052 789.881 60.2102 789.871 60.3402C789.871 60.4602 789.811 60.5902 789.691 60.7302L786.421 63.8352V63.1752L789.976 66.5202C790.116 66.6602 790.186 66.7952 790.186 66.9252C790.186 67.0552 790.136 67.1652 790.036 67.2552C789.946 67.3452 789.826 67.3902 789.676 67.3902C789.496 67.3902 789.351 67.3552 789.241 67.2852C789.131 67.2052 788.996 67.0902 788.836 66.9402L785.506 63.8652H785.476V66.7602C785.476 67.1802 785.271 67.3902 784.861 67.3902Z" fill="#238899"/>
<path d="M805.217 67.0321C805.174 66.9731 804.991 66.7504 804.841 66.5429C803.894 65.3264 802.344 62.1528 801.87 60.4918C801.794 60.2396 801.633 59.6018 801.623 59.2611C801.623 58.9346 801.676 58.6233 801.784 58.3263C801.935 57.9561 802.172 57.6591 802.451 57.4963C802.645 57.3916 803.226 57.2288 803.237 57.2288C803.872 57.0661 804.905 56.9766 806.046 56.9766C807.134 56.9766 808.124 57.0661 808.769 57.1993C808.78 57.2146 809.502 57.3773 809.749 57.5553C810.201 57.8818 810.481 58.5196 810.481 59.2021V59.2611C810.47 59.7056 810.19 60.6403 810.179 60.6403C809.705 62.2118 808.231 65.3121 807.252 66.5581C807.252 66.5581 807 66.909 806.843 67.0616C806.617 67.2996 806.337 67.4176 806.057 67.4176C805.745 67.4176 805.454 67.2844 805.217 67.0321Z" fill="#238899"/>
<defs>
<filter id="filter0_d_564_7198" x="0" y="0" width="857" height="495" filterUnits="userSpaceOnUse" color-interpolation-filters="sRGB">
<feFlood flood-opacity="0" result="BackgroundImageFix"/>
<feColorMatrix in="SourceAlpha" type="matrix" values="0 0 0 0 0 0 0 0 0 0 0 0 0 0 0 0 0 0 127 0" result="hardAlpha"/>
<feOffset/>
<feGaussianBlur stdDeviation="6"/>
<feComposite in2="hardAlpha" operator="out"/>
<feColorMatrix type="matrix" values="0 0 0 0 0 0 0 0 0 0 0 0 0 0 0 0 0 0 0.16 0"/>
<feBlend mode="normal" in2="BackgroundImageFix" result="effect1_dropShadow_564_7198"/>
<feBlend mode="normal" in="SourceGraphic" in2="effect1_dropShadow_564_7198" result="shape"/>
</filter>
<filter id="filter1_d_564_7198" x="61.3574" y="57.3281" width="352.643" height="349.146" filterUnits="userSpaceOnUse" color-interpolation-filters="sRGB">
<feFlood flood-opacity="0" result="BackgroundImageFix"/>
<feColorMatrix in="SourceAlpha" type="matrix" values="0 0 0 0 0 0 0 0 0 0 0 0 0 0 0 0 0 0 127 0" result="hardAlpha"/>
<feOffset/>
<feGaussianBlur stdDeviation="4"/>
<feComposite in2="hardAlpha" operator="out"/>
<feColorMatrix type="matrix" values="0 0 0 0 0 0 0 0 0 0 0 0 0 0 0 0 0 0 0.16 0"/>
<feBlend mode="normal" in2="BackgroundImageFix" result="effect1_dropShadow_564_7198"/>
<feBlend mode="normal" in="SourceGraphic" in2="effect1_dropShadow_564_7198" result="shape"/>
</filter>
<filter id="filter2_d_564_7198" x="110.658" y="223.9" width="269.979" height="182.574" filterUnits="userSpaceOnUse" color-interpolation-filters="sRGB">
<feFlood flood-opacity="0" result="BackgroundImageFix"/>
<feColorMatrix in="SourceAlpha" type="matrix" values="0 0 0 0 0 0 0 0 0 0 0 0 0 0 0 0 0 0 127 0" result="hardAlpha"/>
<feOffset/>
<feGaussianBlur stdDeviation="4"/>
<feComposite in2="hardAlpha" operator="out"/>
<feColorMatrix type="matrix" values="0 0 0 0 0 0 0 0 0 0 0 0 0 0 0 0 0 0 0.16 0"/>
<feBlend mode="normal" in2="BackgroundImageFix" result="effect1_dropShadow_564_7198"/>
<feBlend mode="normal" in="SourceGraphic" in2="effect1_dropShadow_564_7198" result="shape"/>
</filter>
<filter id="filter3_d_564_7198" x="229.678" y="57.3281" width="184.32" height="349.146" filterUnits="userSpaceOnUse" color-interpolation-filters="sRGB">
<feFlood flood-opacity="0" result="BackgroundImageFix"/>
<feColorMatrix in="SourceAlpha" type="matrix" values="0 0 0 0 0 0 0 0 0 0 0 0 0 0 0 0 0 0 127 0" result="hardAlpha"/>
<feOffset/>
<feGaussianBlur stdDeviation="4"/>
<feComposite in2="hardAlpha" operator="out"/>
<feColorMatrix type="matrix" values="0 0 0 0 0 0 0 0 0 0 0 0 0 0 0 0 0 0 0.16 0"/>
<feBlend mode="normal" in2="BackgroundImageFix" result="effect1_dropShadow_564_7198"/>
<feBlend mode="normal" in="SourceGraphic" in2="effect1_dropShadow_564_7198" result="shape"/>
</filter>
<filter id="filter4_d_564_7198" x="229.678" y="223.9" width="184.32" height="182.572" filterUnits="userSpaceOnUse" color-interpolation-filters="sRGB">
<feFlood flood-opacity="0" result="BackgroundImageFix"/>
<feColorMatrix in="SourceAlpha" type="matrix" values="0 0 0 0 0 0 0 0 0 0 0 0 0 0 0 0 0 0 127 0" result="hardAlpha"/>
<feOffset/>
<feGaussianBlur stdDeviation="4"/>
<feComposite in2="hardAlpha" operator="out"/>
<feColorMatrix type="matrix" values="0 0 0 0 0 0 0 0 0 0 0 0 0 0 0 0 0 0 0.16 0"/>
<feBlend mode="normal" in2="BackgroundImageFix" result="effect1_dropShadow_564_7198"/>
<feBlend mode="normal" in="SourceGraphic" in2="effect1_dropShadow_564_7198" result="shape"/>
</filter>
</defs>
</svg>
