<svg width="632" height="491" viewBox="0 0 632 491" fill="none" xmlns="http://www.w3.org/2000/svg">
<g filter="url(#filter0_d_1257_3284)">
<rect x="12" y="12" width="608" height="467" rx="8" fill="white"/>
</g>
<path d="M54.7262 62.4535C54.2929 62.4535 53.9549 62.3322 53.7122 62.0895C53.4869 61.8468 53.3742 61.5088 53.3742 61.0755V45.3195C53.3742 44.8688 53.4955 44.5308 53.7382 44.3055C53.9809 44.0628 54.3189 43.9415 54.7522 43.9415H60.9662C62.9422 43.9415 64.4675 44.4355 65.5422 45.4235C66.6169 46.3942 67.1542 47.7635 67.1542 49.5315C67.1542 51.3168 66.6169 52.7035 65.5422 53.6915C64.4675 54.6622 62.9422 55.1475 60.9662 55.1475H56.0782V61.0755C56.0782 61.5088 55.9655 61.8468 55.7402 62.0895C55.5149 62.3322 55.1769 62.4535 54.7262 62.4535ZM56.0782 52.9895H60.5762C61.8762 52.9895 62.8555 52.7035 63.5142 52.1315C64.1902 51.5422 64.5282 50.6755 64.5282 49.5315C64.5282 48.4048 64.1902 47.5555 63.5142 46.9835C62.8555 46.3942 61.8762 46.0995 60.5762 46.0995H56.0782V52.9895ZM70.8419 62.4535C70.4086 62.4535 70.0793 62.3408 69.8539 62.1155C69.6286 61.8728 69.5159 61.5435 69.5159 61.1275V50.7275C69.5159 50.2942 69.6286 49.9648 69.8539 49.7395C70.0793 49.5142 70.3913 49.4015 70.7899 49.4015C71.2059 49.4015 71.5179 49.5142 71.7259 49.7395C71.9513 49.9648 72.0639 50.2942 72.0639 50.7275V52.6255H71.8039C72.0813 51.5855 72.5926 50.7968 73.3379 50.2595C74.0833 49.7222 75.0366 49.4102 76.1979 49.3235C76.5099 49.3062 76.7526 49.3842 76.9259 49.5575C77.1166 49.7308 77.2206 49.9995 77.2379 50.3635C77.2726 50.7275 77.1946 51.0222 77.0039 51.2475C76.8133 51.4555 76.5186 51.5768 76.1199 51.6115L75.6259 51.6635C74.4993 51.7675 73.6413 52.1228 73.0519 52.7295C72.4626 53.3362 72.1679 54.1682 72.1679 55.2255V61.1275C72.1679 61.5435 72.0553 61.8728 71.8299 62.1155C71.6219 62.3408 71.2926 62.4535 70.8419 62.4535ZM84.5494 62.5055C83.2667 62.5055 82.1574 62.2368 81.2214 61.6995C80.3027 61.1622 79.5834 60.3995 79.0634 59.4115C78.5434 58.4235 78.2834 57.2622 78.2834 55.9275C78.2834 54.9048 78.4307 53.9948 78.7254 53.1975C79.0201 52.4002 79.4361 51.7155 79.9734 51.1435C80.5281 50.5542 81.1867 50.1122 81.9494 49.8175C82.7294 49.5055 83.5961 49.3495 84.5494 49.3495C85.8147 49.3495 86.9067 49.6182 87.8254 50.1555C88.7614 50.6928 89.4894 51.4555 90.0094 52.4435C90.5294 53.4142 90.7894 54.5755 90.7894 55.9275C90.7894 56.9328 90.6421 57.8428 90.3474 58.6575C90.0527 59.4722 89.6281 60.1655 89.0734 60.7375C88.5361 61.3095 87.8774 61.7515 87.0974 62.0635C86.3347 62.3582 85.4854 62.5055 84.5494 62.5055ZM84.5494 60.4775C85.2601 60.4775 85.8841 60.3042 86.4214 59.9575C86.9587 59.6108 87.3747 59.0995 87.6694 58.4235C87.9814 57.7475 88.1374 56.9155 88.1374 55.9275C88.1374 54.4368 87.8081 53.3102 87.1494 52.5475C86.4907 51.7848 85.6241 51.4035 84.5494 51.4035C83.8214 51.4035 83.1887 51.5768 82.6514 51.9235C82.1141 52.2528 81.6894 52.7555 81.3774 53.4315C81.0827 54.1075 80.9354 54.9395 80.9354 55.9275C80.9354 57.4008 81.2647 58.5275 81.9234 59.3075C82.5821 60.0875 83.4574 60.4775 84.5494 60.4775ZM98.5746 62.5055C97.4652 62.5055 96.4859 62.2455 95.6366 61.7255C94.8046 61.1882 94.1546 60.4255 93.6866 59.4375C93.2186 58.4322 92.9846 57.2622 92.9846 55.9275C92.9846 54.5582 93.2186 53.3882 93.6866 52.4175C94.1546 51.4468 94.8046 50.6928 95.6366 50.1555C96.4859 49.6182 97.4652 49.3495 98.5746 49.3495C99.6839 49.3495 100.637 49.6268 101.435 50.1815C102.249 50.7188 102.795 51.4468 103.073 52.3655H102.787V45.0855C102.787 44.6522 102.899 44.3228 103.125 44.0975C103.35 43.8722 103.671 43.7595 104.087 43.7595C104.503 43.7595 104.823 43.8722 105.049 44.0975C105.291 44.3228 105.413 44.6522 105.413 45.0855V61.1275C105.413 61.5435 105.3 61.8728 105.075 62.1155C104.849 62.3408 104.529 62.4535 104.113 62.4535C103.697 62.4535 103.376 62.3408 103.151 62.1155C102.925 61.8728 102.813 61.5435 102.813 61.1275V58.8395L103.099 59.4115C102.821 60.3475 102.275 61.1015 101.461 61.6735C100.663 62.2282 99.7012 62.5055 98.5746 62.5055ZM99.2506 60.4775C99.9612 60.4775 100.585 60.3042 101.123 59.9575C101.66 59.6108 102.076 59.0995 102.371 58.4235C102.683 57.7475 102.839 56.9155 102.839 55.9275C102.839 54.4368 102.509 53.3102 101.851 52.5475C101.192 51.7848 100.325 51.4035 99.2506 51.4035C98.5226 51.4035 97.8899 51.5768 97.3526 51.9235C96.8152 52.2528 96.3906 52.7555 96.0786 53.4315C95.7839 54.1075 95.6366 54.9395 95.6366 55.9275C95.6366 57.4008 95.9659 58.5275 96.6246 59.3075C97.2832 60.0875 98.1586 60.4775 99.2506 60.4775ZM113.624 62.5055C112.601 62.5055 111.743 62.3148 111.05 61.9335C110.374 61.5522 109.863 60.9888 109.516 60.2435C109.187 59.4808 109.022 58.5275 109.022 57.3835V50.7275C109.022 50.2768 109.135 49.9475 109.36 49.7395C109.585 49.5142 109.906 49.4015 110.322 49.4015C110.738 49.4015 111.059 49.5142 111.284 49.7395C111.527 49.9475 111.648 50.2768 111.648 50.7275V57.4095C111.648 58.4322 111.856 59.1862 112.272 59.6715C112.688 60.1568 113.347 60.3995 114.248 60.3995C115.236 60.3995 116.033 60.0702 116.64 59.4115C117.264 58.7355 117.576 57.8515 117.576 56.7595V50.7275C117.576 50.2768 117.689 49.9475 117.914 49.7395C118.139 49.5142 118.469 49.4015 118.902 49.4015C119.318 49.4015 119.639 49.5142 119.864 49.7395C120.089 49.9475 120.202 50.2768 120.202 50.7275V61.1275C120.202 62.0115 119.777 62.4535 118.928 62.4535C118.529 62.4535 118.217 62.3408 117.992 62.1155C117.767 61.8728 117.654 61.5435 117.654 61.1275V58.9175L117.992 59.4895C117.645 60.4602 117.091 61.2055 116.328 61.7255C115.565 62.2455 114.664 62.5055 113.624 62.5055ZM129.493 62.5055C128.193 62.5055 127.066 62.2368 126.113 61.6995C125.177 61.1448 124.449 60.3735 123.929 59.3855C123.409 58.3802 123.149 57.2015 123.149 55.8495C123.149 54.8442 123.296 53.9428 123.591 53.1455C123.885 52.3308 124.301 51.6462 124.839 51.0915C125.393 50.5368 126.061 50.1122 126.841 49.8175C127.638 49.5055 128.522 49.3495 129.493 49.3495C130.099 49.3495 130.732 49.4448 131.391 49.6355C132.067 49.8088 132.691 50.1035 133.263 50.5195C133.488 50.6582 133.627 50.8315 133.679 51.0395C133.748 51.2302 133.757 51.4295 133.705 51.6375C133.67 51.8455 133.575 52.0275 133.419 52.1835C133.28 52.3222 133.107 52.4088 132.899 52.4435C132.691 52.4608 132.465 52.4002 132.223 52.2615C131.807 51.9668 131.382 51.7588 130.949 51.6375C130.515 51.4988 130.099 51.4295 129.701 51.4295C129.077 51.4295 128.522 51.5335 128.037 51.7415C127.569 51.9322 127.17 52.2182 126.841 52.5995C126.511 52.9635 126.26 53.4228 126.087 53.9775C125.931 54.5322 125.853 55.1648 125.853 55.8755C125.853 57.2968 126.182 58.4148 126.841 59.2295C127.517 60.0268 128.47 60.4255 129.701 60.4255C130.099 60.4255 130.515 60.3648 130.949 60.2435C131.382 60.1222 131.807 59.9142 132.223 59.6195C132.465 59.4808 132.691 59.4288 132.899 59.4635C133.107 59.4982 133.271 59.5935 133.393 59.7495C133.531 59.8882 133.618 60.0615 133.653 60.2695C133.705 60.4602 133.696 60.6595 133.627 60.8675C133.557 61.0755 133.41 61.2488 133.185 61.3875C132.63 61.7862 132.023 62.0722 131.365 62.2455C130.723 62.4188 130.099 62.5055 129.493 62.5055ZM141.473 62.5055C140.433 62.5055 139.557 62.3235 138.847 61.9595C138.136 61.5955 137.607 61.0582 137.261 60.3475C136.914 59.6368 136.741 58.7702 136.741 57.7475V51.6115H135.181C134.834 51.6115 134.565 51.5248 134.375 51.3515C134.184 51.1608 134.089 50.9095 134.089 50.5975C134.089 50.2682 134.184 50.0168 134.375 49.8435C134.565 49.6702 134.834 49.5835 135.181 49.5835H136.741V46.9055C136.741 46.4721 136.853 46.1428 137.079 45.9175C137.321 45.6922 137.651 45.5795 138.067 45.5795C138.483 45.5795 138.803 45.6922 139.029 45.9175C139.254 46.1428 139.367 46.4721 139.367 46.9055V49.5835H142.409C142.755 49.5835 143.024 49.6702 143.215 49.8435C143.405 50.0168 143.501 50.2682 143.501 50.5975C143.501 50.9095 143.405 51.1608 143.215 51.3515C143.024 51.5248 142.755 51.6115 142.409 51.6115H139.367V57.5395C139.367 58.4582 139.557 59.1515 139.939 59.6195C140.337 60.0875 140.979 60.3215 141.863 60.3215C142.175 60.3215 142.443 60.2955 142.669 60.2435C142.911 60.1742 143.111 60.1308 143.267 60.1135C143.457 60.1135 143.613 60.1828 143.735 60.3215C143.856 60.4428 143.917 60.6855 143.917 61.0495C143.917 61.3095 143.865 61.5522 143.761 61.7775C143.674 62.0028 143.509 62.1502 143.267 62.2195C143.059 62.2888 142.773 62.3495 142.409 62.4015C142.062 62.4708 141.75 62.5055 141.473 62.5055ZM154.08 62.2715C153.647 62.2715 153.309 62.1502 153.066 61.9075C152.824 61.6648 152.702 61.3268 152.702 60.8935V45.2155C152.702 44.7648 152.815 44.4268 153.04 44.2015C153.283 43.9588 153.621 43.8375 154.054 43.8375C154.488 43.8375 154.817 43.9588 155.042 44.2015C155.285 44.4268 155.406 44.7648 155.406 45.2155V59.9575H163.466C163.848 59.9575 164.142 60.0615 164.35 60.2695C164.558 60.4602 164.662 60.7375 164.662 61.1015C164.662 61.4655 164.558 61.7515 164.35 61.9595C164.142 62.1675 163.848 62.2715 163.466 62.2715H154.08ZM172.147 62.5055C170.864 62.5055 169.755 62.2368 168.819 61.6995C167.9 61.1622 167.181 60.3995 166.661 59.4115C166.141 58.4235 165.881 57.2622 165.881 55.9275C165.881 54.9048 166.028 53.9948 166.323 53.1975C166.618 52.4002 167.034 51.7155 167.571 51.1435C168.126 50.5542 168.784 50.1122 169.547 49.8175C170.327 49.5055 171.194 49.3495 172.147 49.3495C173.412 49.3495 174.504 49.6182 175.423 50.1555C176.359 50.6928 177.087 51.4555 177.607 52.4435C178.127 53.4142 178.387 54.5755 178.387 55.9275C178.387 56.9328 178.24 57.8428 177.945 58.6575C177.65 59.4722 177.226 60.1655 176.671 60.7375C176.134 61.3095 175.475 61.7515 174.695 62.0635C173.932 62.3582 173.083 62.5055 172.147 62.5055ZM172.147 60.4775C172.858 60.4775 173.482 60.3042 174.019 59.9575C174.556 59.6108 174.972 59.0995 175.267 58.4235C175.579 57.7475 175.735 56.9155 175.735 55.9275C175.735 54.4368 175.406 53.3102 174.747 52.5475C174.088 51.7848 173.222 51.4035 172.147 51.4035C171.419 51.4035 170.786 51.5768 170.249 51.9235C169.712 52.2528 169.287 52.7555 168.975 53.4315C168.68 54.1075 168.533 54.9395 168.533 55.9275C168.533 57.4008 168.862 58.5275 169.521 59.3075C170.18 60.0875 171.055 60.4775 172.147 60.4775ZM187.082 67.1855C186.146 67.1855 185.236 67.0902 184.352 66.8995C183.486 66.7088 182.697 66.3968 181.986 65.9635C181.726 65.8248 181.553 65.6515 181.466 65.4435C181.38 65.2528 181.354 65.0535 181.388 64.8455C181.44 64.6375 181.536 64.4555 181.674 64.2995C181.813 64.1435 181.978 64.0395 182.168 63.9875C182.376 63.9355 182.593 63.9702 182.818 64.0915C183.581 64.5075 184.3 64.7848 184.976 64.9235C185.67 65.0795 186.311 65.1575 186.9 65.1575C188.114 65.1575 189.024 64.8455 189.63 64.2215C190.237 63.6148 190.54 62.7135 190.54 61.5175V58.8655H190.774C190.514 59.8188 189.968 60.5728 189.136 61.1275C188.304 61.6822 187.342 61.9595 186.25 61.9595C185.106 61.9595 184.11 61.6995 183.26 61.1795C182.411 60.6422 181.752 59.9055 181.284 58.9695C180.816 58.0162 180.582 56.9068 180.582 55.6415C180.582 54.6882 180.712 53.8302 180.972 53.0675C181.25 52.3048 181.631 51.6462 182.116 51.0915C182.619 50.5368 183.217 50.1122 183.91 49.8175C184.621 49.5055 185.401 49.3495 186.25 49.3495C187.36 49.3495 188.322 49.6268 189.136 50.1815C189.968 50.7362 190.506 51.4902 190.748 52.4435L190.488 52.8855V50.7275C190.488 50.2942 190.601 49.9648 190.826 49.7395C191.069 49.5142 191.39 49.4015 191.788 49.4015C192.204 49.4015 192.525 49.5142 192.75 49.7395C192.976 49.9648 193.088 50.2942 193.088 50.7275V61.2055C193.088 63.1815 192.577 64.6722 191.554 65.6775C190.532 66.6828 189.041 67.1855 187.082 67.1855ZM186.874 59.9055C187.637 59.9055 188.287 59.7322 188.824 59.3855C189.362 59.0388 189.778 58.5448 190.072 57.9035C190.367 57.2622 190.514 56.5082 190.514 55.6415C190.514 54.3415 190.185 53.3102 189.526 52.5475C188.885 51.7848 188.001 51.4035 186.874 51.4035C186.129 51.4035 185.488 51.5768 184.95 51.9235C184.413 52.2702 183.988 52.7642 183.676 53.4055C183.382 54.0295 183.234 54.7748 183.234 55.6415C183.234 56.9588 183.564 57.9988 184.222 58.7615C184.881 59.5242 185.765 59.9055 186.874 59.9055Z" fill="#0E2040"/>
<rect opacity="0.2" x="459.98" y="34.7148" width="115.963" height="51.2561" rx="6" fill="#238899"/>
<path d="M476.515 66.105C476.325 66.105 476.175 66.05 476.065 65.94C475.955 65.82 475.9 65.66 475.9 65.46V56.49H472.525C472.345 56.49 472.205 56.44 472.105 56.34C472.005 56.24 471.955 56.11 471.955 55.95C471.955 55.78 472.005 55.65 472.105 55.56C472.205 55.47 472.345 55.425 472.525 55.425H480.52C480.7 55.425 480.84 55.47 480.94 55.56C481.04 55.65 481.09 55.78 481.09 55.95C481.09 56.12 481.04 56.255 480.94 56.355C480.84 56.445 480.7 56.49 480.52 56.49H477.145V65.46C477.145 65.66 477.09 65.82 476.98 65.94C476.88 66.05 476.725 66.105 476.515 66.105ZM483.144 66.105C482.944 66.105 482.794 66.05 482.694 65.94C482.594 65.83 482.544 65.675 482.544 65.475V55.935C482.544 55.735 482.594 55.585 482.694 55.485C482.794 55.375 482.944 55.32 483.144 55.32C483.334 55.32 483.484 55.375 483.594 55.485C483.704 55.585 483.759 55.735 483.759 55.935V60.33H483.564C483.774 59.75 484.114 59.315 484.584 59.025C485.064 58.725 485.614 58.575 486.234 58.575C486.814 58.575 487.294 58.68 487.674 58.89C488.064 59.1 488.354 59.42 488.544 59.85C488.734 60.27 488.829 60.805 488.829 61.455V65.475C488.829 65.675 488.774 65.83 488.664 65.94C488.564 66.05 488.419 66.105 488.229 66.105C488.029 66.105 487.874 66.05 487.764 65.94C487.664 65.83 487.614 65.675 487.614 65.475V61.53C487.614 60.85 487.479 60.355 487.209 60.045C486.949 59.725 486.529 59.565 485.949 59.565C485.279 59.565 484.744 59.775 484.344 60.195C483.954 60.605 483.759 61.155 483.759 61.845V65.475C483.759 65.895 483.554 66.105 483.144 66.105ZM491.67 66.075C491.47 66.075 491.32 66.02 491.22 65.91C491.12 65.79 491.07 65.625 491.07 65.415V59.28C491.07 59.07 491.12 58.91 491.22 58.8C491.32 58.69 491.47 58.635 491.67 58.635C491.86 58.635 492.01 58.69 492.12 58.8C492.23 58.91 492.285 59.07 492.285 59.28V65.415C492.285 65.625 492.23 65.79 492.12 65.91C492.02 66.02 491.87 66.075 491.67 66.075ZM491.67 56.955C491.42 56.955 491.225 56.89 491.085 56.76C490.945 56.62 490.875 56.435 490.875 56.205C490.875 55.965 490.945 55.785 491.085 55.665C491.225 55.535 491.42 55.47 491.67 55.47C491.93 55.47 492.125 55.535 492.255 55.665C492.395 55.785 492.465 55.965 492.465 56.205C492.465 56.435 492.395 56.62 492.255 56.76C492.125 56.89 491.93 56.955 491.67 56.955ZM497.016 66.135C496.566 66.135 496.111 66.08 495.651 65.97C495.201 65.86 494.781 65.67 494.391 65.4C494.291 65.33 494.221 65.25 494.181 65.16C494.141 65.06 494.126 64.965 494.136 64.875C494.156 64.775 494.196 64.69 494.256 64.62C494.326 64.55 494.406 64.51 494.496 64.5C494.596 64.48 494.706 64.5 494.826 64.56C495.216 64.8 495.591 64.97 495.951 65.07C496.321 65.16 496.686 65.205 497.046 65.205C497.616 65.205 498.046 65.1 498.336 64.89C498.626 64.68 498.771 64.395 498.771 64.035C498.771 63.755 498.676 63.535 498.486 63.375C498.296 63.205 497.996 63.075 497.586 62.985L496.221 62.685C495.591 62.555 495.121 62.33 494.811 62.01C494.511 61.69 494.361 61.275 494.361 60.765C494.361 60.315 494.476 59.93 494.706 59.61C494.946 59.28 495.281 59.025 495.711 58.845C496.141 58.665 496.641 58.575 497.211 58.575C497.651 58.575 498.066 58.635 498.456 58.755C498.856 58.865 499.216 59.045 499.536 59.295C499.636 59.365 499.701 59.45 499.731 59.55C499.771 59.64 499.776 59.735 499.746 59.835C499.726 59.925 499.681 60.005 499.611 60.075C499.541 60.135 499.456 60.17 499.356 60.18C499.256 60.19 499.151 60.16 499.041 60.09C498.741 59.89 498.436 59.745 498.126 59.655C497.816 59.555 497.511 59.505 497.211 59.505C496.651 59.505 496.226 59.615 495.936 59.835C495.646 60.055 495.501 60.345 495.501 60.705C495.501 60.985 495.591 61.215 495.771 61.395C495.951 61.575 496.231 61.705 496.611 61.785L497.976 62.07C498.626 62.21 499.111 62.435 499.431 62.745C499.761 63.045 499.926 63.455 499.926 63.975C499.926 64.635 499.661 65.16 499.131 65.55C498.601 65.94 497.896 66.135 497.016 66.135ZM509.2 66.105C509.02 66.105 508.875 66.06 508.765 65.97C508.655 65.87 508.565 65.725 508.495 65.535L505.18 56.07C505.11 55.86 505.125 55.685 505.225 55.545C505.335 55.395 505.505 55.32 505.735 55.32C505.905 55.32 506.04 55.365 506.14 55.455C506.24 55.535 506.325 55.665 506.395 55.845L509.5 64.95H508.975L512.14 55.89C512.21 55.7 512.295 55.56 512.395 55.47C512.495 55.37 512.63 55.32 512.8 55.32C512.96 55.32 513.085 55.37 513.175 55.47C513.275 55.56 513.36 55.7 513.43 55.89L516.55 64.95H516.085L519.22 55.845C519.27 55.675 519.345 55.545 519.445 55.455C519.555 55.365 519.695 55.32 519.865 55.32C520.075 55.32 520.23 55.39 520.33 55.53C520.43 55.67 520.44 55.85 520.36 56.07L517.03 65.535C516.96 65.725 516.87 65.87 516.76 65.97C516.66 66.06 516.515 66.105 516.325 66.105C516.145 66.105 516 66.06 515.89 65.97C515.79 65.87 515.7 65.725 515.62 65.535L512.605 56.85H512.935L509.89 65.535C509.82 65.725 509.735 65.87 509.635 65.97C509.535 66.06 509.39 66.105 509.2 66.105ZM524.56 66.135C523.79 66.135 523.125 65.985 522.565 65.685C522.015 65.375 521.585 64.94 521.275 64.38C520.975 63.82 520.825 63.15 520.825 62.37C520.825 61.61 520.975 60.95 521.275 60.39C521.575 59.82 521.985 59.375 522.505 59.055C523.035 58.735 523.645 58.575 524.335 58.575C524.825 58.575 525.265 58.66 525.655 58.83C526.045 58.99 526.375 59.225 526.645 59.535C526.925 59.845 527.135 60.22 527.275 60.66C527.425 61.1 527.5 61.595 527.5 62.145C527.5 62.305 527.455 62.425 527.365 62.505C527.275 62.575 527.145 62.61 526.975 62.61H521.755V61.815H526.69L526.45 62.01C526.45 61.47 526.37 61.015 526.21 60.645C526.05 60.265 525.815 59.975 525.505 59.775C525.205 59.575 524.825 59.475 524.365 59.475C523.855 59.475 523.42 59.595 523.06 59.835C522.71 60.065 522.445 60.39 522.265 60.81C522.085 61.22 521.995 61.7 521.995 62.25V62.34C521.995 63.26 522.215 63.96 522.655 64.44C523.105 64.92 523.74 65.16 524.56 65.16C524.9 65.16 525.235 65.115 525.565 65.025C525.905 64.935 526.235 64.785 526.555 64.575C526.695 64.485 526.82 64.445 526.93 64.455C527.05 64.455 527.145 64.49 527.215 64.56C527.285 64.62 527.33 64.7 527.35 64.8C527.38 64.89 527.37 64.99 527.32 65.1C527.28 65.21 527.195 65.305 527.065 65.385C526.735 65.625 526.345 65.81 525.895 65.94C525.445 66.07 525 66.135 524.56 66.135ZM532.543 66.135C531.773 66.135 531.108 65.985 530.548 65.685C529.998 65.375 529.568 64.94 529.258 64.38C528.958 63.82 528.808 63.15 528.808 62.37C528.808 61.61 528.958 60.95 529.258 60.39C529.558 59.82 529.968 59.375 530.488 59.055C531.018 58.735 531.628 58.575 532.318 58.575C532.808 58.575 533.248 58.66 533.638 58.83C534.028 58.99 534.358 59.225 534.628 59.535C534.908 59.845 535.118 60.22 535.258 60.66C535.408 61.1 535.483 61.595 535.483 62.145C535.483 62.305 535.438 62.425 535.348 62.505C535.258 62.575 535.128 62.61 534.958 62.61H529.738V61.815H534.673L534.433 62.01C534.433 61.47 534.353 61.015 534.193 60.645C534.033 60.265 533.798 59.975 533.488 59.775C533.188 59.575 532.808 59.475 532.348 59.475C531.838 59.475 531.403 59.595 531.043 59.835C530.693 60.065 530.428 60.39 530.248 60.81C530.068 61.22 529.978 61.7 529.978 62.25V62.34C529.978 63.26 530.198 63.96 530.638 64.44C531.088 64.92 531.723 65.16 532.543 65.16C532.883 65.16 533.218 65.115 533.548 65.025C533.888 64.935 534.218 64.785 534.538 64.575C534.678 64.485 534.803 64.445 534.913 64.455C535.033 64.455 535.128 64.49 535.198 64.56C535.268 64.62 535.313 64.7 535.333 64.8C535.363 64.89 535.353 64.99 535.303 65.1C535.263 65.21 535.178 65.305 535.048 65.385C534.718 65.625 534.328 65.81 533.878 65.94C533.428 66.07 532.983 66.135 532.543 66.135ZM537.842 66.105C537.642 66.105 537.492 66.05 537.392 65.94C537.292 65.83 537.242 65.675 537.242 65.475V55.935C537.242 55.735 537.292 55.585 537.392 55.485C537.492 55.375 537.642 55.32 537.842 55.32C538.032 55.32 538.182 55.375 538.292 55.485C538.402 55.585 538.457 55.735 538.457 55.935V61.95H538.487L541.562 59.01C541.702 58.88 541.822 58.78 541.922 58.71C542.032 58.64 542.177 58.605 542.357 58.605C542.517 58.605 542.642 58.65 542.732 58.74C542.822 58.82 542.862 58.925 542.852 59.055C542.852 59.175 542.792 59.305 542.672 59.445L539.402 62.55V61.89L542.957 65.235C543.097 65.375 543.167 65.51 543.167 65.64C543.167 65.77 543.117 65.88 543.017 65.97C542.927 66.06 542.807 66.105 542.657 66.105C542.477 66.105 542.332 66.07 542.222 66C542.112 65.92 541.977 65.805 541.817 65.655L538.487 62.58H538.457V65.475C538.457 65.895 538.252 66.105 537.842 66.105Z" fill="#238899"/>
<path d="M558.198 65.747C558.155 65.688 557.972 65.4652 557.821 65.2577C556.874 64.0412 555.324 60.8677 554.851 59.2067C554.775 58.9544 554.614 58.3167 554.604 57.9759C554.604 57.6494 554.657 57.3382 554.764 57.0412C554.915 56.6709 555.152 56.3739 555.432 56.2112C555.626 56.1064 556.207 55.9437 556.217 55.9437C556.853 55.7809 557.886 55.6914 559.027 55.6914C560.114 55.6914 561.105 55.7809 561.75 55.9142C561.76 55.9294 562.482 56.0922 562.73 56.2702C563.181 56.5967 563.462 57.2344 563.462 57.9169V57.9759C563.451 58.4204 563.17 59.3552 563.16 59.3552C562.686 60.9267 561.212 64.027 560.232 65.273C560.232 65.273 559.98 65.6239 559.823 65.7765C559.597 66.0145 559.318 66.1325 559.038 66.1325C558.726 66.1325 558.435 65.9992 558.198 65.747Z" fill="#238899"/>
<path d="M199.221 142C181.098 142 163.153 145.569 146.41 152.505C129.667 159.44 114.454 169.605 101.64 182.419C88.8255 195.234 78.6605 210.447 71.7253 227.19C64.7902 243.933 61.2207 261.878 61.2207 280C61.2207 298.122 64.7902 316.067 71.7253 332.81C78.6605 349.553 88.8255 364.766 101.64 377.581C114.454 390.395 129.667 400.56 146.41 407.495C163.153 414.431 181.098 418 199.221 418L199.221 360.699C188.623 360.699 178.129 358.612 168.339 354.556C158.548 350.501 149.652 344.556 142.158 337.063C134.664 329.569 128.72 320.673 124.665 310.882C120.609 301.091 118.522 290.598 118.522 280C118.522 269.402 120.609 258.909 124.665 249.118C128.72 239.327 134.664 230.431 142.158 222.937C149.652 215.444 158.548 209.499 168.339 205.444C178.129 201.388 188.623 199.301 199.221 199.301V142Z" fill="#F94144"/>
<path d="M337.221 280C337.221 261.878 333.651 243.933 326.716 227.19C319.781 210.447 309.616 195.234 296.801 182.419L256.283 222.937C263.777 230.431 269.721 239.327 273.777 249.118C277.832 258.909 279.92 269.402 279.92 280L337.221 280Z" fill="#F8961E"/>
<path d="M296.666 182.554C283.855 169.743 268.646 159.581 251.907 152.648C235.169 145.714 217.228 142.146 199.111 142.146L199.111 199.432C209.705 199.432 220.196 201.519 229.985 205.573C239.773 209.627 248.667 215.57 256.158 223.062L296.666 182.554Z" fill="#2D9CDB"/>
<path d="M199.221 418C217.343 418 235.288 414.431 252.031 407.495C268.774 400.56 283.987 390.395 296.801 377.581C309.616 364.766 319.781 349.553 326.716 332.81C333.651 316.067 337.221 298.122 337.221 280L279.92 280C279.92 290.598 277.832 301.091 273.777 310.882C269.721 320.673 263.777 329.569 256.283 337.063C248.79 344.556 239.894 350.501 230.103 354.556C220.312 358.612 209.818 360.699 199.221 360.699L199.221 418Z" fill="#F9C74F"/>
<path d="M199.221 418C234.418 418 268.285 404.551 293.893 380.405L254.583 338.714C239.608 352.834 219.803 360.699 199.221 360.699L199.221 418Z" fill="#90BE6D"/>
<path d="M417.83 229.455C417.778 229.023 417.571 228.688 417.207 228.449C416.844 228.21 416.398 228.091 415.869 228.091C415.483 228.091 415.145 228.153 414.855 228.278C414.568 228.403 414.344 228.575 414.182 228.794C414.023 229.013 413.943 229.261 413.943 229.54C413.943 229.773 413.999 229.973 414.109 230.141C414.223 230.305 414.368 230.443 414.544 230.554C414.72 230.662 414.905 230.751 415.098 230.822C415.291 230.891 415.469 230.946 415.631 230.989L416.517 231.227C416.744 231.287 416.997 231.369 417.276 231.474C417.557 231.58 417.825 231.723 418.081 231.905C418.339 232.084 418.553 232.314 418.72 232.595C418.888 232.876 418.972 233.222 418.972 233.631C418.972 234.102 418.848 234.528 418.601 234.909C418.357 235.29 417.999 235.592 417.527 235.817C417.058 236.041 416.489 236.153 415.818 236.153C415.193 236.153 414.652 236.053 414.195 235.851C413.74 235.649 413.382 235.368 413.121 235.007C412.862 234.646 412.716 234.227 412.682 233.75H413.773C413.801 234.08 413.912 234.352 414.105 234.568C414.301 234.781 414.548 234.94 414.847 235.045C415.148 235.148 415.472 235.199 415.818 235.199C416.222 235.199 416.584 235.134 416.905 235.003C417.226 234.869 417.48 234.685 417.668 234.449C417.855 234.21 417.949 233.932 417.949 233.614C417.949 233.324 417.868 233.088 417.706 232.906C417.544 232.724 417.331 232.577 417.067 232.463C416.803 232.349 416.517 232.25 416.21 232.165L415.136 231.858C414.455 231.662 413.915 231.382 413.517 231.018C413.119 230.655 412.92 230.179 412.92 229.591C412.92 229.102 413.053 228.676 413.317 228.312C413.584 227.946 413.942 227.662 414.391 227.46C414.842 227.256 415.347 227.153 415.903 227.153C416.466 227.153 416.966 227.254 417.403 227.456C417.841 227.655 418.188 227.928 418.443 228.274C418.702 228.621 418.838 229.014 418.852 229.455H417.83ZM423.232 236.136C422.641 236.136 422.123 235.996 421.676 235.714C421.233 235.433 420.887 235.04 420.637 234.534C420.39 234.028 420.266 233.437 420.266 232.761C420.266 232.08 420.39 231.484 420.637 230.976C420.887 230.467 421.233 230.072 421.676 229.791C422.123 229.51 422.641 229.369 423.232 229.369C423.823 229.369 424.34 229.51 424.783 229.791C425.229 230.072 425.576 230.467 425.823 230.976C426.073 231.484 426.198 232.08 426.198 232.761C426.198 233.437 426.073 234.028 425.823 234.534C425.576 235.04 425.229 235.433 424.783 235.714C424.34 235.996 423.823 236.136 423.232 236.136ZM423.232 235.233C423.681 235.233 424.05 235.118 424.34 234.888C424.63 234.658 424.844 234.355 424.983 233.98C425.123 233.605 425.192 233.199 425.192 232.761C425.192 232.324 425.123 231.916 424.983 231.538C424.844 231.161 424.63 230.855 424.34 230.622C424.05 230.389 423.681 230.273 423.232 230.273C422.783 230.273 422.414 230.389 422.124 230.622C421.834 230.855 421.62 231.161 421.48 231.538C421.341 231.916 421.272 232.324 421.272 232.761C421.272 233.199 421.341 233.605 421.48 233.98C421.62 234.355 421.834 234.658 422.124 234.888C422.414 235.118 422.783 235.233 423.232 235.233ZM430.392 236.136C429.778 236.136 429.25 235.991 428.807 235.702C428.364 235.412 428.023 235.013 427.784 234.504C427.545 233.996 427.426 233.415 427.426 232.761C427.426 232.097 427.548 231.51 427.793 231.001C428.04 230.49 428.384 230.091 428.824 229.804C429.267 229.514 429.784 229.369 430.375 229.369C430.835 229.369 431.25 229.455 431.619 229.625C431.989 229.795 432.291 230.034 432.527 230.341C432.763 230.648 432.909 231.006 432.966 231.415H431.96C431.884 231.116 431.713 230.852 431.449 230.622C431.188 230.389 430.835 230.273 430.392 230.273C430 230.273 429.656 230.375 429.361 230.58C429.068 230.781 428.839 231.067 428.675 231.436C428.513 231.803 428.432 232.233 428.432 232.727C428.432 233.233 428.511 233.673 428.67 234.048C428.832 234.423 429.06 234.714 429.352 234.922C429.648 235.129 429.994 235.233 430.392 235.233C430.653 235.233 430.891 235.188 431.104 235.097C431.317 235.006 431.497 234.875 431.645 234.705C431.793 234.534 431.898 234.33 431.96 234.091H432.966C432.909 234.477 432.768 234.825 432.544 235.135C432.322 235.442 432.028 235.686 431.662 235.868C431.298 236.047 430.875 236.136 430.392 236.136ZM435.374 233.614L435.357 232.369H435.561L438.425 229.455H439.669L436.618 232.54H436.533L435.374 233.614ZM434.436 236V227.273H435.442V236H434.436ZM438.595 236L436.038 232.761L436.754 232.062L439.874 236H438.595ZM445.6 230.92L444.696 231.176C444.64 231.026 444.556 230.879 444.445 230.737C444.337 230.592 444.189 230.473 444.002 230.379C443.814 230.286 443.574 230.239 443.282 230.239C442.881 230.239 442.547 230.331 442.28 230.516C442.016 230.697 441.884 230.929 441.884 231.21C441.884 231.46 441.975 231.658 442.157 231.803C442.338 231.947 442.623 232.068 443.009 232.165L443.98 232.403C444.566 232.545 445.002 232.763 445.289 233.055C445.576 233.345 445.719 233.719 445.719 234.176C445.719 234.551 445.611 234.886 445.395 235.182C445.182 235.477 444.884 235.71 444.5 235.881C444.117 236.051 443.671 236.136 443.162 236.136C442.495 236.136 441.942 235.991 441.505 235.702C441.067 235.412 440.79 234.989 440.674 234.432L441.628 234.193C441.719 234.545 441.891 234.81 442.144 234.986C442.4 235.162 442.733 235.25 443.145 235.25C443.614 235.25 443.986 235.151 444.262 234.952C444.54 234.75 444.679 234.509 444.679 234.227C444.679 234 444.6 233.81 444.441 233.656C444.282 233.5 444.037 233.384 443.708 233.307L442.617 233.051C442.017 232.909 441.577 232.689 441.296 232.391C441.017 232.089 440.878 231.713 440.878 231.261C440.878 230.892 440.982 230.565 441.189 230.281C441.4 229.997 441.685 229.774 442.046 229.612C442.409 229.45 442.821 229.369 443.282 229.369C443.929 229.369 444.438 229.511 444.807 229.795C445.179 230.08 445.444 230.455 445.6 230.92Z" fill="black"/>
<circle cx="399.5" cy="232.5" r="4.5" fill="#F94144"/>
<path d="M413.057 261V252.273H414.114V256.602H414.216L418.136 252.273H419.517L415.852 256.21L419.517 261H418.239L415.205 256.943L414.114 258.17V261H413.057ZM421.159 261V254.455H422.164V261H421.159ZM421.67 253.364C421.474 253.364 421.305 253.297 421.163 253.163C421.024 253.03 420.954 252.869 420.954 252.682C420.954 252.494 421.024 252.334 421.163 252.2C421.305 252.067 421.474 252 421.67 252C421.866 252 422.034 252.067 422.173 252.2C422.315 252.334 422.386 252.494 422.386 252.682C422.386 252.869 422.315 253.03 422.173 253.163C422.034 253.297 421.866 253.364 421.67 253.364ZM426.478 261.136C425.933 261.136 425.451 260.999 425.033 260.723C424.616 260.445 424.289 260.053 424.053 259.547C423.817 259.038 423.7 258.438 423.7 257.744C423.7 257.057 423.817 256.46 424.053 255.955C424.289 255.449 424.617 255.058 425.038 254.783C425.458 254.507 425.944 254.369 426.495 254.369C426.921 254.369 427.258 254.44 427.505 254.582C427.755 254.722 427.945 254.881 428.076 255.06C428.21 255.236 428.313 255.381 428.387 255.494H428.472V252.273H429.478V261H428.506V259.994H428.387C428.313 260.114 428.208 260.264 428.072 260.446C427.935 260.625 427.741 260.786 427.488 260.928C427.235 261.067 426.898 261.136 426.478 261.136ZM426.614 260.233C427.018 260.233 427.359 260.128 427.637 259.918C427.915 259.705 428.127 259.411 428.272 259.036C428.417 258.658 428.489 258.222 428.489 257.727C428.489 257.239 428.418 256.811 428.276 256.445C428.134 256.075 427.924 255.788 427.646 255.584C427.367 255.376 427.023 255.273 426.614 255.273C426.188 255.273 425.833 255.382 425.549 255.601C425.268 255.817 425.056 256.111 424.914 256.483C424.775 256.852 424.705 257.267 424.705 257.727C424.705 258.193 424.776 258.616 424.918 258.997C425.063 259.375 425.276 259.676 425.558 259.901C425.842 260.122 426.194 260.233 426.614 260.233ZM436.096 255.92L435.192 256.176C435.136 256.026 435.052 255.879 434.941 255.737C434.833 255.592 434.685 255.473 434.498 255.379C434.31 255.286 434.07 255.239 433.778 255.239C433.377 255.239 433.043 255.331 432.776 255.516C432.512 255.697 432.38 255.929 432.38 256.21C432.38 256.46 432.471 256.658 432.653 256.803C432.835 256.947 433.119 257.068 433.505 257.165L434.477 257.403C435.062 257.545 435.498 257.763 435.785 258.055C436.072 258.345 436.215 258.719 436.215 259.176C436.215 259.551 436.107 259.886 435.891 260.182C435.678 260.477 435.38 260.71 434.996 260.881C434.613 261.051 434.167 261.136 433.658 261.136C432.991 261.136 432.438 260.991 432.001 260.702C431.563 260.412 431.286 259.989 431.17 259.432L432.124 259.193C432.215 259.545 432.387 259.81 432.64 259.986C432.896 260.162 433.229 260.25 433.641 260.25C434.11 260.25 434.482 260.151 434.758 259.952C435.036 259.75 435.175 259.509 435.175 259.227C435.175 259 435.096 258.81 434.937 258.656C434.778 258.5 434.533 258.384 434.204 258.307L433.113 258.051C432.513 257.909 432.073 257.689 431.792 257.391C431.513 257.089 431.374 256.713 431.374 256.261C431.374 255.892 431.478 255.565 431.685 255.281C431.896 254.997 432.181 254.774 432.542 254.612C432.906 254.45 433.317 254.369 433.778 254.369C434.425 254.369 434.934 254.511 435.303 254.795C435.675 255.08 435.94 255.455 436.096 255.92ZM446.013 254.455C445.962 254.023 445.755 253.688 445.391 253.449C445.027 253.21 444.581 253.091 444.053 253.091C443.667 253.091 443.328 253.153 443.039 253.278C442.752 253.403 442.527 253.575 442.365 253.794C442.206 254.013 442.127 254.261 442.127 254.54C442.127 254.773 442.182 254.973 442.293 255.141C442.407 255.305 442.551 255.443 442.728 255.554C442.904 255.662 443.088 255.751 443.282 255.822C443.475 255.891 443.652 255.946 443.814 255.989L444.701 256.227C444.928 256.287 445.181 256.369 445.459 256.474C445.74 256.58 446.009 256.723 446.265 256.905C446.523 257.084 446.736 257.314 446.904 257.595C447.071 257.876 447.155 258.222 447.155 258.631C447.155 259.102 447.032 259.528 446.784 259.909C446.54 260.29 446.182 260.592 445.711 260.817C445.242 261.041 444.672 261.153 444.002 261.153C443.377 261.153 442.836 261.053 442.378 260.851C441.924 260.649 441.566 260.368 441.304 260.007C441.046 259.646 440.9 259.227 440.865 258.75H441.956C441.985 259.08 442.096 259.352 442.289 259.568C442.485 259.781 442.732 259.94 443.03 260.045C443.331 260.148 443.655 260.199 444.002 260.199C444.405 260.199 444.767 260.134 445.088 260.003C445.409 259.869 445.664 259.685 445.851 259.449C446.039 259.21 446.132 258.932 446.132 258.614C446.132 258.324 446.051 258.088 445.89 257.906C445.728 257.724 445.515 257.577 445.25 257.463C444.986 257.349 444.701 257.25 444.394 257.165L443.32 256.858C442.638 256.662 442.098 256.382 441.701 256.018C441.303 255.655 441.104 255.179 441.104 254.591C441.104 254.102 441.236 253.676 441.5 253.312C441.767 252.946 442.125 252.662 442.574 252.46C443.026 252.256 443.53 252.153 444.087 252.153C444.65 252.153 445.15 252.254 445.587 252.456C446.025 252.655 446.371 252.928 446.627 253.274C446.885 253.621 447.022 254.014 447.036 254.455H446.013ZM451.415 261.136C450.825 261.136 450.306 260.996 449.86 260.714C449.417 260.433 449.07 260.04 448.82 259.534C448.573 259.028 448.45 258.437 448.45 257.761C448.45 257.08 448.573 256.484 448.82 255.976C449.07 255.467 449.417 255.072 449.86 254.791C450.306 254.51 450.825 254.369 451.415 254.369C452.006 254.369 452.523 254.51 452.967 254.791C453.413 255.072 453.759 255.467 454.006 255.976C454.256 256.484 454.381 257.08 454.381 257.761C454.381 258.437 454.256 259.028 454.006 259.534C453.759 260.04 453.413 260.433 452.967 260.714C452.523 260.996 452.006 261.136 451.415 261.136ZM451.415 260.233C451.864 260.233 452.234 260.118 452.523 259.888C452.813 259.658 453.028 259.355 453.167 258.98C453.306 258.605 453.376 258.199 453.376 257.761C453.376 257.324 453.306 256.916 453.167 256.538C453.028 256.161 452.813 255.855 452.523 255.622C452.234 255.389 451.864 255.273 451.415 255.273C450.967 255.273 450.597 255.389 450.308 255.622C450.018 255.855 449.803 256.161 449.664 256.538C449.525 256.916 449.455 257.324 449.455 257.761C449.455 258.199 449.525 258.605 449.664 258.98C449.803 259.355 450.018 259.658 450.308 259.888C450.597 260.118 450.967 260.233 451.415 260.233ZM458.576 261.136C457.962 261.136 457.434 260.991 456.99 260.702C456.547 260.412 456.206 260.013 455.968 259.504C455.729 258.996 455.61 258.415 455.61 257.761C455.61 257.097 455.732 256.51 455.976 256.001C456.223 255.49 456.567 255.091 457.007 254.804C457.451 254.514 457.968 254.369 458.559 254.369C459.019 254.369 459.434 254.455 459.803 254.625C460.172 254.795 460.475 255.034 460.711 255.341C460.946 255.648 461.093 256.006 461.15 256.415H460.144C460.067 256.116 459.897 255.852 459.632 255.622C459.371 255.389 459.019 255.273 458.576 255.273C458.184 255.273 457.84 255.375 457.544 255.58C457.252 255.781 457.023 256.067 456.858 256.436C456.696 256.803 456.615 257.233 456.615 257.727C456.615 258.233 456.695 258.673 456.854 259.048C457.016 259.423 457.243 259.714 457.536 259.922C457.831 260.129 458.178 260.233 458.576 260.233C458.837 260.233 459.074 260.188 459.287 260.097C459.5 260.006 459.681 259.875 459.828 259.705C459.976 259.534 460.081 259.33 460.144 259.091H461.15C461.093 259.477 460.952 259.825 460.728 260.135C460.506 260.442 460.212 260.686 459.846 260.868C459.482 261.047 459.059 261.136 458.576 261.136ZM463.557 258.614L463.54 257.369H463.745L466.608 254.455H467.853L464.801 257.54H464.716L463.557 258.614ZM462.62 261V252.273H463.625V261H462.62ZM466.779 261L464.222 257.761L464.938 257.062L468.057 261H466.779ZM473.783 255.92L472.88 256.176C472.823 256.026 472.739 255.879 472.629 255.737C472.521 255.592 472.373 255.473 472.185 255.379C471.998 255.286 471.758 255.239 471.465 255.239C471.065 255.239 470.731 255.331 470.464 255.516C470.2 255.697 470.067 255.929 470.067 256.21C470.067 256.46 470.158 256.658 470.34 256.803C470.522 256.947 470.806 257.068 471.192 257.165L472.164 257.403C472.749 257.545 473.185 257.763 473.472 258.055C473.759 258.345 473.903 258.719 473.903 259.176C473.903 259.551 473.795 259.886 473.579 260.182C473.366 260.477 473.067 260.71 472.684 260.881C472.3 261.051 471.854 261.136 471.346 261.136C470.678 261.136 470.126 260.991 469.688 260.702C469.251 260.412 468.974 259.989 468.857 259.432L469.812 259.193C469.903 259.545 470.075 259.81 470.327 259.986C470.583 260.162 470.917 260.25 471.329 260.25C471.798 260.25 472.17 260.151 472.445 259.952C472.724 259.75 472.863 259.509 472.863 259.227C472.863 259 472.783 258.81 472.624 258.656C472.465 258.5 472.221 258.384 471.891 258.307L470.8 258.051C470.201 257.909 469.761 257.689 469.479 257.391C469.201 257.089 469.062 256.713 469.062 256.261C469.062 255.892 469.165 255.565 469.373 255.281C469.583 254.997 469.869 254.774 470.229 254.612C470.593 254.45 471.005 254.369 471.465 254.369C472.113 254.369 472.621 254.511 472.991 254.795C473.363 255.08 473.627 255.455 473.783 255.92Z" fill="black"/>
<circle cx="399.5" cy="257.5" r="4.5" fill="#F9C74F"/>
<path d="M509.057 261V252.273H512.006C512.69 252.273 513.25 252.396 513.685 252.643C514.122 252.888 514.446 253.219 514.656 253.636C514.866 254.054 514.972 254.52 514.972 255.034C514.972 255.548 514.866 256.016 514.656 256.436C514.449 256.857 514.128 257.192 513.693 257.442C513.259 257.689 512.702 257.812 512.023 257.812H509.909V256.875H511.989C512.457 256.875 512.834 256.794 513.118 256.632C513.402 256.47 513.608 256.251 513.736 255.976C513.866 255.697 513.932 255.384 513.932 255.034C513.932 254.685 513.866 254.372 513.736 254.097C513.608 253.821 513.401 253.605 513.114 253.449C512.827 253.29 512.446 253.21 511.972 253.21H510.114V261H509.057ZM518.464 261.153C518.049 261.153 517.673 261.075 517.335 260.919C516.996 260.76 516.728 260.531 516.529 260.233C516.33 259.932 516.231 259.568 516.231 259.142C516.231 258.767 516.305 258.463 516.452 258.23C516.6 257.994 516.798 257.81 517.045 257.676C517.292 257.543 517.565 257.443 517.863 257.378C518.164 257.31 518.467 257.256 518.771 257.216C519.168 257.165 519.491 257.126 519.738 257.101C519.988 257.072 520.17 257.026 520.283 256.96C520.4 256.895 520.458 256.781 520.458 256.619V256.585C520.458 256.165 520.343 255.838 520.113 255.605C519.886 255.372 519.54 255.256 519.077 255.256C518.597 255.256 518.221 255.361 517.948 255.571C517.675 255.781 517.484 256.006 517.373 256.244L516.418 255.903C516.589 255.506 516.816 255.196 517.1 254.974C517.387 254.75 517.7 254.594 518.038 254.506C518.379 254.415 518.714 254.369 519.043 254.369C519.254 254.369 519.495 254.395 519.768 254.446C520.043 254.494 520.309 254.595 520.565 254.749C520.823 254.902 521.038 255.134 521.208 255.443C521.379 255.753 521.464 256.168 521.464 256.688V261H520.458V260.114H520.407C520.339 260.256 520.225 260.408 520.066 260.57C519.907 260.732 519.695 260.869 519.431 260.983C519.167 261.097 518.844 261.153 518.464 261.153ZM518.617 260.25C519.015 260.25 519.35 260.172 519.623 260.016C519.898 259.859 520.106 259.658 520.245 259.411C520.387 259.163 520.458 258.903 520.458 258.631V257.71C520.415 257.761 520.322 257.808 520.177 257.851C520.035 257.891 519.87 257.926 519.683 257.957C519.498 257.986 519.317 258.011 519.141 258.034C518.968 258.054 518.827 258.071 518.719 258.085C518.458 258.119 518.214 258.175 517.987 258.251C517.762 258.325 517.58 258.437 517.441 258.588C517.305 258.736 517.237 258.937 517.237 259.193C517.237 259.543 517.366 259.807 517.624 259.986C517.886 260.162 518.217 260.25 518.617 260.25ZM524.305 257.062V261H523.299V254.455H524.271V255.477H524.356C524.51 255.145 524.743 254.878 525.055 254.676C525.368 254.472 525.771 254.369 526.265 254.369C526.708 254.369 527.096 254.46 527.429 254.642C527.761 254.821 528.02 255.094 528.204 255.46C528.389 255.824 528.481 256.284 528.481 256.841V261H527.475V256.909C527.475 256.395 527.342 255.994 527.075 255.707C526.808 255.418 526.441 255.273 525.975 255.273C525.654 255.273 525.368 255.342 525.115 255.482C524.865 255.621 524.667 255.824 524.522 256.091C524.377 256.358 524.305 256.682 524.305 257.062ZM533.165 254.455V255.307H529.773V254.455H533.165ZM530.762 252.886H531.768V259.125C531.768 259.409 531.809 259.622 531.891 259.764C531.977 259.903 532.085 259.997 532.215 260.045C532.349 260.091 532.489 260.114 532.637 260.114C532.748 260.114 532.839 260.108 532.91 260.097C532.981 260.082 533.038 260.071 533.08 260.062L533.285 260.966C533.217 260.991 533.121 261.017 532.999 261.043C532.877 261.071 532.722 261.085 532.535 261.085C532.251 261.085 531.972 261.024 531.7 260.902C531.43 260.78 531.205 260.594 531.026 260.344C530.85 260.094 530.762 259.778 530.762 259.398V252.886ZM539.197 255.92L538.294 256.176C538.237 256.026 538.153 255.879 538.043 255.737C537.935 255.592 537.787 255.473 537.599 255.379C537.412 255.286 537.172 255.239 536.879 255.239C536.479 255.239 536.145 255.331 535.878 255.516C535.614 255.697 535.482 255.929 535.482 256.21C535.482 256.46 535.572 256.658 535.754 256.803C535.936 256.947 536.22 257.068 536.607 257.165L537.578 257.403C538.163 257.545 538.599 257.763 538.886 258.055C539.173 258.345 539.317 258.719 539.317 259.176C539.317 259.551 539.209 259.886 538.993 260.182C538.78 260.477 538.482 260.71 538.098 260.881C537.714 261.051 537.268 261.136 536.76 261.136C536.092 261.136 535.54 260.991 535.102 260.702C534.665 260.412 534.388 259.989 534.271 259.432L535.226 259.193C535.317 259.545 535.489 259.81 535.741 259.986C535.997 260.162 536.331 260.25 536.743 260.25C537.212 260.25 537.584 260.151 537.859 259.952C538.138 259.75 538.277 259.509 538.277 259.227C538.277 259 538.197 258.81 538.038 258.656C537.879 258.5 537.635 258.384 537.305 258.307L536.214 258.051C535.615 257.909 535.175 257.689 534.893 257.391C534.615 257.089 534.476 256.713 534.476 256.261C534.476 255.892 534.58 255.565 534.787 255.281C534.997 254.997 535.283 254.774 535.643 254.612C536.007 254.45 536.419 254.369 536.879 254.369C537.527 254.369 538.036 254.511 538.405 254.795C538.777 255.08 539.041 255.455 539.197 255.92Z" fill="black"/>
<circle cx="495.5" cy="257.5" r="4.5" fill="#90BE6D"/>
<path d="M513.83 229.455C513.778 229.023 513.571 228.688 513.207 228.449C512.844 228.21 512.398 228.091 511.869 228.091C511.483 228.091 511.145 228.153 510.855 228.278C510.568 228.403 510.344 228.575 510.182 228.794C510.023 229.013 509.943 229.261 509.943 229.54C509.943 229.773 509.999 229.973 510.109 230.141C510.223 230.305 510.368 230.443 510.544 230.554C510.72 230.662 510.905 230.751 511.098 230.822C511.291 230.891 511.469 230.946 511.631 230.989L512.517 231.227C512.744 231.287 512.997 231.369 513.276 231.474C513.557 231.58 513.825 231.723 514.081 231.905C514.339 232.084 514.553 232.314 514.72 232.595C514.888 232.876 514.972 233.222 514.972 233.631C514.972 234.102 514.848 234.528 514.601 234.909C514.357 235.29 513.999 235.592 513.527 235.817C513.058 236.041 512.489 236.153 511.818 236.153C511.193 236.153 510.652 236.053 510.195 235.851C509.74 235.649 509.382 235.368 509.121 235.007C508.862 234.646 508.716 234.227 508.682 233.75H509.773C509.801 234.08 509.912 234.352 510.105 234.568C510.301 234.781 510.548 234.94 510.847 235.045C511.148 235.148 511.472 235.199 511.818 235.199C512.222 235.199 512.584 235.134 512.905 235.003C513.226 234.869 513.48 234.685 513.668 234.449C513.855 234.21 513.949 233.932 513.949 233.614C513.949 233.324 513.868 233.088 513.706 232.906C513.544 232.724 513.331 232.577 513.067 232.463C512.803 232.349 512.517 232.25 512.21 232.165L511.136 231.858C510.455 231.662 509.915 231.382 509.517 231.018C509.119 230.655 508.92 230.179 508.92 229.591C508.92 229.102 509.053 228.676 509.317 228.312C509.584 227.946 509.942 227.662 510.391 227.46C510.842 227.256 511.347 227.153 511.903 227.153C512.466 227.153 512.966 227.254 513.403 227.456C513.841 227.655 514.188 227.928 514.443 228.274C514.702 228.621 514.838 229.014 514.852 229.455H513.83ZM517.578 232.062V236H516.573V227.273H517.578V230.477H517.664C517.817 230.139 518.047 229.871 518.354 229.672C518.664 229.47 519.076 229.369 519.59 229.369C520.036 229.369 520.426 229.459 520.762 229.638C521.097 229.814 521.357 230.085 521.542 230.452C521.729 230.815 521.823 231.278 521.823 231.841V236H520.817V231.909C520.817 231.389 520.682 230.987 520.412 230.703C520.145 230.416 519.775 230.273 519.3 230.273C518.971 230.273 518.675 230.342 518.414 230.482C518.155 230.621 517.951 230.824 517.8 231.091C517.652 231.358 517.578 231.682 517.578 232.062ZM523.663 236V229.455H524.668V236H523.663ZM524.174 228.364C523.978 228.364 523.809 228.297 523.667 228.163C523.528 228.03 523.458 227.869 523.458 227.682C523.458 227.494 523.528 227.334 523.667 227.2C523.809 227.067 523.978 227 524.174 227C524.37 227 524.538 227.067 524.677 227.2C524.819 227.334 524.89 227.494 524.89 227.682C524.89 227.869 524.819 228.03 524.677 228.163C524.538 228.297 524.37 228.364 524.174 228.364ZM526.51 236V229.455H527.482V230.443H527.55C527.669 230.119 527.885 229.857 528.198 229.655C528.51 229.453 528.863 229.352 529.255 229.352C529.328 229.352 529.421 229.354 529.532 229.357C529.642 229.359 529.726 229.364 529.783 229.369V230.392C529.749 230.384 529.671 230.371 529.549 230.354C529.429 230.334 529.303 230.324 529.169 230.324C528.851 230.324 528.567 230.391 528.317 230.524C528.07 230.655 527.874 230.837 527.729 231.07C527.587 231.3 527.516 231.562 527.516 231.858V236H526.51ZM534.232 229.455V230.307H530.84V229.455H534.232ZM531.828 227.886H532.834V234.125C532.834 234.409 532.875 234.622 532.958 234.764C533.043 234.903 533.151 234.997 533.282 235.045C533.415 235.091 533.556 235.114 533.703 235.114C533.814 235.114 533.905 235.108 533.976 235.097C534.047 235.082 534.104 235.071 534.147 235.062L534.351 235.966C534.283 235.991 534.188 236.017 534.066 236.043C533.944 236.071 533.789 236.085 533.601 236.085C533.317 236.085 533.039 236.024 532.766 235.902C532.496 235.78 532.272 235.594 532.093 235.344C531.917 235.094 531.828 234.778 531.828 234.398V227.886ZM540.264 230.92L539.36 231.176C539.304 231.026 539.22 230.879 539.109 230.737C539.001 230.592 538.853 230.473 538.666 230.379C538.478 230.286 538.238 230.239 537.946 230.239C537.545 230.239 537.211 230.331 536.944 230.516C536.68 230.697 536.548 230.929 536.548 231.21C536.548 231.46 536.639 231.658 536.821 231.803C537.002 231.947 537.287 232.068 537.673 232.165L538.645 232.403C539.23 232.545 539.666 232.763 539.953 233.055C540.24 233.345 540.383 233.719 540.383 234.176C540.383 234.551 540.275 234.886 540.059 235.182C539.846 235.477 539.548 235.71 539.164 235.881C538.781 236.051 538.335 236.136 537.826 236.136C537.159 236.136 536.606 235.991 536.169 235.702C535.731 235.412 535.454 234.989 535.338 234.432L536.292 234.193C536.383 234.545 536.555 234.81 536.808 234.986C537.064 235.162 537.397 235.25 537.809 235.25C538.278 235.25 538.65 235.151 538.926 234.952C539.204 234.75 539.343 234.509 539.343 234.227C539.343 234 539.264 233.81 539.105 233.656C538.946 233.5 538.701 233.384 538.372 233.307L537.281 233.051C536.681 232.909 536.241 232.689 535.96 232.391C535.681 232.089 535.542 231.713 535.542 231.261C535.542 230.892 535.646 230.565 535.853 230.281C536.064 229.997 536.349 229.774 536.71 229.612C537.074 229.45 537.485 229.369 537.946 229.369C538.593 229.369 539.102 229.511 539.471 229.795C539.843 230.08 540.108 230.455 540.264 230.92Z" fill="black"/>
<circle cx="495.5" cy="232.5" r="4.5" fill="#F3722C"/>
<defs>
<filter id="filter0_d_1257_3284" x="0" y="0" width="632" height="491" filterUnits="userSpaceOnUse" color-interpolation-filters="sRGB">
<feFlood flood-opacity="0" result="BackgroundImageFix"/>
<feColorMatrix in="SourceAlpha" type="matrix" values="0 0 0 0 0 0 0 0 0 0 0 0 0 0 0 0 0 0 127 0" result="hardAlpha"/>
<feOffset/>
<feGaussianBlur stdDeviation="6"/>
<feComposite in2="hardAlpha" operator="out"/>
<feColorMatrix type="matrix" values="0 0 0 0 0 0 0 0 0 0 0 0 0 0 0 0 0 0 0.16 0"/>
<feBlend mode="normal" in2="BackgroundImageFix" result="effect1_dropShadow_1257_3284"/>
<feBlend mode="normal" in="SourceGraphic" in2="effect1_dropShadow_1257_3284" result="shape"/>
</filter>
</defs>
</svg>
