<svg width="381" height="467" viewBox="0 0 381 467" fill="none" xmlns="http://www.w3.org/2000/svg">
<g filter="url(#filter0_d_1202_3424)">
<rect x="27.6914" y="18.9893" width="326.132" height="410.868" rx="9.05494" fill="#FDFDFD" shape-rendering="crispEdges"/>
<path d="M56.4833 67.1816V52.3645H61.7648C62.9176 52.3645 63.8726 52.5743 64.6299 52.9939C65.3871 53.4135 65.9539 53.9875 66.3301 54.7158C66.7063 55.4393 66.8944 56.2545 66.8944 57.1612C66.8944 58.0728 66.7039 58.8928 66.3229 59.6211C65.9467 60.3446 65.3775 60.9186 64.6154 61.343C63.8582 61.7627 62.9056 61.9725 61.7576 61.9725H58.1257V60.0769H61.555C62.2834 60.0769 62.8742 59.9515 63.3276 59.7007C63.781 59.4451 64.1138 59.0978 64.326 58.6589C64.5382 58.2199 64.6444 57.7207 64.6444 57.1612C64.6444 56.6017 64.5382 56.1049 64.326 55.6708C64.1138 55.2367 63.7786 54.8967 63.3204 54.6507C62.867 54.4047 62.2689 54.2817 61.5261 54.2817H58.7189V67.1816H56.4833ZM69.3417 67.1816V56.0688H71.4326V57.8341H71.5483C71.7509 57.236 72.1078 56.7657 72.6191 56.4233C73.1352 56.076 73.7188 55.9023 74.3699 55.9023C74.505 55.9023 74.6642 55.9072 74.8475 55.9168C75.0356 55.9265 75.1827 55.9385 75.2888 55.953V58.0222C75.202 57.9981 75.0476 57.9715 74.8257 57.9426C74.6039 57.9088 74.382 57.892 74.1601 57.892C73.6489 57.892 73.1931 58.0005 72.7927 58.2175C72.3972 58.4298 72.0837 58.7264 71.8522 59.1074C71.6207 59.4837 71.5049 59.9129 71.5049 60.3953V67.1816H69.3417ZM81.4439 67.4059C80.4021 67.4059 79.4929 67.1672 78.7163 66.6897C77.9398 66.2122 77.3369 65.5441 76.9076 64.6856C76.4783 63.827 76.2637 62.8238 76.2637 61.6758C76.2637 60.5231 76.4783 59.515 76.9076 58.6516C77.3369 57.7883 77.9398 57.1178 78.7163 56.6403C79.4929 56.1628 80.4021 55.9241 81.4439 55.9241C82.4858 55.9241 83.3949 56.1628 84.1715 56.6403C84.948 57.1178 85.551 57.7883 85.9802 58.6516C86.4095 59.515 86.6241 60.5231 86.6241 61.6758C86.6241 62.8238 86.4095 63.827 85.9802 64.6856C85.551 65.5441 84.948 66.2122 84.1715 66.6897C83.3949 67.1672 82.4858 67.4059 81.4439 67.4059ZM81.4512 65.59C82.1264 65.59 82.6859 65.4115 83.1297 65.0546C83.5734 64.6976 83.9014 64.2225 84.1136 63.6293C84.3307 63.036 84.4392 62.3825 84.4392 61.6686C84.4392 60.9596 84.3307 60.3084 84.1136 59.7152C83.9014 59.1171 83.5734 58.6372 83.1297 58.2754C82.6859 57.9137 82.1264 57.7328 81.4512 57.7328C80.7711 57.7328 80.2067 57.9137 79.7582 58.2754C79.3144 58.6372 78.984 59.1171 78.767 59.7152C78.5548 60.3084 78.4486 60.9596 78.4486 61.6686C78.4486 62.3825 78.5548 63.036 78.767 63.6293C78.984 64.2225 79.3144 64.6976 79.7582 65.0546C80.2067 65.4115 80.7711 65.59 81.4512 65.59ZM93.1989 67.3987C92.3018 67.3987 91.5011 67.1696 90.7969 66.7114C90.0975 66.2483 89.5477 65.59 89.1473 64.7362C88.7518 63.8777 88.5541 62.8479 88.5541 61.6469C88.5541 60.4459 88.7542 59.4185 89.1546 58.5648C89.5597 57.7111 90.1144 57.0575 90.8186 56.6041C91.5228 56.1507 92.3211 55.9241 93.2134 55.9241C93.9031 55.9241 94.4578 56.0398 94.8774 56.2713C95.3019 56.498 95.6299 56.7633 95.8614 57.0672C96.0977 57.371 96.281 57.6387 96.4112 57.8703H96.5415V52.3645H98.7047V67.1816H96.5921V65.4525H96.4112C96.281 65.6888 96.0929 65.9589 95.8469 66.2628C95.6057 66.5667 95.2729 66.832 94.8485 67.0586C94.424 67.2853 93.8742 67.3987 93.1989 67.3987ZM93.6764 65.5538C94.2986 65.5538 94.8244 65.3898 95.2536 65.0618C95.6877 64.729 96.0157 64.2684 96.2376 63.6799C96.4643 63.0915 96.5776 62.4066 96.5776 61.6252C96.5776 60.8535 96.4667 60.1782 96.2448 59.5994C96.023 59.0206 95.6974 58.5696 95.2681 58.2465C94.8388 57.9233 94.3083 57.7617 93.6764 57.7617C93.0253 57.7617 92.4827 57.9305 92.0486 58.2682C91.6145 58.6058 91.2865 59.0664 91.0646 59.6501C90.8476 60.2337 90.739 60.8921 90.739 61.6252C90.739 62.368 90.85 63.036 91.0718 63.6293C91.2937 64.2225 91.6217 64.6928 92.0558 65.0401C92.4947 65.3825 93.0349 65.5538 93.6764 65.5538ZM108.832 62.573V56.0688H111.002V67.1816H108.875V65.2571H108.759C108.504 65.8504 108.094 66.3448 107.53 66.7403C106.97 67.131 106.273 67.3263 105.439 67.3263C104.725 67.3263 104.093 67.1696 103.543 66.8561C102.998 66.5377 102.569 66.0675 102.255 65.4453C101.947 64.823 101.792 64.0537 101.792 63.1373V56.0688H103.955V62.8768C103.955 63.6341 104.165 64.237 104.585 64.6856C105.005 65.1341 105.55 65.3584 106.22 65.3584C106.625 65.3584 107.028 65.2571 107.428 65.0546C107.833 64.852 108.169 64.5457 108.434 64.1357C108.704 63.7257 108.837 63.2048 108.832 62.573ZM118.59 67.4059C117.514 67.4059 116.588 67.1623 115.812 66.6752C115.04 66.1832 114.447 65.5055 114.032 64.6422C113.617 63.7788 113.41 62.79 113.41 61.6758C113.41 60.5472 113.622 59.5512 114.046 58.6878C114.471 57.8196 115.069 57.1419 115.841 56.6548C116.612 56.1676 117.522 55.9241 118.568 55.9241C119.412 55.9241 120.165 56.0808 120.826 56.3943C121.486 56.703 122.019 57.1371 122.424 57.6966C122.834 58.2561 123.078 58.9097 123.155 59.6573H121.05C120.934 59.1364 120.669 58.6878 120.254 58.3116C119.844 57.9354 119.294 57.7473 118.604 57.7473C118.002 57.7473 117.473 57.9064 117.02 58.2248C116.571 58.5383 116.222 58.9869 115.971 59.5705C115.72 60.1493 115.595 60.8342 115.595 61.6252C115.595 62.4355 115.718 63.1349 115.964 63.7233C116.21 64.3118 116.557 64.7676 117.006 65.0907C117.459 65.4139 117.992 65.5755 118.604 65.5755C119.014 65.5755 119.386 65.5007 119.719 65.3512C120.056 65.1969 120.338 64.9774 120.565 64.6928C120.797 64.4082 120.958 64.0658 121.05 63.6655H123.155C123.078 64.3841 122.844 65.0256 122.453 65.59C122.063 66.1543 121.539 66.598 120.883 66.9212C120.232 67.2443 119.468 67.4059 118.59 67.4059ZM130.656 56.0688V57.8051H124.586V56.0688H130.656ZM126.214 53.4063H128.377V63.9187C128.377 64.3383 128.44 64.6542 128.565 64.8665C128.691 65.0739 128.852 65.2161 129.05 65.2933C129.252 65.3657 129.472 65.4018 129.708 65.4018C129.882 65.4018 130.034 65.3898 130.164 65.3657C130.294 65.3416 130.396 65.3223 130.468 65.3078L130.859 67.0948C130.733 67.1431 130.555 67.1913 130.323 67.2395C130.092 67.2926 129.802 67.3215 129.455 67.3263C128.886 67.336 128.355 67.2347 127.863 67.0225C127.371 66.8102 126.973 66.4823 126.67 66.0385C126.366 65.5948 126.214 65.0377 126.214 64.3672V53.4063ZM133.049 67.1816V56.0688H135.212V67.1816H133.049ZM134.142 54.3541C133.765 54.3541 133.442 54.2287 133.172 53.9779C132.907 53.7222 132.774 53.4183 132.774 53.0662C132.774 52.7093 132.907 52.4055 133.172 52.1546C133.442 51.899 133.765 51.7712 134.142 51.7712C134.518 51.7712 134.838 51.899 135.104 52.1546C135.374 52.4055 135.509 52.7093 135.509 53.0662C135.509 53.4183 135.374 53.7222 135.104 53.9779C134.838 54.2287 134.518 54.3541 134.142 54.3541ZM142.804 67.4059C141.762 67.4059 140.853 67.1672 140.076 66.6897C139.299 66.2122 138.697 65.5441 138.267 64.6856C137.838 63.827 137.623 62.8238 137.623 61.6758C137.623 60.5231 137.838 59.515 138.267 58.6516C138.697 57.7883 139.299 57.1178 140.076 56.6403C140.853 56.1628 141.762 55.9241 142.804 55.9241C143.845 55.9241 144.755 56.1628 145.531 56.6403C146.308 57.1178 146.911 57.7883 147.34 58.6516C147.769 59.515 147.984 60.5231 147.984 61.6758C147.984 62.8238 147.769 63.827 147.34 64.6856C146.911 65.5441 146.308 66.2122 145.531 66.6897C144.755 67.1672 143.845 67.4059 142.804 67.4059ZM142.811 65.59C143.486 65.59 144.046 65.4115 144.489 65.0546C144.933 64.6976 145.261 64.2225 145.473 63.6293C145.69 63.036 145.799 62.3825 145.799 61.6686C145.799 60.9596 145.69 60.3084 145.473 59.7152C145.261 59.1171 144.933 58.6372 144.489 58.2754C144.046 57.9137 143.486 57.7328 142.811 57.7328C142.131 57.7328 141.566 57.9137 141.118 58.2754C140.674 58.6372 140.344 59.1171 140.127 59.7152C139.914 60.3084 139.808 60.9596 139.808 61.6686C139.808 62.3825 139.914 63.036 140.127 63.6293C140.344 64.2225 140.674 64.6976 141.118 65.0546C141.566 65.4115 142.131 65.59 142.811 65.59ZM152.562 60.5834V67.1816H150.398V56.0688H152.475V57.8775H152.612C152.868 57.289 153.268 56.8164 153.813 56.4594C154.363 56.1025 155.055 55.9241 155.89 55.9241C156.647 55.9241 157.31 56.0832 157.879 56.4016C158.449 56.7151 158.89 57.1829 159.203 57.8051C159.517 58.4273 159.674 59.1967 159.674 60.1131V67.1816H157.51V60.3736C157.51 59.5681 157.301 58.9386 156.881 58.4852C156.461 58.027 155.885 57.7979 155.152 57.7979C154.65 57.7979 154.204 57.9064 153.813 58.1235C153.427 58.3405 153.121 58.6589 152.895 59.0785C152.673 59.4933 152.562 59.9949 152.562 60.5834Z" fill="#656575"/>
<rect x="267.646" y="46.1543" width="58.8571" height="28.0549" rx="2.26374" fill="#F8F7F1"/>
<path d="M278.975 55.8646V54.8035H286.384V55.8646H283.278V64.6816H282.082V55.8646H278.975ZM290.011 64.836C289.342 64.836 288.755 64.6768 288.251 64.3585C287.749 64.0401 287.357 63.5948 287.074 63.0224C286.794 62.4501 286.654 61.7812 286.654 61.0159C286.654 60.2442 286.794 59.5705 287.074 58.995C287.357 58.4194 287.749 57.9724 288.251 57.6541C288.755 57.3358 289.342 57.1766 290.011 57.1766C290.68 57.1766 291.265 57.3358 291.767 57.6541C292.272 57.9724 292.664 58.4194 292.944 58.995C293.227 59.5705 293.368 60.2442 293.368 61.0159C293.368 61.7812 293.227 62.4501 292.944 63.0224C292.664 63.5948 292.272 64.0401 291.767 64.3585C291.265 64.6768 290.68 64.836 290.011 64.836ZM290.011 63.8134C290.519 63.8134 290.937 63.6832 291.265 63.4228C291.593 63.1623 291.836 62.8198 291.993 62.3954C292.151 61.9709 292.23 61.5111 292.23 61.0159C292.23 60.5207 292.151 60.0593 291.993 59.6316C291.836 59.204 291.593 58.8583 291.265 58.5946C290.937 58.331 290.519 58.1991 290.011 58.1991C289.503 58.1991 289.085 58.331 288.757 58.5946C288.429 58.8583 288.186 59.204 288.029 59.6316C287.871 60.0593 287.792 60.5207 287.792 61.0159C287.792 61.5111 287.871 61.9709 288.029 62.3954C288.186 62.8198 288.429 63.1623 288.757 63.4228C289.085 63.6832 289.503 63.8134 290.011 63.8134ZM297.903 64.836C297.286 64.836 296.741 64.68 296.268 64.3681C295.795 64.053 295.426 63.6093 295.159 63.0369C294.892 62.4613 294.758 61.7812 294.758 60.9966C294.758 60.2185 294.892 59.5432 295.159 58.9709C295.426 58.3985 295.797 57.9564 296.273 57.6444C296.749 57.3325 297.299 57.1766 297.922 57.1766C298.405 57.1766 298.786 57.257 299.066 57.4177C299.349 57.5753 299.564 57.7554 299.712 57.958C299.863 58.1573 299.98 58.3213 300.064 58.4499H300.161V54.8035H301.299V64.6816H300.199V63.5433H300.064C299.98 63.6784 299.861 63.8488 299.707 64.0546C299.553 64.2572 299.333 64.4389 299.046 64.5996C298.76 64.7572 298.379 64.836 297.903 64.836ZM298.058 63.8134C298.514 63.8134 298.9 63.6945 299.215 63.4565C299.53 63.2154 299.77 62.8825 299.934 62.4581C300.098 62.0304 300.18 61.5368 300.18 60.9773C300.18 60.4243 300.099 59.9403 299.939 59.5255C299.778 59.1075 299.54 58.7827 299.225 58.5512C298.91 58.3165 298.521 58.1991 298.058 58.1991C297.575 58.1991 297.173 58.3229 296.852 58.5705C296.533 58.8149 296.294 59.1477 296.133 59.5689C295.975 59.987 295.897 60.4564 295.897 60.9773C295.897 61.5047 295.977 61.9838 296.138 62.4147C296.302 62.8424 296.543 63.1832 296.861 63.4372C297.183 63.688 297.582 63.8134 298.058 63.8134ZM305.722 64.8553C305.252 64.8553 304.826 64.7669 304.444 64.59C304.061 64.4099 303.757 64.1511 303.532 63.8134C303.307 63.4726 303.194 63.061 303.194 62.5787C303.194 62.1542 303.278 61.8102 303.445 61.5465C303.612 61.2796 303.836 61.0706 304.116 60.9195C304.395 60.7683 304.704 60.6558 305.042 60.5818C305.383 60.5047 305.725 60.4436 306.069 60.3985C306.519 60.3407 306.884 60.2973 307.164 60.2683C307.447 60.2362 307.653 60.1831 307.781 60.1092C307.913 60.0352 307.979 59.9066 307.979 59.7233V59.6847C307.979 59.2088 307.849 58.839 307.588 58.5753C307.331 58.3117 306.94 58.1798 306.416 58.1798C305.873 58.1798 305.447 58.2988 305.138 58.5368C304.829 58.7747 304.612 59.0287 304.487 59.2988L303.407 58.913C303.6 58.4628 303.857 58.1123 304.178 57.8615C304.503 57.6075 304.857 57.4306 305.239 57.3309C305.625 57.228 306.005 57.1766 306.378 57.1766C306.616 57.1766 306.889 57.2055 307.198 57.2634C307.51 57.3181 307.81 57.4322 308.1 57.6059C308.392 57.7795 308.635 58.0416 308.828 58.3921C309.021 58.7425 309.117 59.212 309.117 59.8005V64.6816H307.979V63.6784H307.921C307.844 63.8392 307.715 64.0112 307.535 64.1945C307.355 64.3778 307.116 64.5337 306.817 64.6623C306.518 64.791 306.153 64.8553 305.722 64.8553ZM305.895 63.8327C306.346 63.8327 306.725 63.7443 307.034 63.5675C307.346 63.3906 307.58 63.1623 307.738 62.8825C307.899 62.6028 307.979 62.3086 307.979 61.9999V60.9581C307.931 61.0159 307.825 61.069 307.661 61.1172C307.5 61.1622 307.313 61.2024 307.101 61.2378C306.892 61.27 306.688 61.2989 306.489 61.3246C306.293 61.3471 306.133 61.3664 306.011 61.3825C305.715 61.4211 305.439 61.4838 305.182 61.5706C304.928 61.6542 304.722 61.7812 304.564 61.9517C304.41 62.1189 304.333 62.3472 304.333 62.6366C304.333 63.0321 304.479 63.3311 304.772 63.5337C305.067 63.7331 305.442 63.8327 305.895 63.8327ZM311.663 67.4599C311.47 67.4599 311.298 67.4438 311.147 67.4116C310.996 67.3827 310.891 67.3537 310.833 67.3248L311.123 66.3216C311.399 66.3923 311.644 66.418 311.856 66.3987C312.068 66.3794 312.256 66.2846 312.42 66.1142C312.587 65.947 312.74 65.6752 312.878 65.299L313.091 64.7202L310.351 57.273H311.586L313.631 63.1768H313.708L315.753 57.273H316.988L313.843 65.7621C313.702 66.1447 313.526 66.4614 313.317 66.7123C313.108 66.9663 312.865 67.1544 312.589 67.2766C312.316 67.3988 312.007 67.4599 311.663 67.4599Z" fill="#656575"/>
<path d="M273.384 190.791C273.384 236.425 236.391 273.418 190.757 273.418C145.124 273.418 108.131 236.425 108.131 190.791C108.131 145.158 145.124 108.165 190.757 108.165C236.391 108.165 273.384 145.158 273.384 190.791ZM131.266 190.791C131.266 223.647 157.901 250.282 190.757 250.282C223.613 250.282 250.248 223.647 250.248 190.791C250.248 157.935 223.613 131.3 190.757 131.3C157.901 131.3 131.266 157.935 131.266 190.791Z" fill="#A3A3A3"/>
<path d="M147.066 120.662C132.256 129.888 120.747 143.567 114.189 159.736C107.631 175.906 106.36 193.737 110.559 210.673C114.757 227.609 124.21 242.782 137.561 254.016C150.913 265.25 167.478 271.968 184.883 273.209L186.528 250.132C173.996 249.239 162.069 244.401 152.456 236.313C142.843 228.225 136.037 217.3 133.014 205.106C129.991 192.912 130.906 180.074 135.628 168.432C140.35 156.79 148.636 146.941 159.299 140.298L147.066 120.662Z" fill="#FF2727"/>
<path d="M249.183 132.366C235.853 119.036 218.365 110.665 199.622 108.642C180.88 106.619 162.009 111.067 146.142 121.246L158.634 140.719C170.058 133.39 183.645 130.188 197.14 131.644C210.635 133.1 223.226 139.127 232.824 148.725L249.183 132.366Z" fill="#52C93F"/>
<path d="M156.215 265.851C175.295 274.631 197.002 275.816 216.923 269.165C236.845 262.514 253.486 248.526 263.464 230.045C273.442 211.563 276.007 189.976 270.639 169.671C265.27 149.366 252.37 131.867 234.562 120.733L222.297 140.349C235.119 148.366 244.406 160.965 248.272 175.585C252.137 190.204 250.29 205.747 243.106 219.054C235.922 232.36 223.941 242.432 209.597 247.221C195.253 252.009 179.624 251.156 165.887 244.834L156.215 265.851Z" fill="#006AFF"/>
<circle cx="63.9104" cy="314.583" r="9.05494" fill="#006AFF"/>
<path d="M87.4215 308.827V307.412H97.2996V308.827H93.158V320.583H91.5631V308.827H87.4215ZM102.136 320.789C101.244 320.789 100.462 320.577 99.7884 320.152C99.1196 319.728 98.5966 319.134 98.2193 318.371C97.8463 317.608 97.6598 316.716 97.6598 315.695C97.6598 314.666 97.8463 313.768 98.2193 313.001C98.5966 312.233 99.1196 311.637 99.7884 311.213C100.462 310.788 101.244 310.576 102.136 310.576C103.028 310.576 103.808 310.788 104.477 311.213C105.15 311.637 105.673 312.233 106.046 313.001C106.423 313.768 106.612 314.666 106.612 315.695C106.612 316.716 106.423 317.608 106.046 318.371C105.673 319.134 105.15 319.728 104.477 320.152C103.808 320.577 103.028 320.789 102.136 320.789ZM102.136 319.425C102.813 319.425 103.371 319.252 103.808 318.904C104.245 318.557 104.569 318.101 104.779 317.535C104.989 316.969 105.094 316.356 105.094 315.695C105.094 315.035 104.989 314.42 104.779 313.85C104.569 313.279 104.245 312.819 103.808 312.467C103.371 312.115 102.813 311.94 102.136 311.94C101.458 311.94 100.901 312.115 100.464 312.467C100.026 312.819 99.7027 313.279 99.4926 313.85C99.2825 314.42 99.1775 315.035 99.1775 315.695C99.1775 316.356 99.2825 316.969 99.4926 317.535C99.7027 318.101 100.026 318.557 100.464 318.904C100.901 319.252 101.458 319.425 102.136 319.425ZM113.225 310.705V311.991H108.105V310.705H113.225ZM109.597 308.338H111.115V317.753C111.115 318.182 111.177 318.504 111.302 318.718C111.43 318.928 111.593 319.07 111.79 319.142C111.992 319.211 112.204 319.245 112.427 319.245C112.594 319.245 112.732 319.237 112.839 319.22C112.946 319.198 113.032 319.181 113.096 319.168L113.405 320.532C113.302 320.57 113.158 320.609 112.974 320.647C112.789 320.69 112.556 320.712 112.273 320.712C111.844 320.712 111.424 320.619 111.012 320.435C110.605 320.251 110.266 319.97 109.996 319.593C109.73 319.215 109.597 318.739 109.597 318.165V308.338ZM118.414 320.815C117.788 320.815 117.22 320.697 116.71 320.461C116.2 320.221 115.795 319.876 115.495 319.425C115.195 318.971 115.045 318.422 115.045 317.779C115.045 317.213 115.156 316.754 115.379 316.403C115.602 316.047 115.9 315.768 116.273 315.567C116.646 315.365 117.057 315.215 117.508 315.117C117.962 315.014 118.419 314.932 118.877 314.872C119.478 314.795 119.964 314.737 120.337 314.699C120.715 314.656 120.989 314.585 121.16 314.486C121.336 314.388 121.424 314.216 121.424 313.972V313.92C121.424 313.286 121.251 312.793 120.903 312.441C120.56 312.09 120.039 311.914 119.341 311.914C118.616 311.914 118.048 312.073 117.636 312.39C117.225 312.707 116.935 313.046 116.768 313.406L115.328 312.891C115.585 312.291 115.928 311.824 116.356 311.489C116.79 311.151 117.261 310.915 117.771 310.782C118.286 310.645 118.792 310.576 119.289 310.576C119.606 310.576 119.971 310.615 120.382 310.692C120.798 310.765 121.199 310.917 121.585 311.149C121.975 311.38 122.299 311.73 122.556 312.197C122.813 312.664 122.942 313.29 122.942 314.075V320.583H121.424V319.245H121.347C121.244 319.46 121.073 319.689 120.833 319.933C120.592 320.178 120.273 320.386 119.874 320.557C119.476 320.729 118.989 320.815 118.414 320.815ZM118.646 319.451C119.246 319.451 119.752 319.333 120.164 319.097C120.58 318.862 120.893 318.557 121.103 318.184C121.317 317.811 121.424 317.419 121.424 317.007V315.618C121.36 315.695 121.218 315.766 121 315.83C120.785 315.89 120.537 315.944 120.254 315.991C119.975 316.034 119.703 316.073 119.437 316.107C119.175 316.137 118.963 316.163 118.8 316.184C118.406 316.236 118.037 316.319 117.694 316.435C117.355 316.546 117.081 316.716 116.871 316.943C116.665 317.166 116.562 317.47 116.562 317.856C116.562 318.384 116.757 318.782 117.148 319.052C117.542 319.318 118.041 319.451 118.646 319.451ZM127.23 307.412V320.583H125.712V307.412H127.23ZM135.309 320.583V307.412H139.759C140.792 307.412 141.637 307.599 142.293 307.972C142.953 308.34 143.442 308.84 143.759 309.47C144.077 310.1 144.235 310.803 144.235 311.58C144.235 312.356 144.077 313.061 143.759 313.695C143.446 314.33 142.962 314.836 142.306 315.213C141.65 315.586 140.81 315.773 139.785 315.773H136.595V314.358H139.733C140.441 314.358 141.009 314.236 141.438 313.991C141.866 313.747 142.177 313.417 142.37 313.001C142.567 312.581 142.666 312.107 142.666 311.58C142.666 311.052 142.567 310.581 142.37 310.165C142.177 309.749 141.864 309.423 141.431 309.187C140.998 308.947 140.424 308.827 139.708 308.827H136.904V320.583H135.309ZM146.599 320.583V310.705H148.065V312.197H148.168C148.348 311.708 148.674 311.312 149.145 311.007C149.617 310.703 150.149 310.551 150.74 310.551C150.852 310.551 150.991 310.553 151.158 310.557C151.325 310.561 151.452 310.568 151.538 310.576V312.12C151.486 312.107 151.368 312.088 151.184 312.062C151.004 312.032 150.813 312.017 150.612 312.017C150.131 312.017 149.703 312.118 149.325 312.319C148.952 312.516 148.657 312.791 148.438 313.142C148.224 313.49 148.116 313.886 148.116 314.332V320.583H146.599ZM157.049 320.789C156.157 320.789 155.375 320.577 154.702 320.152C154.033 319.728 153.51 319.134 153.133 318.371C152.76 317.608 152.573 316.716 152.573 315.695C152.573 314.666 152.76 313.768 153.133 313.001C153.51 312.233 154.033 311.637 154.702 311.213C155.375 310.788 156.157 310.576 157.049 310.576C157.941 310.576 158.721 310.788 159.39 311.213C160.063 311.637 160.586 312.233 160.959 313.001C161.336 313.768 161.525 314.666 161.525 315.695C161.525 316.716 161.336 317.608 160.959 318.371C160.586 319.134 160.063 319.728 159.39 320.152C158.721 320.577 157.941 320.789 157.049 320.789ZM157.049 319.425C157.726 319.425 158.284 319.252 158.721 318.904C159.158 318.557 159.482 318.101 159.692 317.535C159.902 316.969 160.007 316.356 160.007 315.695C160.007 315.035 159.902 314.42 159.692 313.85C159.482 313.279 159.158 312.819 158.721 312.467C158.284 312.115 157.726 311.94 157.049 311.94C156.372 311.94 155.814 312.115 155.377 312.467C154.94 312.819 154.616 313.279 154.406 313.85C154.196 314.42 154.091 315.035 154.091 315.695C154.091 316.356 154.196 316.969 154.406 317.535C154.616 318.101 154.94 318.557 155.377 318.904C155.814 319.252 156.372 319.425 157.049 319.425ZM167.572 320.789C166.749 320.789 166.022 320.581 165.392 320.165C164.762 319.745 164.268 319.153 163.913 318.39C163.557 317.623 163.379 316.716 163.379 315.67C163.379 314.632 163.557 313.732 163.913 312.969C164.268 312.205 164.764 311.616 165.398 311.2C166.033 310.784 166.766 310.576 167.598 310.576C168.241 310.576 168.749 310.683 169.122 310.898C169.499 311.108 169.786 311.348 169.984 311.618C170.185 311.884 170.342 312.103 170.453 312.274H170.582V307.412H172.099V320.583H170.633V319.065H170.453C170.342 319.245 170.183 319.473 169.977 319.747C169.771 320.017 169.478 320.259 169.096 320.474C168.714 320.684 168.206 320.789 167.572 320.789ZM167.778 319.425C168.387 319.425 168.901 319.267 169.321 318.95C169.741 318.628 170.061 318.184 170.279 317.618C170.498 317.048 170.607 316.39 170.607 315.644C170.607 314.907 170.5 314.261 170.286 313.708C170.071 313.151 169.754 312.718 169.334 312.409C168.914 312.096 168.395 311.94 167.778 311.94C167.135 311.94 166.599 312.105 166.17 312.435C165.745 312.761 165.426 313.204 165.212 313.766C165.002 314.323 164.897 314.949 164.897 315.644C164.897 316.347 165.004 316.986 165.218 317.56C165.437 318.131 165.758 318.585 166.183 318.924C166.612 319.258 167.143 319.425 167.778 319.425ZM181.315 316.544V310.705H182.833V320.583H181.315V318.911H181.212C180.981 319.413 180.621 319.839 180.132 320.191C179.643 320.538 179.026 320.712 178.28 320.712C177.662 320.712 177.113 320.577 176.633 320.306C176.153 320.032 175.776 319.62 175.501 319.072C175.227 318.519 175.09 317.822 175.09 316.982V310.705H176.608V316.879C176.608 317.599 176.809 318.174 177.212 318.602C177.619 319.031 178.138 319.245 178.768 319.245C179.146 319.245 179.529 319.149 179.92 318.956C180.314 318.763 180.644 318.467 180.91 318.068C181.18 317.67 181.315 317.162 181.315 316.544ZM189.626 320.789C188.7 320.789 187.902 320.57 187.233 320.133C186.564 319.696 186.05 319.093 185.69 318.326C185.33 317.558 185.15 316.681 185.15 315.695C185.15 314.692 185.334 313.807 185.703 313.039C186.076 312.268 186.594 311.665 187.259 311.232C187.928 310.795 188.708 310.576 189.6 310.576C190.294 310.576 190.92 310.705 191.478 310.962C192.035 311.219 192.492 311.58 192.848 312.043C193.203 312.506 193.424 313.046 193.51 313.663H191.992C191.877 313.213 191.619 312.814 191.221 312.467C190.826 312.115 190.294 311.94 189.626 311.94C189.034 311.94 188.515 312.094 188.069 312.403C187.628 312.707 187.283 313.138 187.034 313.695C186.79 314.248 186.667 314.898 186.667 315.644C186.667 316.407 186.787 317.072 187.028 317.638C187.272 318.204 187.615 318.643 188.056 318.956C188.502 319.269 189.025 319.425 189.626 319.425C190.02 319.425 190.378 319.357 190.7 319.22C191.021 319.082 191.293 318.885 191.516 318.628C191.739 318.371 191.898 318.062 191.992 317.702H193.51C193.424 318.285 193.212 318.81 192.873 319.278C192.539 319.741 192.095 320.109 191.542 320.384C190.993 320.654 190.355 320.789 189.626 320.789ZM200.025 310.705V311.991H194.906V310.705H200.025ZM196.398 308.338H197.915V317.753C197.915 318.182 197.977 318.504 198.102 318.718C198.23 318.928 198.393 319.07 198.591 319.142C198.792 319.211 199.004 319.245 199.227 319.245C199.394 319.245 199.532 319.237 199.639 319.22C199.746 319.198 199.832 319.181 199.896 319.168L200.205 320.532C200.102 320.57 199.958 320.609 199.774 320.647C199.59 320.69 199.356 320.712 199.073 320.712C198.644 320.712 198.224 320.619 197.812 320.435C197.405 320.251 197.066 319.97 196.796 319.593C196.53 319.215 196.398 318.739 196.398 318.165V308.338ZM202.308 320.583V310.705H203.825V320.583H202.308ZM203.079 309.059C202.784 309.059 202.529 308.958 202.314 308.756C202.104 308.555 201.999 308.313 201.999 308.03C201.999 307.747 202.104 307.504 202.314 307.303C202.529 307.101 202.784 307.001 203.079 307.001C203.375 307.001 203.628 307.101 203.838 307.303C204.053 307.504 204.16 307.747 204.16 308.03C204.16 308.313 204.053 308.555 203.838 308.756C203.628 308.958 203.375 309.059 203.079 309.059ZM210.618 320.789C209.726 320.789 208.944 320.577 208.271 320.152C207.602 319.728 207.079 319.134 206.702 318.371C206.329 317.608 206.142 316.716 206.142 315.695C206.142 314.666 206.329 313.768 206.702 313.001C207.079 312.233 207.602 311.637 208.271 311.213C208.944 310.788 209.726 310.576 210.618 310.576C211.51 310.576 212.29 310.788 212.959 311.213C213.632 311.637 214.155 312.233 214.528 313.001C214.906 313.768 215.094 314.666 215.094 315.695C215.094 316.716 214.906 317.608 214.528 318.371C214.155 319.134 213.632 319.728 212.959 320.152C212.29 320.577 211.51 320.789 210.618 320.789ZM210.618 319.425C211.296 319.425 211.853 319.252 212.29 318.904C212.728 318.557 213.051 318.101 213.261 317.535C213.472 316.969 213.577 316.356 213.577 315.695C213.577 315.035 213.472 314.42 213.261 313.85C213.051 313.279 212.728 312.819 212.29 312.467C211.853 312.115 211.296 311.94 210.618 311.94C209.941 311.94 209.384 312.115 208.946 312.467C208.509 312.819 208.185 313.279 207.975 313.85C207.765 314.42 207.66 315.035 207.66 315.695C207.66 316.356 207.765 316.969 207.975 317.535C208.185 318.101 208.509 318.557 208.946 318.904C209.384 319.252 209.941 319.425 210.618 319.425ZM218.929 314.641V320.583H217.411V310.705H218.877V312.248H219.006C219.238 311.747 219.589 311.344 220.061 311.039C220.532 310.731 221.141 310.576 221.887 310.576C222.556 310.576 223.141 310.713 223.643 310.988C224.144 311.258 224.535 311.67 224.813 312.223C225.092 312.771 225.231 313.466 225.231 314.306V320.583H223.714V314.409C223.714 313.633 223.512 313.029 223.109 312.596C222.706 312.158 222.153 311.94 221.45 311.94C220.965 311.94 220.532 312.045 220.151 312.255C219.773 312.465 219.475 312.771 219.257 313.174C219.038 313.577 218.929 314.066 218.929 314.641Z" fill="#1A1919"/>
<path d="M273.126 320.763C272.371 320.763 271.692 320.613 271.087 320.313C270.483 320.013 269.998 319.601 269.634 319.078C269.269 318.555 269.07 317.959 269.036 317.29H270.579C270.639 317.886 270.909 318.379 271.389 318.769C271.874 319.155 272.453 319.348 273.126 319.348C273.666 319.348 274.146 319.222 274.566 318.969C274.991 318.716 275.323 318.369 275.563 317.927C275.808 317.481 275.93 316.977 275.93 316.416C275.93 315.841 275.803 315.329 275.55 314.879C275.302 314.424 274.959 314.066 274.521 313.805C274.084 313.543 273.585 313.41 273.023 313.406C272.62 313.402 272.206 313.464 271.782 313.592C271.357 313.717 271.008 313.878 270.733 314.075L269.241 313.895L270.039 307.412H276.881V308.827H271.377L270.913 312.711H270.991C271.261 312.497 271.599 312.319 272.007 312.178C272.414 312.036 272.839 311.965 273.28 311.965C274.086 311.965 274.804 312.158 275.435 312.544C276.069 312.926 276.566 313.449 276.927 314.113C277.291 314.778 277.473 315.537 277.473 316.39C277.473 317.23 277.285 317.981 276.907 318.641C276.534 319.297 276.02 319.816 275.364 320.197C274.708 320.574 273.962 320.763 273.126 320.763ZM279.719 317.882V316.57L285.507 307.412H286.459V309.444H285.816L281.443 316.364V316.467H289.237V317.882H279.719ZM285.919 320.583V317.483V316.872V307.412H287.436V320.583H285.919ZM298.361 318.113V317.419C298.361 316.939 298.46 316.499 298.657 316.101C298.859 315.698 299.15 315.376 299.532 315.136C299.918 314.892 300.385 314.769 300.934 314.769C301.491 314.769 301.958 314.892 302.336 315.136C302.713 315.376 302.998 315.698 303.191 316.101C303.384 316.499 303.48 316.939 303.48 317.419V318.113C303.48 318.594 303.382 319.035 303.185 319.438C302.992 319.837 302.704 320.159 302.323 320.403C301.946 320.643 301.482 320.763 300.934 320.763C300.376 320.763 299.907 320.643 299.525 320.403C299.144 320.159 298.854 319.837 298.657 319.438C298.46 319.035 298.361 318.594 298.361 318.113ZM299.673 317.419V318.113C299.673 318.512 299.768 318.87 299.956 319.187C300.145 319.5 300.471 319.657 300.934 319.657C301.384 319.657 301.701 319.5 301.885 319.187C302.074 318.87 302.168 318.512 302.168 318.113V317.419C302.168 317.02 302.078 316.664 301.898 316.351C301.718 316.034 301.397 315.875 300.934 315.875C300.484 315.875 300.16 316.034 299.963 316.351C299.77 316.664 299.673 317.02 299.673 317.419ZM291.802 310.576V309.882C291.802 309.402 291.9 308.962 292.097 308.563C292.299 308.16 292.59 307.839 292.972 307.599C293.358 307.354 293.825 307.232 294.374 307.232C294.931 307.232 295.399 307.354 295.776 307.599C296.153 307.839 296.438 308.16 296.631 308.563C296.824 308.962 296.921 309.402 296.921 309.882V310.576C296.921 311.056 296.822 311.498 296.625 311.901C296.432 312.3 296.145 312.621 295.763 312.866C295.386 313.106 294.923 313.226 294.374 313.226C293.817 313.226 293.347 313.106 292.966 312.866C292.584 312.621 292.295 312.3 292.097 311.901C291.9 311.498 291.802 311.056 291.802 310.576ZM293.114 309.882V310.576C293.114 310.975 293.208 311.333 293.396 311.65C293.585 311.963 293.911 312.12 294.374 312.12C294.824 312.12 295.141 311.963 295.326 311.65C295.514 311.333 295.609 310.975 295.609 310.576V309.882C295.609 309.483 295.519 309.127 295.339 308.814C295.159 308.497 294.837 308.338 294.374 308.338C293.924 308.338 293.6 308.497 293.403 308.814C293.21 309.127 293.114 309.483 293.114 309.882ZM292.29 320.583L301.345 307.412H302.812L293.757 320.583H292.29Z" fill="#1A1919"/>
<path d="M317.27 320.083V312.042L314.271 315.052L312.954 313.747L318.221 308.491L323.477 313.747L322.183 315.052L319.172 312.042V320.083H317.27Z" fill="#52C93F"/>
<circle cx="63.9104" cy="351.638" r="9.05494" fill="#52C93F"/>
<path d="M87.4215 345.882V344.467H97.2996V345.882H93.158V357.638H91.5631V345.882H87.4215ZM102.136 357.843C101.244 357.843 100.462 357.631 99.7884 357.207C99.1196 356.782 98.5966 356.189 98.2193 355.425C97.8463 354.662 97.6598 353.77 97.6598 352.75C97.6598 351.721 97.8463 350.823 98.2193 350.055C98.5966 349.288 99.1196 348.692 99.7884 348.268C100.462 347.843 101.244 347.631 102.136 347.631C103.028 347.631 103.808 347.843 104.477 348.268C105.15 348.692 105.673 349.288 106.046 350.055C106.423 350.823 106.612 351.721 106.612 352.75C106.612 353.77 106.423 354.662 106.046 355.425C105.673 356.189 105.15 356.782 104.477 357.207C103.808 357.631 103.028 357.843 102.136 357.843ZM102.136 356.48C102.813 356.48 103.371 356.306 103.808 355.959C104.245 355.612 104.569 355.155 104.779 354.589C104.989 354.023 105.094 353.41 105.094 352.75C105.094 352.09 104.989 351.475 104.779 350.904C104.569 350.334 104.245 349.873 103.808 349.522C103.371 349.17 102.813 348.994 102.136 348.994C101.458 348.994 100.901 349.17 100.464 349.522C100.026 349.873 99.7027 350.334 99.4926 350.904C99.2825 351.475 99.1775 352.09 99.1775 352.75C99.1775 353.41 99.2825 354.023 99.4926 354.589C99.7027 355.155 100.026 355.612 100.464 355.959C100.901 356.306 101.458 356.48 102.136 356.48ZM113.225 347.76V349.046H108.105V347.76H113.225ZM109.597 345.393H111.115V354.808C111.115 355.237 111.177 355.558 111.302 355.773C111.43 355.983 111.593 356.124 111.79 356.197C111.992 356.266 112.204 356.3 112.427 356.3C112.594 356.3 112.732 356.291 112.839 356.274C112.946 356.253 113.032 356.236 113.096 356.223L113.405 357.586C113.302 357.625 113.158 357.663 112.974 357.702C112.789 357.745 112.556 357.766 112.273 357.766C111.844 357.766 111.424 357.674 111.012 357.49C110.605 357.305 110.266 357.025 109.996 356.647C109.73 356.27 109.597 355.794 109.597 355.22V345.393ZM118.414 357.869C117.788 357.869 117.22 357.751 116.71 357.516C116.2 357.275 115.795 356.93 115.495 356.48C115.195 356.026 115.045 355.477 115.045 354.834C115.045 354.268 115.156 353.809 115.379 353.458C115.602 353.102 115.9 352.823 116.273 352.621C116.646 352.42 117.057 352.27 117.508 352.171C117.962 352.068 118.419 351.987 118.877 351.927C119.478 351.85 119.964 351.792 120.337 351.753C120.715 351.71 120.989 351.64 121.16 351.541C121.336 351.442 121.424 351.271 121.424 351.027V350.975C121.424 350.341 121.251 349.848 120.903 349.496C120.56 349.144 120.039 348.969 119.341 348.969C118.616 348.969 118.048 349.127 117.636 349.445C117.225 349.762 116.935 350.1 116.768 350.461L115.328 349.946C115.585 349.346 115.928 348.879 116.356 348.544C116.79 348.205 117.261 347.97 117.771 347.837C118.286 347.7 118.792 347.631 119.289 347.631C119.606 347.631 119.971 347.67 120.382 347.747C120.798 347.82 121.199 347.972 121.585 348.203C121.975 348.435 122.299 348.784 122.556 349.252C122.813 349.719 122.942 350.345 122.942 351.129V357.638H121.424V356.3H121.347C121.244 356.514 121.073 356.744 120.833 356.988C120.592 357.233 120.273 357.44 119.874 357.612C119.476 357.783 118.989 357.869 118.414 357.869ZM118.646 356.506C119.246 356.506 119.752 356.388 120.164 356.152C120.58 355.916 120.893 355.612 121.103 355.239C121.317 354.866 121.424 354.474 121.424 354.062V352.673C121.36 352.75 121.218 352.821 121 352.885C120.785 352.945 120.537 352.999 120.254 353.046C119.975 353.089 119.703 353.127 119.437 353.162C119.175 353.192 118.963 353.217 118.8 353.239C118.406 353.29 118.037 353.374 117.694 353.49C117.355 353.601 117.081 353.77 116.871 353.998C116.665 354.221 116.562 354.525 116.562 354.911C116.562 355.438 116.757 355.837 117.148 356.107C117.542 356.373 118.041 356.506 118.646 356.506ZM127.23 344.467V357.638H125.712V344.467H127.23ZM135.309 357.638V344.467H139.759C140.792 344.467 141.637 344.653 142.293 345.026C142.953 345.395 143.442 345.895 143.759 346.525C144.077 347.155 144.235 347.858 144.235 348.634C144.235 349.41 144.077 350.115 143.759 350.75C143.446 351.385 142.962 351.89 142.306 352.268C141.65 352.641 140.81 352.827 139.785 352.827H136.595V351.412H139.733C140.441 351.412 141.009 351.29 141.438 351.046C141.866 350.801 142.177 350.471 142.37 350.055C142.567 349.635 142.666 349.162 142.666 348.634C142.666 348.107 142.567 347.635 142.37 347.219C142.177 346.803 141.864 346.478 141.431 346.242C140.998 346.002 140.424 345.882 139.708 345.882H136.904V357.638H135.309ZM150.634 357.843C149.682 357.843 148.861 357.633 148.171 357.213C147.485 356.789 146.956 356.197 146.583 355.438C146.214 354.675 146.029 353.788 146.029 352.776C146.029 351.764 146.214 350.872 146.583 350.1C146.956 349.324 147.474 348.72 148.139 348.287C148.808 347.85 149.588 347.631 150.48 347.631C150.994 347.631 151.502 347.717 152.004 347.888C152.506 348.06 152.962 348.338 153.374 348.724C153.785 349.106 154.113 349.612 154.358 350.242C154.602 350.872 154.724 351.648 154.724 352.57V353.213H147.11V351.901H153.181C153.181 351.344 153.069 350.846 152.846 350.409C152.628 349.972 152.315 349.627 151.907 349.374C151.504 349.121 151.029 348.994 150.48 348.994C149.875 348.994 149.352 349.144 148.911 349.445C148.473 349.74 148.137 350.126 147.901 350.602C147.665 351.078 147.547 351.588 147.547 352.133V353.007C147.547 353.753 147.676 354.386 147.933 354.904C148.195 355.419 148.557 355.811 149.02 356.081C149.483 356.347 150.021 356.48 150.634 356.48C151.033 356.48 151.393 356.424 151.715 356.313C152.04 356.197 152.321 356.026 152.557 355.798C152.793 355.567 152.975 355.28 153.104 354.937L154.57 355.348C154.416 355.846 154.156 356.283 153.792 356.66C153.427 357.033 152.977 357.325 152.441 357.535C151.905 357.741 151.303 357.843 150.634 357.843ZM158.551 351.695V357.638H157.033V347.76H158.499V349.303H158.628C158.859 348.801 159.211 348.398 159.683 348.094C160.154 347.785 160.763 347.631 161.509 347.631C162.178 347.631 162.763 347.768 163.265 348.043C163.766 348.313 164.156 348.724 164.435 349.277C164.714 349.826 164.853 350.521 164.853 351.361V357.638H163.335V351.464C163.335 350.688 163.134 350.083 162.731 349.65C162.328 349.213 161.775 348.994 161.072 348.994C160.587 348.994 160.154 349.099 159.773 349.309C159.395 349.52 159.097 349.826 158.879 350.229C158.66 350.632 158.551 351.121 158.551 351.695ZM171.357 357.843C170.533 357.843 169.807 357.636 169.176 357.22C168.546 356.8 168.053 356.208 167.697 355.445C167.341 354.677 167.164 353.77 167.164 352.724C167.164 351.687 167.341 350.786 167.697 350.023C168.053 349.26 168.548 348.671 169.183 348.255C169.817 347.839 170.551 347.631 171.382 347.631C172.025 347.631 172.533 347.738 172.906 347.953C173.284 348.163 173.571 348.403 173.768 348.673C173.97 348.939 174.126 349.157 174.238 349.329H174.366V344.467H175.884V357.638H174.418V356.12H174.238C174.126 356.3 173.968 356.527 173.762 356.802C173.556 357.072 173.262 357.314 172.881 357.528C172.499 357.738 171.991 357.843 171.357 357.843ZM171.562 356.48C172.171 356.48 172.686 356.321 173.106 356.004C173.526 355.683 173.845 355.239 174.064 354.673C174.283 354.103 174.392 353.445 174.392 352.699C174.392 351.961 174.285 351.316 174.071 350.763C173.856 350.206 173.539 349.772 173.119 349.464C172.699 349.151 172.18 348.994 171.562 348.994C170.919 348.994 170.383 349.159 169.955 349.49C169.53 349.815 169.211 350.259 168.996 350.821C168.786 351.378 168.681 352.004 168.681 352.699C168.681 353.402 168.788 354.041 169.003 354.615C169.221 355.185 169.543 355.64 169.967 355.978C170.396 356.313 170.928 356.48 171.562 356.48ZM178.875 357.638V347.76H180.392V357.638H178.875ZM179.646 346.113C179.35 346.113 179.095 346.012 178.881 345.811C178.671 345.609 178.566 345.367 178.566 345.084C178.566 344.801 178.671 344.559 178.881 344.358C179.095 344.156 179.35 344.055 179.646 344.055C179.942 344.055 180.195 344.156 180.405 344.358C180.619 344.559 180.727 344.801 180.727 345.084C180.727 345.367 180.619 345.609 180.405 345.811C180.195 346.012 179.942 346.113 179.646 346.113ZM184.69 351.695V357.638H183.172V347.76H184.638V349.303H184.767C184.999 348.801 185.35 348.398 185.822 348.094C186.293 347.785 186.902 347.631 187.648 347.631C188.317 347.631 188.902 347.768 189.404 348.043C189.905 348.313 190.296 348.724 190.574 349.277C190.853 349.826 190.992 350.521 190.992 351.361V357.638H189.475V351.464C189.475 350.688 189.273 350.083 188.87 349.65C188.467 349.213 187.914 348.994 187.211 348.994C186.726 348.994 186.293 349.099 185.912 349.309C185.534 349.52 185.236 349.826 185.018 350.229C184.799 350.632 184.69 351.121 184.69 351.695ZM197.753 361.548C197.02 361.548 196.39 361.453 195.862 361.265C195.335 361.08 194.895 360.836 194.544 360.532C194.197 360.232 193.92 359.91 193.714 359.567L194.923 358.718C195.06 358.898 195.234 359.104 195.444 359.335C195.654 359.571 195.941 359.775 196.306 359.946C196.675 360.122 197.157 360.21 197.753 360.21C198.55 360.21 199.208 360.017 199.727 359.631C200.246 359.245 200.505 358.641 200.505 357.818V355.811H200.377C200.265 355.991 200.107 356.214 199.901 356.48C199.699 356.742 199.408 356.975 199.026 357.181C198.649 357.383 198.139 357.483 197.496 357.483C196.698 357.483 195.982 357.295 195.348 356.917C194.717 356.54 194.218 355.991 193.849 355.271C193.485 354.551 193.303 353.676 193.303 352.647C193.303 351.635 193.481 350.754 193.836 350.004C194.192 349.249 194.687 348.666 195.322 348.255C195.957 347.839 196.69 347.631 197.521 347.631C198.165 347.631 198.675 347.738 199.052 347.953C199.434 348.163 199.725 348.403 199.927 348.673C200.132 348.939 200.291 349.157 200.403 349.329H200.557V347.76H202.023V357.921C202.023 358.77 201.83 359.46 201.444 359.991C201.063 360.527 200.548 360.92 199.901 361.168C199.258 361.421 198.542 361.548 197.753 361.548ZM197.701 356.12C198.31 356.12 198.825 355.981 199.245 355.702C199.665 355.423 199.984 355.022 200.203 354.499C200.422 353.976 200.531 353.35 200.531 352.621C200.531 351.91 200.424 351.282 200.21 350.737C199.995 350.193 199.678 349.766 199.258 349.457C198.838 349.149 198.319 348.994 197.701 348.994C197.058 348.994 196.522 349.157 196.094 349.483C195.669 349.809 195.35 350.246 195.135 350.795C194.925 351.344 194.82 351.953 194.82 352.621C194.82 353.307 194.928 353.914 195.142 354.441C195.361 354.965 195.682 355.376 196.107 355.676C196.535 355.972 197.067 356.12 197.701 356.12Z" fill="#1A1919"/>
<path d="M269.01 357.638V356.48L273.357 351.721C273.867 351.164 274.288 350.679 274.618 350.268C274.948 349.852 275.192 349.462 275.351 349.097C275.514 348.729 275.595 348.343 275.595 347.94C275.595 347.477 275.484 347.076 275.261 346.737C275.042 346.398 274.742 346.137 274.361 345.952C273.979 345.768 273.55 345.676 273.074 345.676C272.568 345.676 272.127 345.781 271.75 345.991C271.377 346.197 271.087 346.486 270.881 346.859C270.68 347.232 270.579 347.67 270.579 348.171H269.061C269.061 347.399 269.239 346.722 269.595 346.139C269.951 345.556 270.435 345.101 271.049 344.776C271.666 344.45 272.358 344.287 273.126 344.287C273.897 344.287 274.581 344.45 275.177 344.776C275.773 345.101 276.241 345.541 276.579 346.094C276.918 346.647 277.087 347.262 277.087 347.94C277.087 348.424 276.999 348.898 276.824 349.361C276.652 349.82 276.352 350.332 275.923 350.898C275.499 351.46 274.909 352.146 274.155 352.956L271.196 356.12V356.223H277.319V357.638H269.01ZM284.271 357.818C283.302 357.818 282.477 357.554 281.795 357.027C281.113 356.495 280.592 355.726 280.232 354.718C279.872 353.706 279.692 352.484 279.692 351.052C279.692 349.629 279.872 348.413 280.232 347.406C280.597 346.394 281.12 345.622 281.801 345.091C282.487 344.555 283.31 344.287 284.271 344.287C285.231 344.287 286.052 344.555 286.734 345.091C287.42 345.622 287.943 346.394 288.303 347.406C288.668 348.413 288.85 349.629 288.85 351.052C288.85 352.484 288.67 353.706 288.31 354.718C287.949 355.726 287.428 356.495 286.747 357.027C286.065 357.554 285.24 357.818 284.271 357.818ZM284.271 356.403C285.231 356.403 285.977 355.94 286.509 355.014C287.04 354.088 287.306 352.767 287.306 351.052C287.306 349.912 287.184 348.941 286.94 348.139C286.7 347.337 286.352 346.726 285.898 346.306C285.448 345.886 284.905 345.676 284.271 345.676C283.319 345.676 282.575 346.145 282.039 347.084C281.503 348.019 281.235 349.342 281.235 351.052C281.235 352.193 281.355 353.162 281.595 353.959C281.836 354.757 282.181 355.363 282.631 355.779C283.085 356.195 283.632 356.403 284.271 356.403ZM298.008 355.168V354.474C298.008 353.993 298.106 353.554 298.303 353.155C298.505 352.752 298.796 352.431 299.178 352.191C299.564 351.946 300.031 351.824 300.58 351.824C301.137 351.824 301.605 351.946 301.982 352.191C302.359 352.431 302.644 352.752 302.837 353.155C303.03 353.554 303.127 353.993 303.127 354.474V355.168C303.127 355.648 303.028 356.09 302.831 356.493C302.638 356.892 302.351 357.213 301.969 357.458C301.592 357.698 301.129 357.818 300.58 357.818C300.023 357.818 299.553 357.698 299.172 357.458C298.79 357.213 298.501 356.892 298.303 356.493C298.106 356.09 298.008 355.648 298.008 355.168ZM299.319 354.474V355.168C299.319 355.567 299.414 355.925 299.602 356.242C299.791 356.555 300.117 356.712 300.58 356.712C301.03 356.712 301.347 356.555 301.532 356.242C301.72 355.925 301.815 355.567 301.815 355.168V354.474C301.815 354.075 301.725 353.719 301.545 353.406C301.365 353.089 301.043 352.93 300.58 352.93C300.13 352.93 299.806 353.089 299.609 353.406C299.416 353.719 299.319 354.075 299.319 354.474ZM291.448 347.631V346.936C291.448 346.456 291.546 346.017 291.744 345.618C291.945 345.215 292.237 344.893 292.618 344.653C293.004 344.409 293.472 344.287 294.02 344.287C294.578 344.287 295.045 344.409 295.422 344.653C295.8 344.893 296.085 345.215 296.278 345.618C296.471 346.017 296.567 346.456 296.567 346.936V347.631C296.567 348.111 296.468 348.553 296.271 348.956C296.078 349.354 295.791 349.676 295.409 349.92C295.032 350.161 294.569 350.281 294.02 350.281C293.463 350.281 292.993 350.161 292.612 349.92C292.23 349.676 291.941 349.354 291.744 348.956C291.546 348.553 291.448 348.111 291.448 347.631ZM292.76 346.936V347.631C292.76 348.03 292.854 348.388 293.043 348.705C293.231 349.018 293.557 349.174 294.02 349.174C294.47 349.174 294.788 349.018 294.972 348.705C295.161 348.388 295.255 348.03 295.255 347.631V346.936C295.255 346.538 295.165 346.182 294.985 345.869C294.805 345.552 294.483 345.393 294.02 345.393C293.57 345.393 293.246 345.552 293.049 345.869C292.856 346.182 292.76 346.538 292.76 346.936ZM291.937 357.638L300.992 344.467H302.458L293.403 357.638H291.937Z" fill="#1A1919"/>
<path d="M317.27 357.138V349.096L314.271 352.107L312.954 350.801L318.221 345.546L323.477 350.801L322.183 352.107L319.172 349.096V357.138H317.27Z" fill="#52C93F"/>
<circle cx="63.9104" cy="388.694" r="9.05494" fill="#FF2727"/>
<path d="M87.4215 382.937V381.523H97.2996V382.937H93.158V394.693H91.5631V382.937H87.4215ZM102.136 394.899C101.244 394.899 100.462 394.687 99.7884 394.262C99.1196 393.838 98.5966 393.244 98.2193 392.481C97.8463 391.718 97.6598 390.826 97.6598 389.806C97.6598 388.777 97.8463 387.879 98.2193 387.111C98.5966 386.344 99.1196 385.748 99.7884 385.323C100.462 384.899 101.244 384.687 102.136 384.687C103.028 384.687 103.808 384.899 104.477 385.323C105.15 385.748 105.673 386.344 106.046 387.111C106.423 387.879 106.612 388.777 106.612 389.806C106.612 390.826 106.423 391.718 106.046 392.481C105.673 393.244 105.15 393.838 104.477 394.262C103.808 394.687 103.028 394.899 102.136 394.899ZM102.136 393.536C102.813 393.536 103.371 393.362 103.808 393.015C104.245 392.668 104.569 392.211 104.779 391.645C104.989 391.079 105.094 390.466 105.094 389.806C105.094 389.145 104.989 388.53 104.779 387.96C104.569 387.39 104.245 386.929 103.808 386.577C103.371 386.226 102.813 386.05 102.136 386.05C101.458 386.05 100.901 386.226 100.464 386.577C100.026 386.929 99.7027 387.39 99.4926 387.96C99.2825 388.53 99.1775 389.145 99.1775 389.806C99.1775 390.466 99.2825 391.079 99.4926 391.645C99.7027 392.211 100.026 392.668 100.464 393.015C100.901 393.362 101.458 393.536 102.136 393.536ZM113.225 384.815V386.101H108.105V384.815H113.225ZM109.597 382.449H111.115V391.864C111.115 392.292 111.177 392.614 111.302 392.828C111.43 393.038 111.593 393.18 111.79 393.253C111.992 393.321 112.204 393.356 112.427 393.356C112.594 393.356 112.732 393.347 112.839 393.33C112.946 393.309 113.032 393.291 113.096 393.279L113.405 394.642C113.302 394.68 113.158 394.719 112.974 394.758C112.789 394.801 112.556 394.822 112.273 394.822C111.844 394.822 111.424 394.73 111.012 394.545C110.605 394.361 110.266 394.08 109.996 393.703C109.73 393.326 109.597 392.85 109.597 392.275V382.449ZM118.414 394.925C117.788 394.925 117.22 394.807 116.71 394.571C116.2 394.331 115.795 393.986 115.495 393.536C115.195 393.081 115.045 392.533 115.045 391.889C115.045 391.323 115.156 390.865 115.379 390.513C115.602 390.157 115.9 389.879 116.273 389.677C116.646 389.476 117.057 389.326 117.508 389.227C117.962 389.124 118.419 389.043 118.877 388.983C119.478 388.905 119.964 388.848 120.337 388.809C120.715 388.766 120.989 388.695 121.16 388.597C121.336 388.498 121.424 388.327 121.424 388.082V388.031C121.424 387.396 121.251 386.903 120.903 386.552C120.56 386.2 120.039 386.024 119.341 386.024C118.616 386.024 118.048 386.183 117.636 386.5C117.225 386.817 116.935 387.156 116.768 387.516L115.328 387.002C115.585 386.402 115.928 385.934 116.356 385.6C116.79 385.261 117.261 385.025 117.771 384.892C118.286 384.755 118.792 384.687 119.289 384.687C119.606 384.687 119.971 384.725 120.382 384.802C120.798 384.875 121.199 385.027 121.585 385.259C121.975 385.49 122.299 385.84 122.556 386.307C122.813 386.775 122.942 387.401 122.942 388.185V394.693H121.424V393.356H121.347C121.244 393.57 121.073 393.799 120.833 394.044C120.592 394.288 120.273 394.496 119.874 394.668C119.476 394.839 118.989 394.925 118.414 394.925ZM118.646 393.561C119.246 393.561 119.752 393.444 120.164 393.208C120.58 392.972 120.893 392.668 121.103 392.295C121.317 391.922 121.424 391.529 121.424 391.118V389.729C121.36 389.806 121.218 389.876 121 389.941C120.785 390.001 120.537 390.054 120.254 390.102C119.975 390.144 119.703 390.183 119.437 390.217C119.175 390.247 118.963 390.273 118.8 390.295C118.406 390.346 118.037 390.43 117.694 390.545C117.355 390.657 117.081 390.826 116.871 391.053C116.665 391.276 116.562 391.581 116.562 391.967C116.562 392.494 116.757 392.893 117.148 393.163C117.542 393.429 118.041 393.561 118.646 393.561ZM127.23 381.523V394.693H125.712V381.523H127.23ZM139.373 394.693H135.309V381.523H139.553C140.831 381.523 141.924 381.786 142.833 382.314C143.742 382.837 144.439 383.589 144.923 384.571C145.408 385.548 145.65 386.719 145.65 388.082C145.65 389.454 145.406 390.635 144.917 391.626C144.428 392.612 143.716 393.371 142.782 393.902C141.847 394.43 140.711 394.693 139.373 394.693ZM136.904 393.279H139.27C140.359 393.279 141.262 393.068 141.978 392.648C142.694 392.228 143.228 391.63 143.579 390.854C143.931 390.078 144.107 389.154 144.107 388.082C144.107 387.019 143.933 386.104 143.586 385.336C143.238 384.564 142.72 383.973 142.029 383.561C141.339 383.145 140.479 382.937 139.45 382.937H136.904V393.279ZM151.026 394.925C150.4 394.925 149.832 394.807 149.322 394.571C148.812 394.331 148.407 393.986 148.107 393.536C147.807 393.081 147.656 392.533 147.656 391.889C147.656 391.323 147.768 390.865 147.991 390.513C148.214 390.157 148.512 389.879 148.885 389.677C149.258 389.476 149.669 389.326 150.12 389.227C150.574 389.124 151.031 389.043 151.489 388.983C152.09 388.905 152.576 388.848 152.949 388.809C153.327 388.766 153.601 388.695 153.772 388.597C153.948 388.498 154.036 388.327 154.036 388.082V388.031C154.036 387.396 153.862 386.903 153.515 386.552C153.172 386.2 152.651 386.024 151.952 386.024C151.228 386.024 150.66 386.183 150.248 386.5C149.837 386.817 149.547 387.156 149.38 387.516L147.939 387.002C148.197 386.402 148.54 385.934 148.968 385.6C149.401 385.261 149.873 385.025 150.383 384.892C150.898 384.755 151.404 384.687 151.901 384.687C152.218 384.687 152.583 384.725 152.994 384.802C153.41 384.875 153.811 385.027 154.197 385.259C154.587 385.49 154.911 385.84 155.168 386.307C155.425 386.775 155.554 387.401 155.554 388.185V394.693H154.036V393.356H153.959C153.856 393.57 153.685 393.799 153.444 394.044C153.204 394.288 152.885 394.496 152.486 394.668C152.088 394.839 151.601 394.925 151.026 394.925ZM151.258 393.561C151.858 393.561 152.364 393.444 152.776 393.208C153.192 392.972 153.504 392.668 153.715 392.295C153.929 391.922 154.036 391.529 154.036 391.118V389.729C153.972 389.806 153.83 389.876 153.612 389.941C153.397 390.001 153.149 390.054 152.866 390.102C152.587 390.144 152.315 390.183 152.049 390.217C151.787 390.247 151.575 390.273 151.412 390.295C151.018 390.346 150.649 390.43 150.306 390.545C149.967 390.657 149.693 390.826 149.483 391.053C149.277 391.276 149.174 391.581 149.174 391.967C149.174 392.494 149.369 392.893 149.759 393.163C150.154 393.429 150.653 393.561 151.258 393.561ZM158.324 394.693V384.815H159.79V386.359H159.919C160.125 385.831 160.457 385.422 160.916 385.13C161.375 384.835 161.925 384.687 162.569 384.687C163.22 384.687 163.763 384.835 164.196 385.13C164.633 385.422 164.974 385.831 165.218 386.359H165.321C165.574 385.848 165.953 385.443 166.459 385.143C166.965 384.839 167.572 384.687 168.279 384.687C169.163 384.687 169.885 384.963 170.447 385.516C171.008 386.065 171.289 386.92 171.289 388.082V394.693H169.771V388.082C169.771 387.353 169.572 386.832 169.173 386.519C168.775 386.206 168.305 386.05 167.765 386.05C167.07 386.05 166.532 386.26 166.151 386.68C165.769 387.096 165.578 387.623 165.578 388.262V394.693H164.035V387.928C164.035 387.366 163.853 386.914 163.488 386.571C163.124 386.224 162.654 386.05 162.08 386.05C161.685 386.05 161.317 386.155 160.974 386.365C160.635 386.575 160.361 386.867 160.15 387.24C159.945 387.608 159.842 388.035 159.842 388.52V394.693H158.324ZM176.971 394.925C176.345 394.925 175.777 394.807 175.267 394.571C174.756 394.331 174.351 393.986 174.051 393.536C173.751 393.081 173.601 392.533 173.601 391.889C173.601 391.323 173.713 390.865 173.935 390.513C174.158 390.157 174.456 389.879 174.829 389.677C175.202 389.476 175.614 389.326 176.064 389.227C176.519 389.124 176.975 389.043 177.434 388.983C178.034 388.905 178.521 388.848 178.894 388.809C179.271 388.766 179.545 388.695 179.717 388.597C179.893 388.498 179.981 388.327 179.981 388.082V388.031C179.981 387.396 179.807 386.903 179.46 386.552C179.117 386.2 178.596 386.024 177.897 386.024C177.172 386.024 176.604 386.183 176.193 386.5C175.781 386.817 175.492 387.156 175.325 387.516L173.884 387.002C174.141 386.402 174.484 385.934 174.913 385.6C175.346 385.261 175.818 385.025 176.328 384.892C176.842 384.755 177.348 384.687 177.846 384.687C178.163 384.687 178.527 384.725 178.939 384.802C179.355 384.875 179.756 385.027 180.141 385.259C180.532 385.49 180.855 385.84 181.113 386.307C181.37 386.775 181.498 387.401 181.498 388.185V394.693H179.981V393.356H179.903C179.801 393.57 179.629 393.799 179.389 394.044C179.149 394.288 178.829 394.496 178.431 394.668C178.032 394.839 177.545 394.925 176.971 394.925ZM177.202 393.561C177.803 393.561 178.309 393.444 178.72 393.208C179.136 392.972 179.449 392.668 179.659 392.295C179.873 391.922 179.981 391.529 179.981 391.118V389.729C179.916 389.806 179.775 389.876 179.556 389.941C179.342 390.001 179.093 390.054 178.81 390.102C178.532 390.144 178.259 390.183 177.993 390.217C177.732 390.247 177.52 390.273 177.357 390.295C176.962 390.346 176.594 390.43 176.251 390.545C175.912 390.657 175.638 390.826 175.427 391.053C175.222 391.276 175.119 391.581 175.119 391.967C175.119 392.494 175.314 392.893 175.704 393.163C176.098 393.429 176.598 393.561 177.202 393.561ZM188.256 398.603C187.523 398.603 186.892 398.509 186.365 398.32C185.838 398.136 185.398 397.892 185.047 397.587C184.699 397.287 184.423 396.966 184.217 396.623L185.426 395.774C185.563 395.954 185.737 396.16 185.947 396.391C186.157 396.627 186.444 396.831 186.809 397.002C187.178 397.178 187.66 397.266 188.256 397.266C189.053 397.266 189.711 397.073 190.23 396.687C190.749 396.301 191.008 395.697 191.008 394.873V392.867H190.88C190.768 393.047 190.61 393.27 190.404 393.536C190.202 393.797 189.911 394.031 189.529 394.237C189.152 394.438 188.642 394.539 187.999 394.539C187.201 394.539 186.485 394.35 185.851 393.973C185.22 393.596 184.721 393.047 184.352 392.327C183.988 391.606 183.806 390.732 183.806 389.703C183.806 388.691 183.983 387.81 184.339 387.06C184.695 386.305 185.19 385.722 185.825 385.31C186.459 384.895 187.193 384.687 188.024 384.687C188.667 384.687 189.178 384.794 189.555 385.008C189.936 385.218 190.228 385.458 190.43 385.728C190.635 385.994 190.794 386.213 190.905 386.384H191.06V384.815H192.526V394.976C192.526 395.825 192.333 396.515 191.947 397.047C191.566 397.583 191.051 397.975 190.404 398.224C189.761 398.477 189.045 398.603 188.256 398.603ZM188.204 393.176C188.813 393.176 189.328 393.036 189.748 392.758C190.168 392.479 190.487 392.078 190.706 391.555C190.925 391.032 191.034 390.406 191.034 389.677C191.034 388.965 190.927 388.337 190.713 387.793C190.498 387.248 190.181 386.822 189.761 386.513C189.341 386.204 188.822 386.05 188.204 386.05C187.561 386.05 187.025 386.213 186.597 386.539C186.172 386.865 185.853 387.302 185.638 387.851C185.428 388.399 185.323 389.008 185.323 389.677C185.323 390.363 185.43 390.97 185.645 391.497C185.863 392.02 186.185 392.432 186.609 392.732C187.038 393.028 187.57 393.176 188.204 393.176ZM199.446 394.899C198.494 394.899 197.673 394.689 196.983 394.269C196.297 393.844 195.767 393.253 195.394 392.494C195.026 391.731 194.841 390.843 194.841 389.831C194.841 388.82 195.026 387.928 195.394 387.156C195.767 386.38 196.286 385.776 196.951 385.343C197.619 384.905 198.4 384.687 199.292 384.687C199.806 384.687 200.314 384.772 200.816 384.944C201.317 385.115 201.774 385.394 202.186 385.78C202.597 386.161 202.925 386.667 203.169 387.298C203.414 387.928 203.536 388.704 203.536 389.626V390.269H195.922V388.957H201.993C201.993 388.399 201.881 387.902 201.658 387.465C201.44 387.028 201.127 386.682 200.719 386.429C200.316 386.176 199.84 386.05 199.292 386.05C198.687 386.05 198.164 386.2 197.722 386.5C197.285 386.796 196.948 387.182 196.713 387.658C196.477 388.134 196.359 388.644 196.359 389.188V390.063C196.359 390.809 196.488 391.441 196.745 391.96C197.006 392.475 197.369 392.867 197.832 393.137C198.295 393.403 198.833 393.536 199.446 393.536C199.845 393.536 200.205 393.48 200.526 393.369C200.852 393.253 201.133 393.081 201.369 392.854C201.605 392.623 201.787 392.335 201.915 391.992L203.382 392.404C203.227 392.901 202.968 393.339 202.604 393.716C202.239 394.089 201.789 394.38 201.253 394.59C200.717 394.796 200.115 394.899 199.446 394.899ZM209.575 394.899C208.752 394.899 208.025 394.691 207.395 394.275C206.764 393.855 206.271 393.264 205.916 392.5C205.56 391.733 205.382 390.826 205.382 389.78C205.382 388.742 205.56 387.842 205.916 387.079C206.271 386.316 206.767 385.726 207.401 385.31C208.036 384.895 208.769 384.687 209.601 384.687C210.244 384.687 210.752 384.794 211.125 385.008C211.502 385.218 211.789 385.458 211.986 385.728C212.188 385.994 212.344 386.213 212.456 386.384H212.585V381.523H214.102V394.693H212.636V393.176H212.456C212.344 393.356 212.186 393.583 211.98 393.857C211.774 394.127 211.481 394.37 211.099 394.584C210.717 394.794 210.209 394.899 209.575 394.899ZM209.781 393.536C210.389 393.536 210.904 393.377 211.324 393.06C211.744 392.738 212.064 392.295 212.282 391.729C212.501 391.158 212.61 390.5 212.61 389.754C212.61 389.017 212.503 388.372 212.289 387.819C212.074 387.261 211.757 386.828 211.337 386.519C210.917 386.206 210.398 386.05 209.781 386.05C209.138 386.05 208.602 386.215 208.173 386.545C207.748 386.871 207.429 387.315 207.215 387.876C207.005 388.434 206.9 389.06 206.9 389.754C206.9 390.457 207.007 391.096 207.221 391.671C207.44 392.241 207.761 392.695 208.186 393.034C208.614 393.369 209.146 393.536 209.781 393.536Z" fill="#1A1919"/>
<path d="M269.01 394.693V393.536L273.357 388.777C273.867 388.219 274.288 387.735 274.618 387.323C274.948 386.907 275.192 386.517 275.351 386.153C275.514 385.784 275.595 385.398 275.595 384.995C275.595 384.532 275.484 384.131 275.261 383.793C275.042 383.454 274.742 383.192 274.361 383.008C273.979 382.824 273.55 382.732 273.074 382.732C272.568 382.732 272.127 382.837 271.75 383.047C271.377 383.252 271.087 383.542 270.881 383.915C270.68 384.288 270.579 384.725 270.579 385.227H269.061C269.061 384.455 269.239 383.778 269.595 383.195C269.951 382.612 270.435 382.157 271.049 381.831C271.666 381.505 272.358 381.342 273.126 381.342C273.897 381.342 274.581 381.505 275.177 381.831C275.773 382.157 276.241 382.597 276.579 383.15C276.918 383.703 277.087 384.318 277.087 384.995C277.087 385.48 276.999 385.954 276.824 386.417C276.652 386.875 276.352 387.388 275.923 387.954C275.499 388.515 274.909 389.201 274.155 390.012L271.196 393.176V393.279H277.319V394.693H269.01ZM284.348 394.873C283.808 394.865 283.268 394.762 282.727 394.565C282.187 394.368 281.694 394.035 281.248 393.568C280.802 393.096 280.444 392.46 280.174 391.658C279.904 390.852 279.769 389.84 279.769 388.622C279.769 387.456 279.878 386.423 280.097 385.523C280.316 384.618 280.633 383.857 281.049 383.24C281.465 382.618 281.966 382.146 282.554 381.825C283.145 381.503 283.812 381.342 284.554 381.342C285.291 381.342 285.947 381.49 286.522 381.786C287.1 382.078 287.572 382.485 287.937 383.008C288.301 383.531 288.537 384.134 288.644 384.815H287.075C286.929 384.224 286.646 383.733 286.226 383.343C285.806 382.952 285.248 382.757 284.554 382.757C283.533 382.757 282.729 383.201 282.142 384.089C281.559 384.976 281.265 386.221 281.261 387.825H281.364C281.604 387.461 281.889 387.15 282.219 386.892C282.554 386.631 282.922 386.429 283.325 386.288C283.728 386.146 284.155 386.076 284.605 386.076C285.36 386.076 286.05 386.264 286.676 386.642C287.302 387.015 287.804 387.531 288.181 388.192C288.558 388.848 288.747 389.6 288.747 390.449C288.747 391.263 288.565 392.009 288.2 392.687C287.836 393.36 287.323 393.896 286.663 394.295C286.007 394.689 285.235 394.882 284.348 394.873ZM284.348 393.459C284.888 393.459 285.373 393.324 285.801 393.053C286.234 392.783 286.575 392.421 286.824 391.967C287.077 391.512 287.203 391.006 287.203 390.449C287.203 389.904 287.081 389.409 286.837 388.963C286.597 388.513 286.264 388.155 285.84 387.889C285.42 387.623 284.94 387.491 284.399 387.491C283.992 387.491 283.613 387.572 283.261 387.735C282.91 387.894 282.601 388.112 282.335 388.391C282.074 388.67 281.868 388.989 281.718 389.349C281.568 389.705 281.493 390.08 281.493 390.475C281.493 390.998 281.615 391.486 281.859 391.941C282.108 392.395 282.447 392.762 282.875 393.041C283.308 393.319 283.799 393.459 284.348 393.459ZM297.99 392.224V391.529C297.99 391.049 298.088 390.61 298.286 390.211C298.487 389.808 298.779 389.486 299.16 389.246C299.546 389.002 300.014 388.88 300.562 388.88C301.12 388.88 301.587 389.002 301.964 389.246C302.342 389.486 302.627 389.808 302.82 390.211C303.013 390.61 303.109 391.049 303.109 391.529V392.224C303.109 392.704 303.01 393.146 302.813 393.549C302.62 393.947 302.333 394.269 301.951 394.513C301.574 394.753 301.111 394.873 300.562 394.873C300.005 394.873 299.535 394.753 299.154 394.513C298.772 394.269 298.483 393.947 298.286 393.549C298.088 393.146 297.99 392.704 297.99 392.224ZM299.302 391.529V392.224C299.302 392.623 299.396 392.981 299.585 393.298C299.773 393.611 300.099 393.767 300.562 393.767C301.012 393.767 301.33 393.611 301.514 393.298C301.703 392.981 301.797 392.623 301.797 392.224V391.529C301.797 391.131 301.707 390.775 301.527 390.462C301.347 390.144 301.025 389.986 300.562 389.986C300.112 389.986 299.788 390.144 299.591 390.462C299.398 390.775 299.302 391.131 299.302 391.529ZM291.43 384.687V383.992C291.43 383.512 291.529 383.072 291.726 382.674C291.928 382.271 292.219 381.949 292.601 381.709C292.987 381.465 293.454 381.342 294.003 381.342C294.56 381.342 295.027 381.465 295.405 381.709C295.782 381.949 296.067 382.271 296.26 382.674C296.453 383.072 296.549 383.512 296.549 383.992V384.687C296.549 385.167 296.451 385.608 296.253 386.011C296.061 386.41 295.773 386.732 295.392 386.976C295.014 387.216 294.551 387.336 294.003 387.336C293.445 387.336 292.976 387.216 292.594 386.976C292.213 386.732 291.923 386.41 291.726 386.011C291.529 385.608 291.43 385.167 291.43 384.687ZM292.742 383.992V384.687C292.742 385.085 292.836 385.443 293.025 385.761C293.214 386.074 293.54 386.23 294.003 386.23C294.453 386.23 294.77 386.074 294.954 385.761C295.143 385.443 295.237 385.085 295.237 384.687V383.992C295.237 383.593 295.147 383.237 294.967 382.925C294.787 382.607 294.466 382.449 294.003 382.449C293.552 382.449 293.229 382.607 293.032 382.925C292.839 383.237 292.742 383.593 292.742 383.992ZM291.919 394.693L300.974 381.523H302.44L293.385 394.693H291.919Z" fill="#1A1919"/>
<path d="M319.172 382.669V390.71L322.171 387.7L323.488 389.005L318.221 394.261L312.965 389.005L314.26 387.7L317.27 390.71V382.669H319.172Z" fill="#FF2727"/>
</g>
<defs>
<filter id="filter0_d_1202_3424" x="0.526571" y="0.879368" width="380.462" height="465.198" filterUnits="userSpaceOnUse" color-interpolation-filters="sRGB">
<feFlood flood-opacity="0" result="BackgroundImageFix"/>
<feColorMatrix in="SourceAlpha" type="matrix" values="0 0 0 0 0 0 0 0 0 0 0 0 0 0 0 0 0 0 127 0" result="hardAlpha"/>
<feOffset dy="9.05494"/>
<feGaussianBlur stdDeviation="13.5824"/>
<feComposite in2="hardAlpha" operator="out"/>
<feColorMatrix type="matrix" values="0 0 0 0 0.271354 0 0 0 0 0.271354 0 0 0 0 0.3125 0 0 0 0.1 0"/>
<feBlend mode="normal" in2="BackgroundImageFix" result="effect1_dropShadow_1202_3424"/>
<feBlend mode="normal" in="SourceGraphic" in2="effect1_dropShadow_1202_3424" result="shape"/>
</filter>
</defs>
</svg>
